<svg xmlns="http://www.w3.org/2000/svg" viewBox="0 0 486.77 294.32"><defs><style>.cls-1,.cls-10,.cls-4,.cls-6,.cls-9{fill:#fff;}.cls-1,.cls-5{stroke:#1f1f1f;}.cls-1,.cls-11,.cls-3,.cls-4,.cls-5,.cls-7,.cls-8{stroke-miterlimit:10;}.cls-1,.cls-3,.cls-4,.cls-5,.cls-7,.cls-8,.cls-9{stroke-width:2px;}.cls-12,.cls-2,.cls-8{opacity:0.2;}.cls-12,.cls-13,.cls-3,.cls-8{fill:#008bca;}.cls-10,.cls-3,.cls-4,.cls-6,.cls-7,.cls-8,.cls-9{stroke:#008bca;}.cls-11,.cls-5,.cls-7{fill:none;}.cls-10,.cls-6,.cls-9{stroke-linejoin:round;}.cls-6{stroke-width:3px;}.cls-10,.cls-11{stroke-width:4px;}.cls-11{stroke:#fff;}</style></defs><title>architecture</title><g id="Layer_2" data-name="Layer 2"><g id="Layer_1-2" data-name="Layer 1"><line class="cls-1" x1="333.64" y1="99.55" x2="455.72" y2="30.51"/><line class="cls-1" x1="454.93" y1="16" x2="314.62" y2="14.52"/><line class="cls-1" x1="301.23" y1="116.39" x2="265.53" y2="62.71"/><g class="cls-2"><circle class="cls-3" cx="306.71" cy="15.92" r="12.09"/></g><circle class="cls-4" cx="303.48" cy="13.09" r="12.09"/><g class="cls-2"><circle class="cls-3" cx="468.21" cy="25.56" r="12.09"/></g><circle class="cls-4" cx="464.98" cy="22.73" r="12.09"/><g class="cls-2"><circle class="cls-3" cx="392.81" cy="166.65" r="12.09"/></g><circle class="cls-4" cx="389.58" cy="163.82" r="12.09"/><g class="cls-2"><circle class="cls-3" cx="396.24" cy="281.23" r="12.09"/></g><circle class="cls-4" cx="393.01" cy="278.4" r="12.09"/><g class="cls-2"><circle class="cls-3" cx="250.67" cy="206.11" r="12.09"/></g><circle class="cls-4" cx="247.44" cy="203.29" r="12.09"/><polygon class="cls-5" points="144.4 210.95 1 210.95 1 22.11 123.34 22.11 144.4 43.17 144.4 210.95"/><polyline class="cls-6" points="16.95 63.59 20.91 67.56 29.19 59.28"/><polyline class="cls-6" points="16.95 91.24 20.91 95.2 29.19 86.92"/><polyline class="cls-6" points="16.95 118.88 20.91 122.85 29.19 114.57"/><polyline class="cls-6" points="16.95 146.53 20.91 150.49 29.19 142.21"/><polyline class="cls-6" points="16.95 171.17 20.91 175.13 29.19 166.85"/><line class="cls-5" x1="38.73" y1="64.75" x2="98.36" y2="64.75"/><line class="cls-5" x1="38.73" y1="91.94" x2="119.14" y2="91.94"/><line class="cls-5" x1="38.73" y1="119.13" x2="80.3" y2="119.13"/><line class="cls-5" x1="38.73" y1="146.32" x2="127.8" y2="146.32"/><line class="cls-5" x1="38.73" y1="173.51" x2="96.71" y2="173.51"/><polyline class="cls-7" points="144.4 43.17 123.34 43.17 123.34 22.11"/><polyline class="cls-8" points="144.4 43.17 123.34 43.17 123.34 22.11"/><path class="cls-7" d="M134.37,52.15s23.43-8,23.43-40.19L134.37,2.87,110.93,12C110.93,44.11,134.37,52.15,134.37,52.15Z"/><polyline class="cls-9" points="126.47 26.01 133.2 32.74 145.02 20.91"/><path class="cls-8" d="M137.81,55.6s23.44-8,23.44-40.19L137.81,6.32l-23.43,9.09C114.38,47.56,137.81,55.6,137.81,55.6Z"/><path class="cls-1" d="M134.37,52.15s23.43-8,23.43-40.19L134.37,2.87,110.93,12C110.93,44.11,134.37,52.15,134.37,52.15Z"/><polyline class="cls-10" points="126.47 24.57 133.2 31.3 145.02 19.48"/><line class="cls-1" x1="302.44" y1="80.89" x2="303.48" y2="24.37"/><line class="cls-1" x1="319.58" y1="149.01" x2="384.78" y2="268.45"/><line class="cls-1" x1="338.24" y1="117.8" x2="458.35" y2="116.39"/><line class="cls-1" x1="282" y1="148.78" x2="254.75" y2="195.02"/><line class="cls-1" x1="464.98" y1="34.82" x2="470.45" y2="104.3"/><line class="cls-1" x1="465.68" y1="128.27" x2="401.05" y2="269.13"/><line class="cls-1" x1="255.06" y1="212.67" x2="380.92" y2="278.4"/><line class="cls-1" x1="334.14" y1="134" x2="378.83" y2="158.31"/><g class="cls-2"><circle class="cls-3" cx="261.86" cy="53.44" r="12.09"/></g><circle class="cls-4" cx="258.63" cy="50.62" r="12.09"/><line class="cls-1" x1="459.94" y1="121.84" x2="399.69" y2="157.28"/><line class="cls-1" x1="389.58" y1="175.91" x2="393.01" y2="266.31"/><path class="cls-1" d="M218.56,128.16V120a6.7,6.7,0,1,0-13.4,0v8.14l-7.23.2V120a13.93,13.93,0,0,1,13.93-13.93h0A13.93,13.93,0,0,1,225.79,120v8.34Z"/><line class="cls-11" x1="266.13" y1="117.68" x2="215.62" y2="117.44"/><line class="cls-1" x1="265.53" y1="117.68" x2="145.02" y2="117.08"/><path class="cls-11" d="M209.25,113.84a6.73,6.73,0,0,0-4.09,6.18v8.14l-7.23.2V120a13.94,13.94,0,0,1,10.34-13.46"/><path class="cls-1" d="M211.86,113.31a6.71,6.71,0,0,0-6.7,6.71v8.14l-7.23.2V120a13.93,13.93,0,0,1,13.93-13.93h0"/><rect class="cls-1" x="193.05" y="128.36" width="37.63" height="28.86" rx="2.7" ry="2.7"/><path class="cls-12" d="M222.44,128.36s4,16,0,28.86h7.73V128.36Z"/><line class="cls-1" x1="268.09" y1="43.09" x2="294.62" y2="22.11"/><circle class="cls-1" cx="301.88" cy="117.25" r="36.35"/><g id="RZO8mU"><path class="cls-13" d="M301.23,94.21l13.34,22.13-.3.18-12.78,7.56a.39.39,0,0,1-.47,0l-13-7.67-.16-.1Q294.55,105.29,301.23,94.21Z"/><path class="cls-13" d="M314.48,119q-6.6,9.32-13.25,18.67L288,119l0,0,.31.18L301,126.59a.45.45,0,0,0,.54,0l12.63-7.46.31-.18Z"/></g><g class="cls-2"><circle class="cls-3" cx="473.68" cy="119.22" r="12.09"/></g><circle class="cls-4" cx="470.45" cy="116.39" r="12.09"/></g></g></svg>