<?xml version="1.0" encoding="utf-8"?>
<!-- Generator: Adobe Illustrator 22.0.1, SVG Export Plug-In . SVG Version: 6.00 Build 0)  -->
<svg version="1.1" id="Layer_1" xmlns="http://www.w3.org/2000/svg" xmlns:xlink="http://www.w3.org/1999/xlink" x="0px" y="0px"
	 viewBox="0 0 486.8 294.3" style="enable-background:new 0 0 486.8 294.3;" xml:space="preserve">
<style type="text/css">
	.st0{fill:none;stroke:#1F1F1F;stroke-width:2;stroke-miterlimit:10;}
	.st1{opacity:0.2;}
	.st2{fill:#008BCA;stroke:#008BCA;stroke-width:2;stroke-miterlimit:10;}
	.st3{fill:#FFFFFF;stroke:#008BCA;stroke-width:2;stroke-miterlimit:10;}
	.st4{fill:#FFFFFF;stroke:#008BCA;stroke-width:3;stroke-linejoin:round;}
	.st5{fill:none;stroke:#008BCA;stroke-width:2;stroke-miterlimit:10;}
	.st6{opacity:0.2;fill:#008BCA;stroke:#008BCA;stroke-width:2;stroke-miterlimit:10;enable-background:new    ;}
	.st7{fill:#FFFFFF;stroke:#008BCA;stroke-width:2;stroke-linejoin:round;}
	.st8{fill:#FFFFFF;stroke:#1F1F1F;stroke-width:2;stroke-miterlimit:10;}
	.st9{fill:#FFFFFF;stroke:#008BCA;stroke-width:4;stroke-linejoin:round;}
	.st10{fill:none;stroke:#FFFFFF;stroke-width:4;stroke-miterlimit:10;}
	.st11{opacity:0.2;fill:#008BCA;enable-background:new    ;}
	.st12{fill:#008BCA;}
</style>
<title>architecture</title>
<g id="Layer_2_1_">
	<g id="Layer_1-2">
		<line class="st0" x1="333.6" y1="99.6" x2="455.7" y2="30.5"/>
		<line class="st0" x1="454.9" y1="16" x2="314.6" y2="14.5"/>
		<line class="st0" x1="301.2" y1="116.4" x2="265.5" y2="62.7"/>
		<g class="st1">
			<circle class="st2" cx="306.7" cy="15.9" r="12.1"/>
		</g>
		<circle class="st3" cx="303.5" cy="13.1" r="12.1"/>
		<g class="st1">
			<circle class="st2" cx="468.2" cy="25.6" r="12.1"/>
		</g>
		<circle class="st3" cx="465" cy="22.7" r="12.1"/>
		<g class="st1">
			<circle class="st2" cx="392.8" cy="166.6" r="12.1"/>
		</g>
		<circle class="st3" cx="389.6" cy="163.8" r="12.1"/>
		<g class="st1">
			<circle class="st2" cx="396.2" cy="281.2" r="12.1"/>
		</g>
		<circle class="st3" cx="393" cy="278.4" r="12.1"/>
		<g class="st1">
			
				<ellipse transform="matrix(0.1602 -0.9871 0.9871 0.1602 7.0685 420.5281)" class="st2" cx="250.7" cy="206.1" rx="12.1" ry="12.1"/>
		</g>
		<circle class="st3" cx="247.4" cy="203.3" r="12.1"/>
		<polygon class="st0" points="144.4,210.9 1,210.9 1,22.1 123.3,22.1 144.4,43.2 		"/>
		<polyline class="st4" points="17,63.6 20.9,67.6 29.2,59.3 		"/>
		<polyline class="st4" points="17,91.2 20.9,95.2 29.2,86.9 		"/>
		<polyline class="st4" points="17,118.9 20.9,122.8 29.2,114.6 		"/>
		<polyline class="st4" points="17,146.5 20.9,150.5 29.2,142.2 		"/>
		<polyline class="st4" points="17,171.2 20.9,175.1 29.2,166.9 		"/>
		<line class="st0" x1="38.7" y1="64.8" x2="98.4" y2="64.8"/>
		<line class="st0" x1="38.7" y1="91.9" x2="119.1" y2="91.9"/>
		<line class="st0" x1="38.7" y1="119.1" x2="80.3" y2="119.1"/>
		<line class="st0" x1="38.7" y1="146.3" x2="127.8" y2="146.3"/>
		<line class="st0" x1="38.7" y1="173.5" x2="96.7" y2="173.5"/>
		<polyline class="st5" points="144.4,43.2 123.3,43.2 123.3,22.1 		"/>
		<polyline class="st6" points="144.4,43.2 123.3,43.2 123.3,22.1 		"/>
		<path class="st5" d="M134.4,52.2c0,0,23.4-8,23.4-40.2l-23.4-9.1L110.9,12C110.9,44.1,134.4,52.2,134.4,52.2z"/>
		<polyline class="st7" points="126.5,26 133.2,32.7 145,20.9 		"/>
		<path class="st6" d="M137.8,55.6c0,0,23.4-8,23.4-40.2l-23.4-9.1l-23.4,9.1C114.4,47.6,137.8,55.6,137.8,55.6z"/>
		<path class="st8" d="M134.4,52.2c0,0,23.4-8,23.4-40.2l-23.4-9.1L110.9,12C110.9,44.1,134.4,52.2,134.4,52.2z"/>
		<polyline class="st9" points="126.5,24.6 133.2,31.3 145,19.5 		"/>
		<line class="st0" x1="302.4" y1="80.9" x2="303.5" y2="24.4"/>
		<line class="st0" x1="319.6" y1="149" x2="384.8" y2="268.5"/>
		<line class="st0" x1="338.2" y1="117.8" x2="458.4" y2="116.4"/>
		<line class="st0" x1="282" y1="148.8" x2="254.8" y2="195"/>
		<line class="st0" x1="465" y1="34.8" x2="470.5" y2="104.3"/>
		<line class="st0" x1="465.7" y1="128.3" x2="401" y2="269.1"/>
		<line class="st0" x1="255.1" y1="212.7" x2="380.9" y2="278.4"/>
		<line class="st0" x1="334.1" y1="134" x2="378.8" y2="158.3"/>
		<g class="st1">
			<circle class="st2" cx="261.9" cy="53.4" r="12.1"/>
		</g>
		<circle class="st3" cx="258.6" cy="50.6" r="12.1"/>
		<line class="st0" x1="459.9" y1="121.8" x2="399.7" y2="157.3"/>
		<line class="st0" x1="389.6" y1="175.9" x2="393" y2="266.3"/>
		<path class="st8" d="M218.6,128.2V120c0-3.7-3-6.7-6.7-6.7c-3.7,0-6.7,3-6.7,6.7c0,0,0,0,0,0v8.1l-7.2,0.2V120
			c0-7.7,6.2-13.9,13.9-13.9c0,0,0,0,0,0l0,0c7.7,0,13.9,6.2,13.9,13.9v8.3L218.6,128.2z"/>
		<line class="st10" x1="266.1" y1="117.7" x2="215.6" y2="117.4"/>
		<line class="st0" x1="265.5" y1="117.7" x2="145" y2="117.1"/>
		<path class="st10" d="M209.2,113.8c-2.5,1.1-4.1,3.5-4.1,6.2v8.1l-7.2,0.2V120c0-6.3,4.2-11.8,10.3-13.5"/>
		<path class="st8" d="M211.9,113.3c-3.7,0-6.7,3-6.7,6.7v8.1l-7.2,0.2V120c0-7.7,6.2-13.9,13.9-13.9c0,0,0,0,0,0l0,0"/>
		<path class="st8" d="M195.8,128.4H228c1.5,0,2.7,1.2,2.7,2.7v23.5c0,1.5-1.2,2.7-2.7,2.7h-32.2c-1.5,0-2.7-1.2-2.7-2.7v-23.5
			C193.1,129.6,194.3,128.4,195.8,128.4z"/>
		<path class="st11" d="M222.4,128.4c0,0,4,16,0,28.9h7.7v-28.9H222.4z"/>
		<line class="st0" x1="268.1" y1="43.1" x2="294.6" y2="22.1"/>
		<circle class="st8" cx="301.9" cy="117.2" r="36.4"/>
		<g class="st1">
			<circle class="st2" cx="473.7" cy="119.2" r="12.1"/>
		</g>
		<circle class="st3" cx="470.5" cy="116.4" r="12.1"/>
		<path class="st12" d="M320.1,101.3c-3.7,0-7.4,0-11.1,0h-11.2c-0.8,0-1.1,0.4-0.7,1.2c1.1,2.1,2.3,4.2,3.4,6.3
			c0.2,0.4,0.6,0.6,1,0.6h6.8c0.6,0,0.9,0.4,0.7,1c-1.8,4.3-3.6,8.6-5.4,12.9c-0.1,0.3-0.3,0.5-0.6,0.5c-0.4,0-0.5-0.2-0.7-0.5
			c-1.2-2.3-2.5-4.6-3.7-6.8c-2.6-4.9-5.3-9.7-8-14.6c-0.2-0.4-0.6-0.6-1-0.6c-1,0-2.1,0-3.2,0h-4.1c-0.7,0-0.9,0.5-0.6,1.1
			c0.1,0.2,0.2,0.3,0.3,0.5l21.1,38.6c0.2,0.3,0.3,0.6,0.8,0.6s0.5-0.3,0.6-0.6c1.5-3.5,2.9-7,4.4-10.5c4-9.5,8-19,12-28.4
			C321.2,101.8,320.9,101.3,320.1,101.3z"/>
	</g>
</g>
</svg>
