<svg xmlns="http://www.w3.org/2000/svg" viewBox="0 0 1905.84 727.62"><defs><style>.cls-1{opacity:0.06;}.cls-2{fill:none;stroke:#fff;stroke-miterlimit:10;}</style></defs><title>graph</title><g id="Layer_2" data-name="Layer 2"><g id="Layer_1-2" data-name="Layer 1"><g class="cls-1"><g id="triangle36"><path class="cls-2" d="M1331.19,349.69l.27,0,83.94,4.94-128.8,44.59Zm78.16,5.8-77.66-4.57-41.12,45.68Z"/></g><g id="triangle36-2" data-name="triangle36"><path class="cls-2" d="M1413.77,354l-.89,1.42-96,153.53-29.06-111.37.52-.18Zm-96.4,152L1411,356.18,1289.3,398.3Z"/></g><g id="triangle36-3" data-name="triangle36"><path class="cls-2" d="M1493.58,239.4l.31,1.25L1537,413.26l-125.56-57.95.42-.59Zm41.69,171.74L1493,242.2l-79.78,112.62Z"/></g><g id="triangle36-4" data-name="triangle36"><path class="cls-2" d="M1492.32,239.32l1.35,1,114.77,86.07-.41.48-72.16,86.6-.29-1.13Zm114.4,87.28-112.43-84.32,42.16,168.64Z"/></g><g id="triangle36-5" data-name="triangle36"><polygon class="cls-2" points="851.15 178.87 865.26 409.26 935.69 212.03 936.82 212.44 864.42 415.13 849.96 178.94 851.15 178.87"/></g><g id="triangle36-6" data-name="triangle36"><polygon class="cls-2" points="1616.5 102.7 1617.69 102.75 1608.05 329.39 1535.61 141.03 1536.71 140.6 1607.1 323.61 1616.5 102.7"/></g><g id="triangle36-7" data-name="triangle36"><polygon class="cls-2" points="1536.71 140.6 1608.87 328.22 1492.95 241.28 1493.67 240.32 1606.28 324.78 1535.61 141.03 1536.71 140.6"/></g><g id="triangle36-8" data-name="triangle36"><path class="cls-2" d="M1330.83,282.33l1,.87,82.23,72.56-83.23-4.89Zm79.85,72L1332,285v64.77Z"/></g><g id="triangle36-9" data-name="triangle36"><path class="cls-2" d="M573.18,411.6h293.1l-1,1L702.91,575l-.41-.52Zm290.23,1.19H575.65L703,573.18Z"/></g><g id="triangle36-10" data-name="triangle36"><polygon class="cls-2" points="1616.5 102.7 1617.69 102.75 1608.24 325 1773.79 159.44 1774.64 160.28 1606.92 328 1616.5 102.7"/></g><g id="triangle36-11" data-name="triangle36"><rect class="cls-2" x="1573.06" y="242.58" width="235.66" height="1.19" transform="translate(323.64 1267.33) rotate(-45.02)"/></g><g id="triangle36-12" data-name="triangle36"><polygon class="cls-2" points="1606.01 325.27 1607.79 325.94 1898.21 435.45 1897.79 436.56 1609.15 327.73 1746.13 526.13 1745.16 526.8 1606.01 325.27"/></g><g id="triangle36-13" data-name="triangle36"><polygon class="cls-2" points="1164.21 226.39 1165.38 226.64 1127.58 401.46 1221.62 345.03 1222.23 346.06 1125.83 403.9 1126.12 402.56 1164.21 226.39"/></g><g id="triangle36-14" data-name="triangle36"><polygon class="cls-2" points="1041.55 211.99 1126.5 400.78 1164.21 226.39 1165.38 226.64 1126.9 404.58 1126.16 402.92 1040.46 212.47 1041.55 211.99"/></g><g id="triangle36-15" data-name="triangle36"><path class="cls-2" d="M88.63,268.62l.42.22,207.2,106-2.78-.14L11.37,360.36ZM290.76,373.38,88.93,270.11,13.83,359.3Z"/></g><g id="triangle36-16" data-name="triangle36"><path class="cls-2" d="M1041,210.79l.55,1.2,86,191.23-.86,0L949.6,412.85l.4-.9Zm84.81,191.34L1041,213.68,951.48,411.55Z"/></g><g id="triangle36-17" data-name="triangle36"><polygon class="cls-2" points="1040.46 211.99 1041.55 212.48 950.11 414.58 935.66 212.27 936.86 212.19 950.97 409.82 1040.46 211.99"/></g><g id="triangle36-18" data-name="triangle36"><path class="cls-2" d="M936.65,209.36l.21,2.83,14.31,200.6H864l.28-.79ZM949.91,411.6l-14-196.5L865.69,411.6Z"/></g><g id="triangle36-19" data-name="triangle36"><polygon class="cls-2" points="1288.95 396.97 1289.16 397.77 1317.72 507.27 1316.58 507.57 1288.22 398.86 1141.31 493.64 1140.67 492.64 1288.95 396.97"/></g><g id="triangle36-20" data-name="triangle36"><path class="cls-2" d="M1290.69,397.26l-150.15,96.88-.15-.91L1126,402.1l.68,0Zm-149.26,94.88,145-93.57-159.08,4.68Z"/></g><g id="triangle36-21" data-name="triangle36"><polygon class="cls-2" points="36.93 173.86 90.34 270.98 88.48 269.88 7.54 222.27 8.14 221.25 87.21 267.75 35.89 174.44 36.93 173.86"/></g><g id="triangle36-22" data-name="triangle36"><polygon class="cls-2" points="8.14 221.25 89.69 269.21 89.23 269.75 13.06 360.21 12.14 359.44 87.87 269.52 7.54 222.27 8.14 221.25"/></g><g id="triangle36-23" data-name="triangle36"><polygon class="cls-2" points="292.93 373.3 293.69 373.54 526.99 449.72 526.62 450.85 294.09 374.93 289.34 621.7 288.15 621.68 292.93 373.3"/></g><g id="triangle36-24" data-name="triangle36"><polygon class="cls-2" points="294.15 371.18 289.34 621.7 288.15 621.68 292.86 377.04 179.78 631.45 178.69 630.97 294.15 371.18"/></g><g id="triangle36-25" data-name="triangle36"><path class="cls-2" d="M851.11,178.12l0,.75L865.5,413.19l-.92-.45L563.27,264.47l1.45-.43Zm13.07,233.1L850,179.69,566.52,264.75Z"/></g><g id="triangle36-26" data-name="triangle36"><path class="cls-2" d="M564.23,263.62l.93.45L867.4,412.79H573.86l-.05-.55Zm298,148-296.73-146,9.42,146Z"/></g><g id="triangle36-27" data-name="triangle36"><polygon class="cls-2" points="635.76 102.49 636.85 102.97 565.95 263.66 850.39 178.34 850.73 179.48 563.83 265.55 635.76 102.49"/></g><g id="triangle36-28" data-name="triangle36"><polygon class="cls-2" points="376.22 7.66 564.98 262.94 635.76 102.49 636.85 102.97 564.8 266.28 564.32 264.79 375.09 8.02 376.22 7.66"/></g><g id="triangle36-29" data-name="triangle36"><path class="cls-2" d="M565.2,260.14l.29,4.43L575,412.47l-49.13,39.31.33-1.61Zm8.6,151.79-9.21-142.86L527.72,448.8Z"/></g><g id="triangle36-30" data-name="triangle36"><path class="cls-2" d="M565.69,263.64l-.21,1.08L527.25,451.06l-.63-.21L291.77,374.17l1.51-.61ZM526.35,449.52l37.74-183.95L295.25,374.05Z"/></g><g id="triangle36-31" data-name="triangle36"><polygon class="cls-2" points="376.22 7.66 565.8 265.49 188.59 155.67 188.93 154.53 563.98 263.72 375.09 8.02 376.22 7.66"/></g><g id="triangle36-32" data-name="triangle36"><path class="cls-2" d="M187.65,154.16l1.28.37,377.78,110-1.6.65L293.21,374.87l-.24-.51ZM563.07,264.7,189.88,156,293.8,373.35Z"/></g><g id="triangle36-33" data-name="triangle36"><path class="cls-2" d="M188.91,154l.39.82L294.8,375.44l-207-105.89Zm103.3,218.75L188.62,156.17l-98.89,113Z"/></g><g id="triangle36-34" data-name="triangle36"><polygon class="cls-2" points="188.31 154.71 189.21 155.49 88.67 270.4 88.26 269.65 35.89 174.44 36.93 173.86 88.9 268.33 188.31 154.71"/></g><g id="triangle36-35" data-name="triangle36"><polygon class="cls-2" points="1126.87 399.89 1127.29 402.59 1141.57 493.05 1140.39 493.23 1126.54 405.46 1093.95 521.87 1092.8 521.54 1126.87 399.89"/></g><g id="triangle36-36" data-name="triangle36"><polygon class="cls-2" points="574.04 410.76 574.88 411.83 703.42 573.71 702.5 574.45 574.8 413.64 555.96 536.08 554.78 535.9 574.04 410.76"/></g><g id="triangle36-37" data-name="triangle36"><polygon class="cls-2" points="575.23 410.78 575.01 412.29 555.96 536.08 554.78 535.9 573.6 413.62 527.17 450.75 526.43 449.82 575.23 410.78"/></g><g id="triangle36-38" data-name="triangle36"><polygon class="cls-2" points="1330.83 283.65 1332.03 283.65 1332.03 350.83 1255.33 360.42 1255.18 359.24 1330.83 349.78 1330.83 283.65"/></g><g id="triangle36-39" data-name="triangle36"><path class="cls-2" d="M1333,349.52l-44.38,49.29-34.5-39.43ZM1288.58,397l41.33-45.93-73.47,9.19Z"/></g><g id="triangle36-40" data-name="triangle36"><path class="cls-2" d="M1255.44,359.14l34.42,39.33-167.18,4.92Zm31.86,38.22-32.24-36.84L1130.72,402Z"/></g><g id="triangle36-41" data-name="triangle36"><polygon class="cls-2" points="1221.62 345.03 1222.23 346.06 1131.66 400.4 1255.07 359.26 1255.44 360.39 1121.75 404.95 1221.62 345.03"/></g><g id="triangle36-42" data-name="triangle36"><polygon class="cls-2" points="1630.18 477.71 1631.61 478.31 1745.87 525.92 1745.42 527.02 1632.58 480 1674.77 569.07 1673.69 569.58 1630.18 477.71"/></g><g id="triangle36-43" data-name="triangle36"><path class="cls-2" d="M1606.59,324l1.47,2.14L1747.28,527.8l-116.43-48.52ZM1744,525.14,1608.57,329l23.35,149.45Z"/></g><g id="triangle36-44" data-name="triangle36"><path class="cls-2" d="M1608,325.11l.2,1.3,24,153.74-1.15-.81-95.75-67,.42-.49Zm22.62,152.46-23.39-149.68L1537,412.08Z"/></g><g id="triangle36-45" data-name="triangle36"><polygon class="cls-2" points="294.92 372.4 294.05 374.35 179.78 631.45 178.69 630.97 292.1 375.82 74.83 526.95 74.16 525.98 294.92 372.4"/></g><g id="triangle36-46" data-name="triangle36"><polygon class="cls-2" points="12.63 359.23 295.28 373.6 293.84 374.6 74.83 526.95 74.16 525.98 291.73 374.62 12.56 360.43 12.63 359.23"/></g><g id="triangle36-47" data-name="triangle36"><polygon class="cls-2" points="1384.39 202.6 1412.7 353.58 1492.83 240.45 1493.79 241.14 1412.04 356.56 1411.78 355.18 1383.21 202.82 1384.39 202.6"/></g><g id="triangle36-48" data-name="triangle36"><polygon class="cls-2" points="1384.39 202.6 1413.28 356.66 1331.04 284.1 1331.83 283.2 1411.47 353.48 1383.21 202.82 1384.39 202.6"/></g><g id="triangle36-49" data-name="triangle36"><path class="cls-2" d="M1411.13,353.84l125.7,58-.09.45-28.92,144.6-.77-1.62Zm124.35,58.71-121.87-56.26,93.75,196.87Z"/></g><g id="triangle36-50" data-name="triangle36"><polygon class="cls-2" points="1412.44 353.83 1412.91 354.81 1508.13 554.78 1507.05 555.29 1412.3 356.3 1317.65 507.74 1316.64 507.11 1412.44 353.83"/></g><g id="triangle36-51" data-name="triangle36"><polygon class="cls-2" points="1631.64 478 1674.77 569.07 1673.69 569.58 1631.12 479.71 1507.9 555.54 1507.28 554.53 1631.64 478"/></g><g id="triangle36-52" data-name="triangle36"><path class="cls-2" d="M1535.76,411.19l96.7,67.7-.77.47-125,76.9.27-1.34Zm94.54,67.63-93.74-65.61-28.12,140.6Z"/></g><g id="triangle36-53" data-name="triangle36"><polygon class="cls-2" points="1127.78 401.07 1127.28 402.84 1093.95 521.87 1092.8 521.54 1125.63 404.29 989 512.65 988.26 511.72 1127.78 401.07"/></g><g id="triangle36-54" data-name="triangle36"><path class="cls-2" d="M1128.54,402,988.37,513.15l-.3-.75L949.7,411.65ZM988.9,511.21l136-107.83-173.49,9.37Z"/></g><g id="triangle36-55" data-name="triangle36"><path class="cls-2" d="M863.16,411.6H951l.15.39L990,514l-1.71-1.38Zm87,1.19H866.52l120.77,97.55Z"/></g><g id="triangle36-56" data-name="triangle36"><polygon class="cls-2" points="864.8 411.4 865.21 411.74 989 511.72 988.26 512.65 864.89 413 703.39 574.5 702.54 573.66 864.8 411.4"/></g><path class="cls-2" d="M1405,355.07a7.34,7.34,0,1,1,7.34,7.34A7.34,7.34,0,0,1,1405,355.07Z"/><path class="cls-2" d="M1281.24,397.91a7.34,7.34,0,1,1,7.34,7.35A7.34,7.34,0,0,1,1281.24,397.91Z"/><path class="cls-2" d="M1324.09,350.3a7.34,7.34,0,1,1,7.34,7.35A7.34,7.34,0,0,1,1324.09,350.3Z"/><path class="cls-2" d="M1309.8,507.42a7.35,7.35,0,1,1,7.35,7.34A7.35,7.35,0,0,1,1309.8,507.42Z"/><path class="cls-2" d="M1405,355.07a7.34,7.34,0,1,1,7.34,7.34A7.34,7.34,0,0,1,1405,355.07Z"/><path class="cls-2" d="M1281.24,397.91a7.34,7.34,0,1,1,7.34,7.35A7.34,7.34,0,0,1,1281.24,397.91Z"/><path class="cls-2" d="M1309.8,507.42a7.35,7.35,0,1,1,7.35,7.34A7.35,7.35,0,0,1,1309.8,507.42Z"/><path class="cls-2" d="M1486,240.8a7.34,7.34,0,1,1,7.34,7.34A7.33,7.33,0,0,1,1486,240.8Z"/><path class="cls-2" d="M1528.82,412.2a7.34,7.34,0,1,1,7.34,7.34A7.35,7.35,0,0,1,1528.82,412.2Z"/><path class="cls-2" d="M1405,355.07a7.34,7.34,0,1,1,7.34,7.34A7.34,7.34,0,0,1,1405,355.07Z"/><path class="cls-2" d="M1486,240.8a7.34,7.34,0,1,1,7.34,7.34A7.33,7.33,0,0,1,1486,240.8Z"/><path class="cls-2" d="M1486,240.8a7.34,7.34,0,1,1,7.34,7.34A7.33,7.33,0,0,1,1486,240.8Z"/><path class="cls-2" d="M1600.24,326.5a7.34,7.34,0,1,1,7.34,7.34A7.34,7.34,0,0,1,1600.24,326.5Z"/><path class="cls-2" d="M1528.82,412.2a7.34,7.34,0,1,1,7.34,7.34A7.35,7.35,0,0,1,1528.82,412.2Z"/><path class="cls-2" d="M1486,240.8a7.34,7.34,0,1,1,7.34,7.34A7.33,7.33,0,0,1,1486,240.8Z"/><path class="cls-2" d="M928.92,212.23a7.34,7.34,0,1,1,7.34,7.35A7.34,7.34,0,0,1,928.92,212.23Z"/><path class="cls-2" d="M857.5,412.2a7.34,7.34,0,1,1,7.34,7.34A7.35,7.35,0,0,1,857.5,412.2Z"/><path class="cls-2" d="M843.22,178.9a7.34,7.34,0,1,1,7.34,7.35A7.33,7.33,0,0,1,843.22,178.9Z"/><path class="cls-2" d="M1528.82,140.82a7.34,7.34,0,1,1,7.34,7.33A7.33,7.33,0,0,1,1528.82,140.82Z"/><path class="cls-2" d="M1600.24,326.5a7.34,7.34,0,1,1,7.34,7.34A7.34,7.34,0,0,1,1600.24,326.5Z"/><path class="cls-2" d="M1609.76,102.73a7.34,7.34,0,1,1,7.34,7.34A7.33,7.33,0,0,1,1609.76,102.73Z"/><path class="cls-2" d="M1486,240.8a7.34,7.34,0,1,1,7.34,7.34A7.33,7.33,0,0,1,1486,240.8Z"/><path class="cls-2" d="M1600.24,326.5a7.34,7.34,0,1,1,7.34,7.34A7.34,7.34,0,0,1,1600.24,326.5Z"/><path class="cls-2" d="M1528.82,140.82a7.34,7.34,0,1,1,7.34,7.33A7.33,7.33,0,0,1,1528.82,140.82Z"/><path class="cls-2" d="M1324.09,283.65a7.34,7.34,0,1,1,7.34,7.34A7.34,7.34,0,0,1,1324.09,283.65Z"/><path class="cls-2" d="M1324.09,350.3a7.34,7.34,0,1,1,7.34,7.35A7.34,7.34,0,0,1,1324.09,350.3Z"/><path class="cls-2" d="M1405,355.07a7.34,7.34,0,1,1,7.34,7.34A7.34,7.34,0,0,1,1405,355.07Z"/><path class="cls-2" d="M1324.09,283.65a7.34,7.34,0,1,1,7.34,7.34A7.34,7.34,0,0,1,1324.09,283.65Z"/><path class="cls-2" d="M695.62,574.08a7.35,7.35,0,1,1,7.34,7.34A7.34,7.34,0,0,1,695.62,574.08Z"/><path class="cls-2" d="M857.5,412.2a7.34,7.34,0,1,1,7.34,7.34A7.35,7.35,0,0,1,857.5,412.2Z"/><path class="cls-2" d="M567.07,412.2a7.34,7.34,0,1,1,7.34,7.34A7.35,7.35,0,0,1,567.07,412.2Z"/><path class="cls-2" d="M695.62,574.08a7.35,7.35,0,1,1,7.34,7.34A7.34,7.34,0,0,1,695.62,574.08Z"/><path class="cls-2" d="M1766.87,159.86a7.34,7.34,0,1,1,7.34,7.35A7.34,7.34,0,0,1,1766.87,159.86Z"/><path class="cls-2" d="M1600.24,326.5a7.34,7.34,0,1,1,7.34,7.34A7.34,7.34,0,0,1,1600.24,326.5Z"/><path class="cls-2" d="M1609.76,102.73a7.34,7.34,0,1,1,7.34,7.34A7.33,7.33,0,0,1,1609.76,102.73Z"/><path class="cls-2" d="M1600.24,326.5a7.34,7.34,0,1,1,7.34,7.34A7.34,7.34,0,0,1,1600.24,326.5Z"/><path class="cls-2" d="M1766.87,159.86a7.34,7.34,0,1,1,7.34,7.35A7.34,7.34,0,0,1,1766.87,159.86Z"/><path class="cls-2" d="M1890.66,436a7.34,7.34,0,1,1,7.35,7.34A7.36,7.36,0,0,1,1890.66,436Z"/><path class="cls-2" d="M1600.24,326.5a7.34,7.34,0,1,1,7.34,7.34A7.34,7.34,0,0,1,1600.24,326.5Z"/><path class="cls-2" d="M1738.3,526.47a7.35,7.35,0,1,1,7.35,7.34A7.35,7.35,0,0,1,1738.3,526.47Z"/><path class="cls-2" d="M1157.45,226.52a7.34,7.34,0,1,1,7.34,7.34A7.35,7.35,0,0,1,1157.45,226.52Z"/><path class="cls-2" d="M1119.35,402.68a7.35,7.35,0,1,1,7.35,7.34A7.35,7.35,0,0,1,1119.35,402.68Z"/><path class="cls-2" d="M1214.58,345.54a7.34,7.34,0,1,1,7.34,7.35A7.35,7.35,0,0,1,1214.58,345.54Z"/><path class="cls-2" d="M1033.66,212.23a7.35,7.35,0,1,1,7.34,7.35A7.34,7.34,0,0,1,1033.66,212.23Z"/><path class="cls-2" d="M1119.35,402.68a7.35,7.35,0,1,1,7.35,7.34A7.35,7.35,0,0,1,1119.35,402.68Z"/><path class="cls-2" d="M1157.45,226.52a7.34,7.34,0,1,1,7.34,7.34A7.35,7.35,0,0,1,1157.45,226.52Z"/><path class="cls-2" d="M5.26,359.83a7.34,7.34,0,1,1,7.34,7.34A7.34,7.34,0,0,1,5.26,359.83Z"/><path class="cls-2" d="M286.17,374.11a7.34,7.34,0,1,1,7.34,7.34A7.34,7.34,0,0,1,286.17,374.11Z"/><path class="cls-2" d="M81.44,269.36a7.34,7.34,0,1,1,7.34,7.35A7.34,7.34,0,0,1,81.44,269.36Z"/><path class="cls-2" d="M5.26,359.83a7.34,7.34,0,1,1,7.34,7.34A7.34,7.34,0,0,1,5.26,359.83Z"/><path class="cls-2" d="M1033.66,212.23a7.35,7.35,0,1,1,7.34,7.35A7.34,7.34,0,0,1,1033.66,212.23Z"/><path class="cls-2" d="M1119.35,402.68a7.35,7.35,0,1,1,7.35,7.34A7.35,7.35,0,0,1,1119.35,402.68Z"/><path class="cls-2" d="M943.2,412.2a7.34,7.34,0,1,1,7.34,7.34A7.35,7.35,0,0,1,943.2,412.2Z"/><path class="cls-2" d="M1033.66,212.23a7.35,7.35,0,1,1,7.34,7.35A7.34,7.34,0,0,1,1033.66,212.23Z"/><path class="cls-2" d="M1033.66,212.23a7.35,7.35,0,1,1,7.34,7.35A7.34,7.34,0,0,1,1033.66,212.23Z"/><path class="cls-2" d="M943.2,412.2a7.34,7.34,0,1,1,7.34,7.34A7.35,7.35,0,0,1,943.2,412.2Z"/><path class="cls-2" d="M928.92,212.23a7.34,7.34,0,1,1,7.34,7.35A7.34,7.34,0,0,1,928.92,212.23Z"/><path class="cls-2" d="M928.92,212.23a7.34,7.34,0,1,1,7.34,7.35A7.34,7.34,0,0,1,928.92,212.23Z"/><path class="cls-2" d="M943.2,412.2a7.34,7.34,0,1,1,7.34,7.34A7.35,7.35,0,0,1,943.2,412.2Z"/><path class="cls-2" d="M857.5,412.2a7.34,7.34,0,1,1,7.34,7.34A7.35,7.35,0,0,1,857.5,412.2Z"/><path class="cls-2" d="M928.92,212.23a7.34,7.34,0,1,1,7.34,7.35A7.34,7.34,0,0,1,928.92,212.23Z"/><path class="cls-2" d="M1133.64,493.14a7.35,7.35,0,1,1,7.34,7.34A7.35,7.35,0,0,1,1133.64,493.14Z"/><path class="cls-2" d="M1281.24,397.91a7.34,7.34,0,1,1,7.34,7.35A7.34,7.34,0,0,1,1281.24,397.91Z"/><path class="cls-2" d="M1309.8,507.42a7.35,7.35,0,1,1,7.35,7.34A7.35,7.35,0,0,1,1309.8,507.42Z"/><path class="cls-2" d="M1133.64,493.14a7.35,7.35,0,1,1,7.34,7.34A7.35,7.35,0,0,1,1133.64,493.14Z"/><path class="cls-2" d="M1119.35,402.68a7.35,7.35,0,1,1,7.35,7.34A7.35,7.35,0,0,1,1119.35,402.68Z"/><path class="cls-2" d="M1281.24,397.91a7.34,7.34,0,1,1,7.34,7.35A7.34,7.34,0,0,1,1281.24,397.91Z"/><path class="cls-2" d="M1133.64,493.14a7.35,7.35,0,1,1,7.34,7.34A7.35,7.35,0,0,1,1133.64,493.14Z"/><path class="cls-2" d="M29.06,174.15a7.35,7.35,0,1,1,7.35,7.34A7.35,7.35,0,0,1,29.06,174.15Z"/><path class="cls-2" d="M81.44,269.36a7.34,7.34,0,1,1,7.34,7.35A7.34,7.34,0,0,1,81.44,269.36Z"/><path class="cls-2" d="M.5,221.76a7.34,7.34,0,1,1,7.34,7.33A7.34,7.34,0,0,1,.5,221.76Z"/><path class="cls-2" d="M5.26,359.83a7.34,7.34,0,1,1,7.34,7.34A7.34,7.34,0,0,1,5.26,359.83Z"/><path class="cls-2" d="M81.44,269.36a7.34,7.34,0,1,1,7.34,7.35A7.34,7.34,0,0,1,81.44,269.36Z"/><path class="cls-2" d="M.5,221.76a7.34,7.34,0,1,1,7.34,7.33A7.34,7.34,0,0,1,.5,221.76Z"/><path class="cls-2" d="M281.41,621.69a7.34,7.34,0,1,1,7.34,7.34A7.33,7.33,0,0,1,281.41,621.69Z"/><path class="cls-2" d="M286.17,374.11a7.34,7.34,0,1,1,7.34,7.34A7.34,7.34,0,0,1,286.17,374.11Z"/><path class="cls-2" d="M519.47,450.29a7.34,7.34,0,1,1,7.33,7.34A7.33,7.33,0,0,1,519.47,450.29Z"/><path class="cls-2" d="M171.9,631.21a7.34,7.34,0,1,1,7.34,7.34A7.34,7.34,0,0,1,171.9,631.21Z"/><path class="cls-2" d="M286.17,374.11a7.34,7.34,0,1,1,7.34,7.34A7.34,7.34,0,0,1,286.17,374.11Z"/><path class="cls-2" d="M281.41,621.69a7.34,7.34,0,1,1,7.34,7.34A7.33,7.33,0,0,1,281.41,621.69Z"/><path class="cls-2" d="M843.22,178.9a7.34,7.34,0,1,1,7.34,7.35A7.33,7.33,0,0,1,843.22,178.9Z"/><path class="cls-2" d="M857.5,412.2a7.34,7.34,0,1,1,7.34,7.34A7.35,7.35,0,0,1,857.5,412.2Z"/><path class="cls-2" d="M557.55,264.6a7.34,7.34,0,1,1,7.34,7.35A7.34,7.34,0,0,1,557.55,264.6Z"/><path class="cls-2" d="M843.22,178.9a7.34,7.34,0,1,1,7.34,7.35A7.33,7.33,0,0,1,843.22,178.9Z"/><path class="cls-2" d="M557.55,264.6a7.34,7.34,0,1,1,7.34,7.35A7.34,7.34,0,0,1,557.55,264.6Z"/><path class="cls-2" d="M567.07,412.2a7.34,7.34,0,1,1,7.34,7.34A7.35,7.35,0,0,1,567.07,412.2Z"/><path class="cls-2" d="M857.5,412.2a7.34,7.34,0,1,1,7.34,7.34A7.35,7.35,0,0,1,857.5,412.2Z"/><path class="cls-2" d="M843.22,178.9a7.34,7.34,0,1,1,7.34,7.35A7.33,7.33,0,0,1,843.22,178.9Z"/><path class="cls-2" d="M557.55,264.6a7.34,7.34,0,1,1,7.34,7.35A7.34,7.34,0,0,1,557.55,264.6Z"/><path class="cls-2" d="M629,102.73a7.34,7.34,0,1,1,7.34,7.34A7.33,7.33,0,0,1,629,102.73Z"/><path class="cls-2" d="M629,102.73a7.34,7.34,0,1,1,7.34,7.34A7.33,7.33,0,0,1,629,102.73Z"/><path class="cls-2" d="M557.55,264.6a7.34,7.34,0,1,1,7.34,7.35A7.34,7.34,0,0,1,557.55,264.6Z"/><path class="cls-2" d="M368.31,7.84a7.34,7.34,0,1,1,7.34,7.34A7.34,7.34,0,0,1,368.31,7.84Z"/><path class="cls-2" d="M519.47,450.29a7.34,7.34,0,1,1,7.33,7.34A7.33,7.33,0,0,1,519.47,450.29Z"/><path class="cls-2" d="M567.07,412.2a7.34,7.34,0,1,1,7.34,7.34A7.35,7.35,0,0,1,567.07,412.2Z"/><path class="cls-2" d="M557.55,264.6a7.34,7.34,0,1,1,7.34,7.35A7.34,7.34,0,0,1,557.55,264.6Z"/><path class="cls-2" d="M519.47,450.29a7.34,7.34,0,1,1,7.33,7.34A7.33,7.33,0,0,1,519.47,450.29Z"/><path class="cls-2" d="M519.47,450.29a7.34,7.34,0,1,1,7.33,7.34A7.33,7.33,0,0,1,519.47,450.29Z"/><path class="cls-2" d="M557.55,264.6a7.34,7.34,0,1,1,7.34,7.35A7.34,7.34,0,0,1,557.55,264.6Z"/><path class="cls-2" d="M286.17,374.11a7.34,7.34,0,1,1,7.34,7.34A7.34,7.34,0,0,1,286.17,374.11Z"/><path class="cls-2" d="M519.47,450.29a7.34,7.34,0,1,1,7.33,7.34A7.33,7.33,0,0,1,519.47,450.29Z"/><path class="cls-2" d="M368.31,7.84a7.34,7.34,0,1,1,7.34,7.34A7.34,7.34,0,0,1,368.31,7.84Z"/><path class="cls-2" d="M557.55,264.6a7.34,7.34,0,1,1,7.34,7.35A7.34,7.34,0,0,1,557.55,264.6Z"/><path class="cls-2" d="M181.43,155.1a7.34,7.34,0,1,1,7.34,7.34A7.33,7.33,0,0,1,181.43,155.1Z"/><path class="cls-2" d="M181.43,155.1a7.34,7.34,0,1,1,7.34,7.34A7.33,7.33,0,0,1,181.43,155.1Z"/><path class="cls-2" d="M286.17,374.11a7.34,7.34,0,1,1,7.34,7.34A7.34,7.34,0,0,1,286.17,374.11Z"/><path class="cls-2" d="M557.55,264.6a7.34,7.34,0,1,1,7.34,7.35A7.34,7.34,0,0,1,557.55,264.6Z"/><path class="cls-2" d="M181.43,155.1a7.34,7.34,0,1,1,7.34,7.34A7.33,7.33,0,0,1,181.43,155.1Z"/><path class="cls-2" d="M181.43,155.1a7.34,7.34,0,1,1,7.34,7.34A7.33,7.33,0,0,1,181.43,155.1Z"/><path class="cls-2" d="M81.44,269.36a7.34,7.34,0,1,1,7.34,7.35A7.34,7.34,0,0,1,81.44,269.36Z"/><path class="cls-2" d="M286.17,374.11a7.34,7.34,0,1,1,7.34,7.34A7.34,7.34,0,0,1,286.17,374.11Z"/><path class="cls-2" d="M181.43,155.1a7.34,7.34,0,1,1,7.34,7.34A7.33,7.33,0,0,1,181.43,155.1Z"/><path class="cls-2" d="M29.06,174.15a7.35,7.35,0,1,1,7.35,7.34A7.35,7.35,0,0,1,29.06,174.15Z"/><path class="cls-2" d="M81.44,269.36a7.34,7.34,0,1,1,7.34,7.35A7.34,7.34,0,0,1,81.44,269.36Z"/><path class="cls-2" d="M181.43,155.1a7.34,7.34,0,1,1,7.34,7.34A7.33,7.33,0,0,1,181.43,155.1Z"/><path class="cls-2" d="M1086,521.71a7.35,7.35,0,1,1,7.35,7.33A7.35,7.35,0,0,1,1086,521.71Z"/><path class="cls-2" d="M1119.35,402.68a7.35,7.35,0,1,1,7.35,7.34A7.35,7.35,0,0,1,1119.35,402.68Z"/><path class="cls-2" d="M1133.64,493.14a7.35,7.35,0,1,1,7.34,7.34A7.35,7.35,0,0,1,1133.64,493.14Z"/><path class="cls-2" d="M548,536a7.35,7.35,0,1,1,7.34,7.34A7.34,7.34,0,0,1,548,536Z"/><path class="cls-2" d="M567.07,412.2a7.34,7.34,0,1,1,7.34,7.34A7.35,7.35,0,0,1,567.07,412.2Z"/><path class="cls-2" d="M695.62,574.08a7.35,7.35,0,1,1,7.34,7.34A7.34,7.34,0,0,1,695.62,574.08Z"/><path class="cls-2" d="M519.47,450.29a7.34,7.34,0,1,1,7.33,7.34A7.33,7.33,0,0,1,519.47,450.29Z"/><path class="cls-2" d="M567.07,412.2a7.34,7.34,0,1,1,7.34,7.34A7.35,7.35,0,0,1,567.07,412.2Z"/><path class="cls-2" d="M548,536a7.35,7.35,0,1,1,7.34,7.34A7.34,7.34,0,0,1,548,536Z"/><path class="cls-2" d="M1324.09,283.65a7.34,7.34,0,1,1,7.34,7.34A7.34,7.34,0,0,1,1324.09,283.65Z"/><path class="cls-2" d="M1324.09,350.3a7.34,7.34,0,1,1,7.34,7.35A7.34,7.34,0,0,1,1324.09,350.3Z"/><path class="cls-2" d="M1247.91,359.83a7.35,7.35,0,1,1,7.34,7.34A7.34,7.34,0,0,1,1247.91,359.83Z"/><path class="cls-2" d="M1247.91,359.83a7.35,7.35,0,1,1,7.34,7.34A7.34,7.34,0,0,1,1247.91,359.83Z"/><path class="cls-2" d="M1281.24,397.91a7.34,7.34,0,1,1,7.34,7.35A7.34,7.34,0,0,1,1281.24,397.91Z"/><path class="cls-2" d="M1324.09,350.3a7.34,7.34,0,1,1,7.34,7.35A7.34,7.34,0,0,1,1324.09,350.3Z"/><path class="cls-2" d="M1247.91,359.83a7.35,7.35,0,1,1,7.34,7.34A7.34,7.34,0,0,1,1247.91,359.83Z"/><path class="cls-2" d="M1247.91,359.83a7.35,7.35,0,1,1,7.34,7.34A7.34,7.34,0,0,1,1247.91,359.83Z"/><path class="cls-2" d="M1119.35,402.68a7.35,7.35,0,1,1,7.35,7.34A7.35,7.35,0,0,1,1119.35,402.68Z"/><path class="cls-2" d="M1281.24,397.91a7.34,7.34,0,1,1,7.34,7.35A7.34,7.34,0,0,1,1281.24,397.91Z"/><path class="cls-2" d="M1247.91,359.83a7.35,7.35,0,1,1,7.34,7.34A7.34,7.34,0,0,1,1247.91,359.83Z"/><path class="cls-2" d="M1247.91,359.83a7.35,7.35,0,1,1,7.34,7.34A7.34,7.34,0,0,1,1247.91,359.83Z"/><path class="cls-2" d="M1119.35,402.68a7.35,7.35,0,1,1,7.35,7.34A7.35,7.35,0,0,1,1119.35,402.68Z"/><path class="cls-2" d="M1214.58,345.54a7.34,7.34,0,1,1,7.34,7.35A7.35,7.35,0,0,1,1214.58,345.54Z"/><path class="cls-2" d="M1738.3,526.47a7.35,7.35,0,1,1,7.35,7.34A7.35,7.35,0,0,1,1738.3,526.47Z"/><path class="cls-2" d="M1624,478.85a7.35,7.35,0,1,1,7.35,7.35A7.34,7.34,0,0,1,1624,478.85Z"/><path class="cls-2" d="M1666.88,569.32a7.35,7.35,0,1,1,7.35,7.34A7.34,7.34,0,0,1,1666.88,569.32Z"/><path class="cls-2" d="M1738.3,526.47a7.35,7.35,0,1,1,7.35,7.34A7.35,7.35,0,0,1,1738.3,526.47Z"/><path class="cls-2" d="M1624,478.85a7.35,7.35,0,1,1,7.35,7.35A7.34,7.34,0,0,1,1624,478.85Z"/><path class="cls-2" d="M1600.24,326.5a7.34,7.34,0,1,1,7.34,7.34A7.34,7.34,0,0,1,1600.24,326.5Z"/><path class="cls-2" d="M1738.3,526.47a7.35,7.35,0,1,1,7.35,7.34A7.35,7.35,0,0,1,1738.3,526.47Z"/><path class="cls-2" d="M1624,478.85a7.35,7.35,0,1,1,7.35,7.35A7.34,7.34,0,0,1,1624,478.85Z"/><path class="cls-2" d="M1528.82,412.2a7.34,7.34,0,1,1,7.34,7.34A7.35,7.35,0,0,1,1528.82,412.2Z"/><path class="cls-2" d="M1600.24,326.5a7.34,7.34,0,1,1,7.34,7.34A7.34,7.34,0,0,1,1600.24,326.5Z"/><path class="cls-2" d="M171.9,631.21a7.34,7.34,0,1,1,7.34,7.34A7.34,7.34,0,0,1,171.9,631.21Z"/><path class="cls-2" d="M286.17,374.11a7.34,7.34,0,1,1,7.34,7.34A7.34,7.34,0,0,1,286.17,374.11Z"/><path class="cls-2" d="M67.16,526.47a7.34,7.34,0,1,1,7.34,7.34A7.34,7.34,0,0,1,67.16,526.47Z"/><path class="cls-2" d="M5.26,359.83a7.34,7.34,0,1,1,7.34,7.34A7.34,7.34,0,0,1,5.26,359.83Z"/><path class="cls-2" d="M286.17,374.11a7.34,7.34,0,1,1,7.34,7.34A7.34,7.34,0,0,1,286.17,374.11Z"/><path class="cls-2" d="M67.16,526.47a7.34,7.34,0,1,1,7.34,7.34A7.34,7.34,0,0,1,67.16,526.47Z"/><path class="cls-2" d="M1376.46,202.71a7.34,7.34,0,1,1,7.34,7.34A7.34,7.34,0,0,1,1376.46,202.71Z"/><path class="cls-2" d="M1405,355.07a7.34,7.34,0,1,1,7.34,7.34A7.34,7.34,0,0,1,1405,355.07Z"/><path class="cls-2" d="M1486,240.8a7.34,7.34,0,1,1,7.34,7.34A7.33,7.33,0,0,1,1486,240.8Z"/><path class="cls-2" d="M1324.09,283.65a7.34,7.34,0,1,1,7.34,7.34A7.34,7.34,0,0,1,1324.09,283.65Z"/><path class="cls-2" d="M1405,355.07a7.34,7.34,0,1,1,7.34,7.34A7.34,7.34,0,0,1,1405,355.07Z"/><path class="cls-2" d="M1376.46,202.71a7.34,7.34,0,1,1,7.34,7.34A7.34,7.34,0,0,1,1376.46,202.71Z"/><path class="cls-2" d="M1500.25,555a7.34,7.34,0,1,1,7.34,7.35A7.34,7.34,0,0,1,1500.25,555Z"/><path class="cls-2" d="M1405,355.07a7.34,7.34,0,1,1,7.34,7.34A7.34,7.34,0,0,1,1405,355.07Z"/><path class="cls-2" d="M1528.82,412.2a7.34,7.34,0,1,1,7.34,7.34A7.35,7.35,0,0,1,1528.82,412.2Z"/><path class="cls-2" d="M1500.25,555a7.34,7.34,0,1,1,7.34,7.35A7.34,7.34,0,0,1,1500.25,555Z"/><path class="cls-2" d="M1309.8,507.42a7.35,7.35,0,1,1,7.35,7.34A7.35,7.35,0,0,1,1309.8,507.42Z"/><path class="cls-2" d="M1405,355.07a7.34,7.34,0,1,1,7.34,7.34A7.34,7.34,0,0,1,1405,355.07Z"/><path class="cls-2" d="M1500.25,555a7.34,7.34,0,1,1,7.34,7.35A7.34,7.34,0,0,1,1500.25,555Z"/><path class="cls-2" d="M1500.25,555a7.34,7.34,0,1,1,7.34,7.35A7.34,7.34,0,0,1,1500.25,555Z"/><path class="cls-2" d="M1624,478.85a7.35,7.35,0,1,1,7.35,7.35A7.34,7.34,0,0,1,1624,478.85Z"/><path class="cls-2" d="M1666.88,569.32a7.35,7.35,0,1,1,7.35,7.34A7.34,7.34,0,0,1,1666.88,569.32Z"/><path class="cls-2" d="M1500.25,555a7.34,7.34,0,1,1,7.34,7.35A7.34,7.34,0,0,1,1500.25,555Z"/><path class="cls-2" d="M1528.82,412.2a7.34,7.34,0,1,1,7.34,7.34A7.35,7.35,0,0,1,1528.82,412.2Z"/><path class="cls-2" d="M1624,478.85a7.35,7.35,0,1,1,7.35,7.35A7.34,7.34,0,0,1,1624,478.85Z"/><path class="cls-2" d="M1500.25,555a7.34,7.34,0,1,1,7.34,7.35A7.34,7.34,0,0,1,1500.25,555Z"/><path class="cls-2" d="M1086,521.71a7.35,7.35,0,1,1,7.35,7.33A7.35,7.35,0,0,1,1086,521.71Z"/><path class="cls-2" d="M1119.35,402.68a7.35,7.35,0,1,1,7.35,7.34A7.35,7.35,0,0,1,1119.35,402.68Z"/><path class="cls-2" d="M981.29,512.19a7.34,7.34,0,1,1,7.34,7.33A7.34,7.34,0,0,1,981.29,512.19Z"/><path class="cls-2" d="M981.29,512.19a7.34,7.34,0,1,1,7.34,7.33A7.34,7.34,0,0,1,981.29,512.19Z"/><path class="cls-2" d="M943.2,412.2a7.34,7.34,0,1,1,7.34,7.34A7.35,7.35,0,0,1,943.2,412.2Z"/><path class="cls-2" d="M1119.35,402.68a7.35,7.35,0,1,1,7.35,7.34A7.35,7.35,0,0,1,1119.35,402.68Z"/><path class="cls-2" d="M981.29,512.19a7.34,7.34,0,1,1,7.34,7.33A7.34,7.34,0,0,1,981.29,512.19Z"/><path class="cls-2" d="M981.29,512.19a7.34,7.34,0,1,1,7.34,7.33A7.34,7.34,0,0,1,981.29,512.19Z"/><path class="cls-2" d="M857.5,412.2a7.34,7.34,0,1,1,7.34,7.34A7.35,7.35,0,0,1,857.5,412.2Z"/><path class="cls-2" d="M943.2,412.2a7.34,7.34,0,1,1,7.34,7.34A7.35,7.35,0,0,1,943.2,412.2Z"/><path class="cls-2" d="M981.29,512.19a7.34,7.34,0,1,1,7.34,7.33A7.34,7.34,0,0,1,981.29,512.19Z"/><path class="cls-2" d="M695.62,574.08a7.35,7.35,0,1,1,7.34,7.34A7.34,7.34,0,0,1,695.62,574.08Z"/><path class="cls-2" d="M857.5,412.2a7.34,7.34,0,1,1,7.34,7.34A7.35,7.35,0,0,1,857.5,412.2Z"/><path class="cls-2" d="M981.29,512.19a7.34,7.34,0,1,1,7.34,7.33A7.34,7.34,0,0,1,981.29,512.19Z"/><g id="triangle36-57" data-name="triangle36"><path class="cls-2" d="M612.48,421.63h-.22l-66.15-3.89,101.51-35.14Zm-61.6-4.56,61.21,3.6,32.4-36Z"/></g><g id="triangle36-58" data-name="triangle36"><path class="cls-2" d="M547.39,418.28l.7-1.13,75.63-121,22.9,87.77-.41.14Zm76-119.78-73.76,118,95.89-33.19Z"/></g><g id="triangle36-59" data-name="triangle36"><path class="cls-2" d="M484.5,508.56l-.25-1-34-136,99,45.68-.32.46ZM451.63,373.21l33.29,133.14,62.87-88.76Z"/></g><g id="triangle36-60" data-name="triangle36"><path class="cls-2" d="M485.48,508.62l-1.06-.79L394,440l.31-.37,56.88-68.26.22.9Zm-90.15-68.78,88.6,66.45L450.71,373.38Z"/></g><g id="triangle36-61" data-name="triangle36"><polygon class="cls-2" points="990.8 556.26 979.68 374.69 924.17 530.13 923.28 529.81 980.34 370.06 991.74 556.21 990.8 556.26"/></g><g id="triangle36-62" data-name="triangle36"><polygon class="cls-2" points="387.62 616.29 386.68 616.25 394.28 437.64 451.37 586.09 450.5 586.42 395.02 442.19 387.62 616.29"/></g><g id="triangle36-63" data-name="triangle36"><polygon class="cls-2" points="450.5 586.42 393.63 438.56 484.99 507.08 484.43 507.83 395.67 441.27 451.37 586.09 450.5 586.42"/></g><g id="triangle36-64" data-name="triangle36"><path class="cls-2" d="M612.76,474.72,612,474l-64.8-57.18,65.59,3.85Zm-62.93-56.78,62,54.71v-51Z"/></g><g id="triangle36-65" data-name="triangle36"><path class="cls-2" d="M1209.87,372.84h-231l.79-.8,128-128,.33.42Zm-228.73-.94h226.79L1107.55,245.5Z"/></g><g id="triangle36-66" data-name="triangle36"><polygon class="cls-2" points="387.62 616.29 386.68 616.25 394.13 441.09 263.65 571.57 262.99 570.91 395.17 438.73 387.62 616.29"/></g><g id="triangle36-67" data-name="triangle36"><rect class="cls-2" x="236.12" y="505.11" width="185.73" height="0.94" transform="translate(-261.14 380.71) rotate(-45)"/></g><g id="triangle36-68" data-name="triangle36"><polygon class="cls-2" points="395.89 440.88 394.49 440.35 165.6 354.05 165.93 353.17 393.41 438.94 285.45 282.58 286.22 282.06 395.89 440.88"/></g><g id="triangle36-69" data-name="triangle36"><polygon class="cls-2" points="744.07 518.81 743.16 518.61 772.94 380.84 698.83 425.31 698.34 424.5 774.32 378.92 774.09 379.97 744.07 518.81"/></g><g id="triangle36-70" data-name="triangle36"><polygon class="cls-2" points="840.74 530.16 773.79 381.37 744.07 518.81 743.16 518.61 773.48 378.38 774.06 379.68 841.6 529.78 840.74 530.16"/></g><g id="triangle36-71" data-name="triangle36"><path class="cls-2" d="M1591.75,485.53l-.33-.17-163.3-83.55,2.19.11,222.33,11.31ZM1432.45,403l159.07,81.38,59.19-70.28Z"/></g><g id="triangle36-72" data-name="triangle36"><path class="cls-2" d="M841.18,531.1l-.44-.94L772.93,379.45l.67,0,139.61-7.54-.31.7ZM774.34,380.3l66.84,148.53,70.55-156Z"/></g><g id="triangle36-73" data-name="triangle36"><polygon class="cls-2" points="841.6 530.16 840.74 529.77 912.81 370.49 924.19 529.94 923.25 530 912.13 374.25 841.6 530.16"/></g><g id="triangle36-74" data-name="triangle36"><path class="cls-2" d="M923.42,532.23l-.16-2.22L912,371.9h68.7l-.22.63ZM913,372.84,924,527.71l55.31-154.87Z"/></g><g id="triangle36-75" data-name="triangle36"><polygon class="cls-2" points="645.77 384.37 645.6 383.75 623.09 297.44 623.99 297.21 646.34 382.88 762.13 308.19 762.63 308.98 645.77 384.37"/></g><g id="triangle36-76" data-name="triangle36"><path class="cls-2" d="M644.39,384.15,762.73,307.8l.11.71,11.34,71.82-.53,0ZM762,309.37l-114.3,73.74,125.37-3.68Z"/></g><g id="triangle36-77" data-name="triangle36"><polygon class="cls-2" points="1632.5 560.22 1590.4 483.67 1591.87 484.54 1655.66 522.06 1655.18 522.87 1592.87 486.21 1633.32 559.76 1632.5 560.22"/></g><g id="triangle36-78" data-name="triangle36"><polygon class="cls-2" points="1655.18 522.87 1590.92 485.06 1591.28 484.64 1651.31 413.35 1652.03 413.95 1592.35 484.82 1655.66 522.06 1655.18 522.87"/></g><g id="triangle36-79" data-name="triangle36"><polygon class="cls-2" points="1430.74 403.03 1430.14 402.83 1246.28 342.8 1246.57 341.91 1429.83 401.75 1433.57 207.26 1434.51 207.28 1430.74 403.03"/></g><g id="triangle36-80" data-name="triangle36"><polygon class="cls-2" points="1429.77 404.7 1433.57 207.26 1434.51 207.28 1430.8 400.08 1519.91 199.57 1520.77 199.96 1429.77 404.7"/></g><g id="triangle36-81" data-name="triangle36"><path class="cls-2" d="M990.83,556.85l0-.59L979.49,371.59l.73.36L1217.68,488.8l-1.14.34Zm-10.3-183.7L991.7,555.61l223.42-67Z"/></g><g id="triangle36-82" data-name="triangle36"><path class="cls-2" d="M1216.93,489.47l-.74-.36L978,371.9h231.35l0,.44ZM982,372.84l233.85,115.07-7.42-115.07Z"/></g><g id="triangle36-83" data-name="triangle36"><polygon class="cls-2" points="1160.55 616.46 1159.69 616.09 1215.57 489.44 991.4 556.69 991.13 555.79 1217.24 487.95 1160.55 616.46"/></g><g id="triangle36-84" data-name="triangle36"><polygon class="cls-2" points="1291.01 721.48 1216.33 490.01 1160.55 616.46 1159.69 616.09 1216.48 487.38 1216.86 488.55 1291.9 721.19 1291.01 721.48"/></g><g id="triangle36-85" data-name="triangle36"><path class="cls-2" d="M1216.16,492.21l-.23-3.49-7.51-116.56,38.72-31-.26,1.26Zm-6.78-119.62,7.26,112.58,29.06-141.64Z"/></g><g id="triangle36-86" data-name="triangle36"><path class="cls-2" d="M1215.77,489.46l.17-.86,30.13-146.86.5.17,185.09,60.43-1.2.48Zm31-146.49-29.74,145,211.87-85.5Z"/></g><g id="triangle36-87" data-name="triangle36"><polygon class="cls-2" points="1291.01 721.48 1215.69 487.99 1512.97 574.54 1512.7 575.45 1217.12 489.39 1291.9 721.19 1291.01 721.48"/></g><g id="triangle36-88" data-name="triangle36"><path class="cls-2" d="M1513.71,575.74l-1-.29L1215,488.76l1.26-.5,214.29-86.47.19.4Zm-295.87-87.12L1512,574.25,1430.05,403Z"/></g><g id="triangle36-89" data-name="triangle36"><path class="cls-2" d="M1512.72,575.84l-.31-.65-83.15-173.85,163.12,83.45Zm-81.41-172.4L1513,574.15l77.94-89.07Z"/></g><g id="triangle36-90" data-name="triangle36"><polygon class="cls-2" points="1513.19 575.3 1512.48 574.68 1591.72 484.13 1592.04 484.72 1633.32 559.76 1632.5 560.22 1591.54 485.75 1513.19 575.3"/></g><g id="triangle36-91" data-name="triangle36"><polygon class="cls-2" points="773.5 382.07 773.17 379.95 761.91 308.66 762.84 308.51 773.76 377.68 799.45 285.94 800.35 286.2 773.5 382.07"/></g><g id="triangle36-92" data-name="triangle36"><polygon class="cls-2" points="1209.2 373.5 1208.53 372.67 1107.22 245.08 1107.96 244.51 1208.6 371.24 1223.44 274.74 1224.38 274.88 1209.2 373.5"/></g><g id="triangle36-93" data-name="triangle36"><polygon class="cls-2" points="1208.26 373.49 1208.43 372.3 1223.44 274.74 1224.38 274.88 1209.54 371.26 1246.13 341.99 1246.72 342.72 1208.26 373.49"/></g><g id="triangle36-94" data-name="triangle36"><polygon class="cls-2" points="612.76 473.68 611.81 473.68 611.81 420.74 672.26 413.18 672.38 414.11 612.76 421.56 612.76 473.68"/></g><g id="triangle36-95" data-name="triangle36"><path class="cls-2" d="M611.09,421.77l35-38.84L673.26,414Zm35-37.43-32.57,36.19,57.91-7.24Z"/></g><g id="triangle36-96" data-name="triangle36"><path class="cls-2" d="M672.17,414.19l-27.12-31,131.75-3.87Zm-25.1-30.12,25.4,29,98-32.66Z"/></g><g id="triangle36-97" data-name="triangle36"><polygon class="cls-2" points="698.83 425.31 698.34 424.5 769.73 381.67 672.47 414.09 672.17 413.2 777.54 378.08 698.83 425.31"/></g><g id="triangle36-98" data-name="triangle36"><polygon class="cls-2" points="376.84 320.74 375.71 320.27 285.65 282.75 286.02 281.88 374.94 318.94 341.7 248.75 342.55 248.35 376.84 320.74"/></g><g id="triangle36-99" data-name="triangle36"><path class="cls-2" d="M395.43,441.87l-1.16-1.69L284.55,281.27l91.76,38.24Zm-108.3-158.5L393.87,438l-18.4-117.79Z"/></g><g id="triangle36-100" data-name="triangle36"><path class="cls-2" d="M394.35,441l-.16-1L375.26,318.82l.9.64,75.46,52.82-.33.39ZM376.53,320.85l18.43,118,55.29-66.35Z"/></g><g id="triangle36-101" data-name="triangle36"><polygon class="cls-2" points="1429.17 403.73 1429.86 402.2 1519.91 199.57 1520.77 199.96 1431.4 401.05 1602.62 281.93 1603.16 282.7 1429.17 403.73"/></g><g id="triangle36-102" data-name="triangle36"><polygon class="cls-2" points="1651.64 414.11 1428.89 402.79 1430.02 402 1602.62 281.93 1603.16 282.7 1431.68 401.99 1651.7 413.18 1651.64 414.11"/></g><g id="triangle36-103" data-name="triangle36"><polygon class="cls-2" points="570.55 537.55 548.24 418.58 485.08 507.73 484.32 507.18 548.75 416.22 548.96 417.31 571.47 537.39 570.55 537.55"/></g><g id="triangle36-104" data-name="triangle36"><polygon class="cls-2" points="570.55 537.55 547.78 416.14 612.6 473.34 611.98 474.04 549.21 418.65 571.47 537.39 570.55 537.55"/></g><g id="triangle36-105" data-name="triangle36"><path class="cls-2" d="M549.48,418.37l-99.07-45.73.07-.36,22.79-113.95.61,1.28Zm-98-46.27,96,44.33L473.63,261.28Z"/></g><g id="triangle36-106" data-name="triangle36"><polygon class="cls-2" points="548.44 418.38 548.07 417.6 473.03 260 473.88 259.61 548.55 416.42 623.14 297.08 623.94 297.58 548.44 418.38"/></g><g id="triangle36-107" data-name="triangle36"><polygon class="cls-2" points="375.69 320.52 341.7 248.75 342.55 248.35 376.09 319.17 473.2 259.41 473.69 260.2 375.69 320.52"/></g><g id="triangle36-108" data-name="triangle36"><path class="cls-2" d="M451.25,373.17,375,319.82l.6-.38,98.48-60.6-.21,1.05Zm-74.51-53.3,73.88,51.71,22.16-110.81Z"/></g><g id="triangle36-109" data-name="triangle36"><polygon class="cls-2" points="772.79 381.14 773.18 379.75 799.45 285.94 800.35 286.2 774.48 378.61 882.16 293.2 882.75 293.94 772.79 381.14"/></g><g id="triangle36-110" data-name="triangle36"><path class="cls-2" d="M772.18,380.43l110.48-87.62.23.6,30.24,79.39Zm110.06-86.09-107.16,85,136.72-7.39Z"/></g><g id="triangle36-111" data-name="triangle36"><path class="cls-2" d="M981.33,372.84H912.15l-.12-.3-30.64-80.43,1.36,1.1Zm-68.54-.94h65.9L883.51,295Z"/></g><g id="triangle36-112" data-name="triangle36"><polygon class="cls-2" points="980.04 373 979.72 372.73 882.16 293.94 882.75 293.21 979.97 371.75 1107.25 244.46 1107.92 245.13 980.04 373"/></g><path class="cls-2" d="M554.28,417.4a5.79,5.79,0,1,1-5.79-5.78A5.78,5.78,0,0,1,554.28,417.4Z"/><path class="cls-2" d="M651.84,383.63a5.79,5.79,0,1,1-5.79-5.79A5.79,5.79,0,0,1,651.84,383.63Z"/><circle class="cls-2" cx="612.29" cy="421.15" r="5.78"/><path class="cls-2" d="M629.33,297.33a5.79,5.79,0,1,1-5.79-5.79A5.78,5.78,0,0,1,629.33,297.33Z"/><path class="cls-2" d="M554.28,417.4a5.79,5.79,0,1,1-5.79-5.78A5.78,5.78,0,0,1,554.28,417.4Z"/><path class="cls-2" d="M651.84,383.63a5.79,5.79,0,1,1-5.79-5.79A5.79,5.79,0,0,1,651.84,383.63Z"/><path class="cls-2" d="M629.33,297.33a5.79,5.79,0,1,1-5.79-5.79A5.78,5.78,0,0,1,629.33,297.33Z"/><path class="cls-2" d="M490.49,507.46a5.79,5.79,0,1,1-5.78-5.79A5.78,5.78,0,0,1,490.49,507.46Z"/><path class="cls-2" d="M456.72,372.37a5.79,5.79,0,1,1-5.78-5.78A5.79,5.79,0,0,1,456.72,372.37Z"/><path class="cls-2" d="M554.28,417.4a5.79,5.79,0,1,1-5.79-5.78A5.78,5.78,0,0,1,554.28,417.4Z"/><path class="cls-2" d="M490.49,507.46a5.79,5.79,0,1,1-5.78-5.79A5.78,5.78,0,0,1,490.49,507.46Z"/><path class="cls-2" d="M490.49,507.46a5.79,5.79,0,1,1-5.78-5.79A5.78,5.78,0,0,1,490.49,507.46Z"/><path class="cls-2" d="M400.44,439.92a5.79,5.79,0,1,1-5.79-5.79A5.78,5.78,0,0,1,400.44,439.92Z"/><path class="cls-2" d="M456.72,372.37a5.79,5.79,0,1,1-5.78-5.78A5.79,5.79,0,0,1,456.72,372.37Z"/><path class="cls-2" d="M490.49,507.46a5.79,5.79,0,1,1-5.78-5.79A5.78,5.78,0,0,1,490.49,507.46Z"/><path class="cls-2" d="M929.51,530a5.79,5.79,0,1,1-5.78-5.79A5.79,5.79,0,0,1,929.51,530Z"/><path class="cls-2" d="M985.8,372.37a5.79,5.79,0,1,1-5.79-5.78A5.79,5.79,0,0,1,985.8,372.37Z"/><path class="cls-2" d="M997.05,556.24a5.79,5.79,0,1,1-5.78-5.79A5.78,5.78,0,0,1,997.05,556.24Z"/><path class="cls-2" d="M456.72,586.25a5.79,5.79,0,1,1-5.78-5.78A5.78,5.78,0,0,1,456.72,586.25Z"/><path class="cls-2" d="M400.44,439.92a5.79,5.79,0,1,1-5.79-5.79A5.78,5.78,0,0,1,400.44,439.92Z"/><path class="cls-2" d="M392.93,616.27a5.79,5.79,0,1,1-5.78-5.79A5.78,5.78,0,0,1,392.93,616.27Z"/><path class="cls-2" d="M490.49,507.46a5.79,5.79,0,1,1-5.78-5.79A5.78,5.78,0,0,1,490.49,507.46Z"/><path class="cls-2" d="M400.44,439.92a5.79,5.79,0,1,1-5.79-5.79A5.78,5.78,0,0,1,400.44,439.92Z"/><path class="cls-2" d="M456.72,586.25a5.79,5.79,0,1,1-5.78-5.78A5.78,5.78,0,0,1,456.72,586.25Z"/><path class="cls-2" d="M618.07,473.68a5.79,5.79,0,1,1-5.78-5.78A5.78,5.78,0,0,1,618.07,473.68Z"/><circle class="cls-2" cx="612.29" cy="421.15" r="5.78"/><path class="cls-2" d="M554.28,417.4a5.79,5.79,0,1,1-5.79-5.78A5.78,5.78,0,0,1,554.28,417.4Z"/><path class="cls-2" d="M618.07,473.68a5.79,5.79,0,1,1-5.78-5.78A5.78,5.78,0,0,1,618.07,473.68Z"/><path class="cls-2" d="M1113.38,244.79a5.79,5.79,0,1,1-5.79-5.78A5.79,5.79,0,0,1,1113.38,244.79Z"/><path class="cls-2" d="M985.8,372.37a5.79,5.79,0,1,1-5.79-5.78A5.79,5.79,0,0,1,985.8,372.37Z"/><path class="cls-2" d="M1214.68,372.37a5.79,5.79,0,1,1-5.78-5.78A5.78,5.78,0,0,1,1214.68,372.37Z"/><path class="cls-2" d="M1113.38,244.79a5.79,5.79,0,1,1-5.79-5.78A5.79,5.79,0,0,1,1113.38,244.79Z"/><path class="cls-2" d="M269.11,571.24a5.79,5.79,0,1,1-5.79-5.78A5.79,5.79,0,0,1,269.11,571.24Z"/><path class="cls-2" d="M400.44,439.92a5.79,5.79,0,1,1-5.79-5.79A5.78,5.78,0,0,1,400.44,439.92Z"/><path class="cls-2" d="M392.93,616.27a5.79,5.79,0,1,1-5.78-5.79A5.78,5.78,0,0,1,392.93,616.27Z"/><path class="cls-2" d="M400.44,439.92a5.79,5.79,0,1,1-5.79-5.79A5.78,5.78,0,0,1,400.44,439.92Z"/><path class="cls-2" d="M269.11,571.24a5.79,5.79,0,1,1-5.79-5.78A5.79,5.79,0,0,1,269.11,571.24Z"/><path class="cls-2" d="M171.55,353.61a5.79,5.79,0,1,1-5.79-5.79A5.79,5.79,0,0,1,171.55,353.61Z"/><path class="cls-2" d="M400.44,439.92a5.79,5.79,0,1,1-5.79-5.79A5.78,5.78,0,0,1,400.44,439.92Z"/><path class="cls-2" d="M291.62,282.32a5.79,5.79,0,1,1-5.79-5.79A5.79,5.79,0,0,1,291.62,282.32Z"/><circle class="cls-2" cx="743.62" cy="518.71" r="5.78"/><path class="cls-2" d="M779.42,379.88a5.79,5.79,0,1,1-5.79-5.79A5.78,5.78,0,0,1,779.42,379.88Z"/><path class="cls-2" d="M704.37,424.91a5.79,5.79,0,1,1-5.78-5.79A5.78,5.78,0,0,1,704.37,424.91Z"/><path class="cls-2" d="M847,530a5.79,5.79,0,1,1-5.78-5.79A5.79,5.79,0,0,1,847,530Z"/><path class="cls-2" d="M779.42,379.88a5.79,5.79,0,1,1-5.79-5.79A5.78,5.78,0,0,1,779.42,379.88Z"/><circle class="cls-2" cx="743.62" cy="518.71" r="5.78"/><circle class="cls-2" cx="1651.67" cy="413.65" r="5.78"/><circle class="cls-2" cx="1430.29" cy="402.39" r="5.78"/><circle class="cls-2" cx="1591.63" cy="484.94" r="5.78"/><circle class="cls-2" cx="1651.67" cy="413.65" r="5.78"/><path class="cls-2" d="M847,530a5.79,5.79,0,1,1-5.78-5.79A5.79,5.79,0,0,1,847,530Z"/><path class="cls-2" d="M779.42,379.88a5.79,5.79,0,1,1-5.79-5.79A5.78,5.78,0,0,1,779.42,379.88Z"/><path class="cls-2" d="M918.25,372.37a5.79,5.79,0,1,1-5.78-5.78A5.78,5.78,0,0,1,918.25,372.37Z"/><path class="cls-2" d="M847,530a5.79,5.79,0,1,1-5.78-5.79A5.79,5.79,0,0,1,847,530Z"/><path class="cls-2" d="M847,530a5.79,5.79,0,1,1-5.78-5.79A5.79,5.79,0,0,1,847,530Z"/><path class="cls-2" d="M918.25,372.37a5.79,5.79,0,1,1-5.78-5.78A5.78,5.78,0,0,1,918.25,372.37Z"/><path class="cls-2" d="M929.51,530a5.79,5.79,0,1,1-5.78-5.79A5.79,5.79,0,0,1,929.51,530Z"/><path class="cls-2" d="M929.51,530a5.79,5.79,0,1,1-5.78-5.79A5.79,5.79,0,0,1,929.51,530Z"/><path class="cls-2" d="M918.25,372.37a5.79,5.79,0,1,1-5.78-5.78A5.78,5.78,0,0,1,918.25,372.37Z"/><path class="cls-2" d="M985.8,372.37a5.79,5.79,0,1,1-5.79-5.78A5.79,5.79,0,0,1,985.8,372.37Z"/><path class="cls-2" d="M929.51,530a5.79,5.79,0,1,1-5.78-5.79A5.79,5.79,0,0,1,929.51,530Z"/><path class="cls-2" d="M768.16,308.58a5.79,5.79,0,1,1-5.78-5.78A5.78,5.78,0,0,1,768.16,308.58Z"/><path class="cls-2" d="M651.84,383.63a5.79,5.79,0,1,1-5.79-5.79A5.79,5.79,0,0,1,651.84,383.63Z"/><path class="cls-2" d="M629.33,297.33a5.79,5.79,0,1,1-5.79-5.79A5.78,5.78,0,0,1,629.33,297.33Z"/><path class="cls-2" d="M768.16,308.58a5.79,5.79,0,1,1-5.78-5.78A5.78,5.78,0,0,1,768.16,308.58Z"/><path class="cls-2" d="M779.42,379.88a5.79,5.79,0,1,1-5.79-5.79A5.78,5.78,0,0,1,779.42,379.88Z"/><path class="cls-2" d="M651.84,383.63a5.79,5.79,0,1,1-5.79-5.79A5.79,5.79,0,0,1,651.84,383.63Z"/><path class="cls-2" d="M768.16,308.58a5.79,5.79,0,1,1-5.78-5.78A5.78,5.78,0,0,1,768.16,308.58Z"/><path class="cls-2" d="M1638.7,560a5.79,5.79,0,1,1-5.79-5.78A5.79,5.79,0,0,1,1638.7,560Z"/><circle class="cls-2" cx="1591.63" cy="484.94" r="5.78"/><path class="cls-2" d="M1661.21,522.47a5.79,5.79,0,1,1-5.79-5.79A5.78,5.78,0,0,1,1661.21,522.47Z"/><circle class="cls-2" cx="1651.67" cy="413.65" r="5.78"/><circle class="cls-2" cx="1591.63" cy="484.94" r="5.78"/><path class="cls-2" d="M1661.21,522.47a5.79,5.79,0,1,1-5.79-5.79A5.78,5.78,0,0,1,1661.21,522.47Z"/><path class="cls-2" d="M1439.82,207.27a5.79,5.79,0,1,1-5.78-5.79A5.78,5.78,0,0,1,1439.82,207.27Z"/><circle class="cls-2" cx="1430.29" cy="402.39" r="5.78"/><path class="cls-2" d="M1252.21,342.36a5.79,5.79,0,1,1-5.79-5.79A5.78,5.78,0,0,1,1252.21,342.36Z"/><path class="cls-2" d="M1526.13,199.77a5.79,5.79,0,1,1-5.79-5.79A5.79,5.79,0,0,1,1526.13,199.77Z"/><circle class="cls-2" cx="1430.29" cy="402.39" r="5.78"/><path class="cls-2" d="M1439.82,207.27a5.79,5.79,0,1,1-5.78-5.79A5.78,5.78,0,0,1,1439.82,207.27Z"/><path class="cls-2" d="M997.05,556.24a5.79,5.79,0,1,1-5.78-5.79A5.78,5.78,0,0,1,997.05,556.24Z"/><path class="cls-2" d="M985.8,372.37a5.79,5.79,0,1,1-5.79-5.78A5.79,5.79,0,0,1,985.8,372.37Z"/><path class="cls-2" d="M1222.19,488.69a5.79,5.79,0,1,1-5.78-5.78A5.78,5.78,0,0,1,1222.19,488.69Z"/><path class="cls-2" d="M997.05,556.24a5.79,5.79,0,1,1-5.78-5.79A5.78,5.78,0,0,1,997.05,556.24Z"/><path class="cls-2" d="M1222.19,488.69a5.79,5.79,0,1,1-5.78-5.78A5.78,5.78,0,0,1,1222.19,488.69Z"/><path class="cls-2" d="M1214.68,372.37a5.79,5.79,0,1,1-5.78-5.78A5.78,5.78,0,0,1,1214.68,372.37Z"/><path class="cls-2" d="M985.8,372.37a5.79,5.79,0,1,1-5.79-5.78A5.79,5.79,0,0,1,985.8,372.37Z"/><path class="cls-2" d="M997.05,556.24a5.79,5.79,0,1,1-5.78-5.79A5.78,5.78,0,0,1,997.05,556.24Z"/><path class="cls-2" d="M1222.19,488.69a5.79,5.79,0,1,1-5.78-5.78A5.78,5.78,0,0,1,1222.19,488.69Z"/><path class="cls-2" d="M1165.9,616.27a5.79,5.79,0,1,1-5.78-5.79A5.78,5.78,0,0,1,1165.9,616.27Z"/><path class="cls-2" d="M1165.9,616.27a5.79,5.79,0,1,1-5.78-5.79A5.78,5.78,0,0,1,1165.9,616.27Z"/><path class="cls-2" d="M1222.19,488.69a5.79,5.79,0,1,1-5.78-5.78A5.78,5.78,0,0,1,1222.19,488.69Z"/><path class="cls-2" d="M1297.24,721.34a5.79,5.79,0,1,1-5.79-5.79A5.78,5.78,0,0,1,1297.24,721.34Z"/><path class="cls-2" d="M1252.21,342.36a5.79,5.79,0,1,1-5.79-5.79A5.78,5.78,0,0,1,1252.21,342.36Z"/><path class="cls-2" d="M1214.68,372.37a5.79,5.79,0,1,1-5.78-5.78A5.78,5.78,0,0,1,1214.68,372.37Z"/><path class="cls-2" d="M1222.19,488.69a5.79,5.79,0,1,1-5.78-5.78A5.78,5.78,0,0,1,1222.19,488.69Z"/><path class="cls-2" d="M1252.21,342.36a5.79,5.79,0,1,1-5.79-5.79A5.78,5.78,0,0,1,1252.21,342.36Z"/><path class="cls-2" d="M1252.21,342.36a5.79,5.79,0,1,1-5.79-5.79A5.78,5.78,0,0,1,1252.21,342.36Z"/><path class="cls-2" d="M1222.19,488.69a5.79,5.79,0,1,1-5.78-5.78A5.78,5.78,0,0,1,1222.19,488.69Z"/><circle class="cls-2" cx="1430.29" cy="402.39" r="5.78"/><path class="cls-2" d="M1252.21,342.36a5.79,5.79,0,1,1-5.79-5.79A5.78,5.78,0,0,1,1252.21,342.36Z"/><path class="cls-2" d="M1297.24,721.34a5.79,5.79,0,1,1-5.79-5.79A5.78,5.78,0,0,1,1297.24,721.34Z"/><path class="cls-2" d="M1222.19,488.69a5.79,5.79,0,1,1-5.78-5.78A5.78,5.78,0,0,1,1222.19,488.69Z"/><path class="cls-2" d="M1518.62,575a5.79,5.79,0,1,1-5.78-5.78A5.78,5.78,0,0,1,1518.62,575Z"/><path class="cls-2" d="M1518.62,575a5.79,5.79,0,1,1-5.78-5.78A5.78,5.78,0,0,1,1518.62,575Z"/><circle class="cls-2" cx="1430.29" cy="402.39" r="5.78"/><path class="cls-2" d="M1222.19,488.69a5.79,5.79,0,1,1-5.78-5.78A5.78,5.78,0,0,1,1222.19,488.69Z"/><path class="cls-2" d="M1518.62,575a5.79,5.79,0,1,1-5.78-5.78A5.78,5.78,0,0,1,1518.62,575Z"/><path class="cls-2" d="M1518.62,575a5.79,5.79,0,1,1-5.78-5.78A5.78,5.78,0,0,1,1518.62,575Z"/><circle class="cls-2" cx="1591.63" cy="484.94" r="5.78"/><circle class="cls-2" cx="1430.29" cy="402.39" r="5.78"/><path class="cls-2" d="M1518.62,575a5.79,5.79,0,1,1-5.78-5.78A5.78,5.78,0,0,1,1518.62,575Z"/><path class="cls-2" d="M1638.7,560a5.79,5.79,0,1,1-5.79-5.78A5.79,5.79,0,0,1,1638.7,560Z"/><circle class="cls-2" cx="1591.63" cy="484.94" r="5.78"/><path class="cls-2" d="M1518.62,575a5.79,5.79,0,1,1-5.78-5.78A5.78,5.78,0,0,1,1518.62,575Z"/><path class="cls-2" d="M805.69,286.07a5.79,5.79,0,1,1-5.79-5.79A5.8,5.8,0,0,1,805.69,286.07Z"/><path class="cls-2" d="M779.42,379.88a5.79,5.79,0,1,1-5.79-5.79A5.78,5.78,0,0,1,779.42,379.88Z"/><path class="cls-2" d="M768.16,308.58a5.79,5.79,0,1,1-5.78-5.78A5.78,5.78,0,0,1,768.16,308.58Z"/><path class="cls-2" d="M1229.7,274.82a5.79,5.79,0,1,1-5.79-5.79A5.79,5.79,0,0,1,1229.7,274.82Z"/><path class="cls-2" d="M1214.68,372.37a5.79,5.79,0,1,1-5.78-5.78A5.78,5.78,0,0,1,1214.68,372.37Z"/><path class="cls-2" d="M1113.38,244.79a5.79,5.79,0,1,1-5.79-5.78A5.79,5.79,0,0,1,1113.38,244.79Z"/><path class="cls-2" d="M1252.21,342.36a5.79,5.79,0,1,1-5.79-5.79A5.78,5.78,0,0,1,1252.21,342.36Z"/><path class="cls-2" d="M1214.68,372.37a5.79,5.79,0,1,1-5.78-5.78A5.78,5.78,0,0,1,1214.68,372.37Z"/><path class="cls-2" d="M1229.7,274.82a5.79,5.79,0,1,1-5.79-5.79A5.79,5.79,0,0,1,1229.7,274.82Z"/><path class="cls-2" d="M618.07,473.68a5.79,5.79,0,1,1-5.78-5.78A5.78,5.78,0,0,1,618.07,473.68Z"/><circle class="cls-2" cx="612.29" cy="421.15" r="5.78"/><path class="cls-2" d="M678.11,413.65a5.79,5.79,0,1,1-5.79-5.79A5.78,5.78,0,0,1,678.11,413.65Z"/><path class="cls-2" d="M678.11,413.65a5.79,5.79,0,1,1-5.79-5.79A5.78,5.78,0,0,1,678.11,413.65Z"/><path class="cls-2" d="M651.84,383.63a5.79,5.79,0,1,1-5.79-5.79A5.79,5.79,0,0,1,651.84,383.63Z"/><circle class="cls-2" cx="612.29" cy="421.15" r="5.78"/><path class="cls-2" d="M678.11,413.65a5.79,5.79,0,1,1-5.79-5.79A5.78,5.78,0,0,1,678.11,413.65Z"/><path class="cls-2" d="M678.11,413.65a5.79,5.79,0,1,1-5.79-5.79A5.78,5.78,0,0,1,678.11,413.65Z"/><path class="cls-2" d="M779.42,379.88a5.79,5.79,0,1,1-5.79-5.79A5.78,5.78,0,0,1,779.42,379.88Z"/><path class="cls-2" d="M651.84,383.63a5.79,5.79,0,1,1-5.79-5.79A5.79,5.79,0,0,1,651.84,383.63Z"/><path class="cls-2" d="M678.11,413.65a5.79,5.79,0,1,1-5.79-5.79A5.78,5.78,0,0,1,678.11,413.65Z"/><path class="cls-2" d="M678.11,413.65a5.79,5.79,0,1,1-5.79-5.79A5.78,5.78,0,0,1,678.11,413.65Z"/><path class="cls-2" d="M779.42,379.88a5.79,5.79,0,1,1-5.79-5.79A5.78,5.78,0,0,1,779.42,379.88Z"/><path class="cls-2" d="M704.37,424.91a5.79,5.79,0,1,1-5.78-5.79A5.78,5.78,0,0,1,704.37,424.91Z"/><path class="cls-2" d="M291.62,282.32a5.79,5.79,0,1,1-5.79-5.79A5.79,5.79,0,0,1,291.62,282.32Z"/><path class="cls-2" d="M381.68,319.84a5.79,5.79,0,1,1-5.79-5.79A5.78,5.78,0,0,1,381.68,319.84Z"/><path class="cls-2" d="M347.91,248.55a5.79,5.79,0,1,1-5.79-5.79A5.78,5.78,0,0,1,347.91,248.55Z"/><path class="cls-2" d="M291.62,282.32a5.79,5.79,0,1,1-5.79-5.79A5.79,5.79,0,0,1,291.62,282.32Z"/><path class="cls-2" d="M381.68,319.84a5.79,5.79,0,1,1-5.79-5.79A5.78,5.78,0,0,1,381.68,319.84Z"/><path class="cls-2" d="M400.44,439.92a5.79,5.79,0,1,1-5.79-5.79A5.78,5.78,0,0,1,400.44,439.92Z"/><path class="cls-2" d="M291.62,282.32a5.79,5.79,0,1,1-5.79-5.79A5.79,5.79,0,0,1,291.62,282.32Z"/><path class="cls-2" d="M381.68,319.84a5.79,5.79,0,1,1-5.79-5.79A5.78,5.78,0,0,1,381.68,319.84Z"/><path class="cls-2" d="M456.72,372.37a5.79,5.79,0,1,1-5.78-5.78A5.79,5.79,0,0,1,456.72,372.37Z"/><path class="cls-2" d="M400.44,439.92a5.79,5.79,0,1,1-5.79-5.79A5.78,5.78,0,0,1,400.44,439.92Z"/><path class="cls-2" d="M1526.13,199.77a5.79,5.79,0,1,1-5.79-5.79A5.79,5.79,0,0,1,1526.13,199.77Z"/><circle class="cls-2" cx="1430.29" cy="402.39" r="5.78"/><path class="cls-2" d="M1608.68,282.32a5.79,5.79,0,1,1-5.79-5.79A5.79,5.79,0,0,1,1608.68,282.32Z"/><circle class="cls-2" cx="1651.67" cy="413.65" r="5.78"/><circle class="cls-2" cx="1430.29" cy="402.39" r="5.78"/><path class="cls-2" d="M1608.68,282.32a5.79,5.79,0,1,1-5.79-5.79A5.79,5.79,0,0,1,1608.68,282.32Z"/><path class="cls-2" d="M576.8,537.47a5.79,5.79,0,1,1-5.79-5.78A5.79,5.79,0,0,1,576.8,537.47Z"/><path class="cls-2" d="M554.28,417.4a5.79,5.79,0,1,1-5.79-5.78A5.78,5.78,0,0,1,554.28,417.4Z"/><path class="cls-2" d="M490.49,507.46a5.79,5.79,0,1,1-5.78-5.79A5.78,5.78,0,0,1,490.49,507.46Z"/><path class="cls-2" d="M618.07,473.68a5.79,5.79,0,1,1-5.78-5.78A5.78,5.78,0,0,1,618.07,473.68Z"/><path class="cls-2" d="M554.28,417.4a5.79,5.79,0,1,1-5.79-5.78A5.78,5.78,0,0,1,554.28,417.4Z"/><path class="cls-2" d="M576.8,537.47a5.79,5.79,0,1,1-5.79-5.78A5.79,5.79,0,0,1,576.8,537.47Z"/><circle class="cls-2" cx="473.45" cy="259.81" r="5.78"/><path class="cls-2" d="M554.28,417.4a5.79,5.79,0,1,1-5.79-5.78A5.78,5.78,0,0,1,554.28,417.4Z"/><path class="cls-2" d="M456.72,372.37a5.79,5.79,0,1,1-5.78-5.78A5.79,5.79,0,0,1,456.72,372.37Z"/><circle class="cls-2" cx="473.45" cy="259.81" r="5.78"/><path class="cls-2" d="M629.33,297.33a5.79,5.79,0,1,1-5.79-5.79A5.78,5.78,0,0,1,629.33,297.33Z"/><path class="cls-2" d="M554.28,417.4a5.79,5.79,0,1,1-5.79-5.78A5.78,5.78,0,0,1,554.28,417.4Z"/><circle class="cls-2" cx="473.45" cy="259.81" r="5.78"/><circle class="cls-2" cx="473.45" cy="259.81" r="5.78"/><path class="cls-2" d="M381.68,319.84a5.79,5.79,0,1,1-5.79-5.79A5.78,5.78,0,0,1,381.68,319.84Z"/><path class="cls-2" d="M347.91,248.55a5.79,5.79,0,1,1-5.79-5.79A5.78,5.78,0,0,1,347.91,248.55Z"/><circle class="cls-2" cx="473.45" cy="259.81" r="5.78"/><path class="cls-2" d="M456.72,372.37a5.79,5.79,0,1,1-5.78-5.78A5.79,5.79,0,0,1,456.72,372.37Z"/><path class="cls-2" d="M381.68,319.84a5.79,5.79,0,1,1-5.79-5.79A5.78,5.78,0,0,1,381.68,319.84Z"/><circle class="cls-2" cx="473.45" cy="259.81" r="5.78"/><path class="cls-2" d="M805.69,286.07a5.79,5.79,0,1,1-5.79-5.79A5.8,5.8,0,0,1,805.69,286.07Z"/><path class="cls-2" d="M779.42,379.88a5.79,5.79,0,1,1-5.79-5.79A5.78,5.78,0,0,1,779.42,379.88Z"/><path class="cls-2" d="M888.24,293.57a5.79,5.79,0,1,1-5.79-5.79A5.79,5.79,0,0,1,888.24,293.57Z"/><path class="cls-2" d="M888.24,293.57a5.79,5.79,0,1,1-5.79-5.79A5.79,5.79,0,0,1,888.24,293.57Z"/><path class="cls-2" d="M918.25,372.37a5.79,5.79,0,1,1-5.78-5.78A5.78,5.78,0,0,1,918.25,372.37Z"/><path class="cls-2" d="M779.42,379.88a5.79,5.79,0,1,1-5.79-5.79A5.78,5.78,0,0,1,779.42,379.88Z"/><path class="cls-2" d="M888.24,293.57a5.79,5.79,0,1,1-5.79-5.79A5.79,5.79,0,0,1,888.24,293.57Z"/><path class="cls-2" d="M888.24,293.57a5.79,5.79,0,1,1-5.79-5.79A5.79,5.79,0,0,1,888.24,293.57Z"/><path class="cls-2" d="M985.8,372.37a5.79,5.79,0,1,1-5.79-5.78A5.79,5.79,0,0,1,985.8,372.37Z"/><path class="cls-2" d="M918.25,372.37a5.79,5.79,0,1,1-5.78-5.78A5.78,5.78,0,0,1,918.25,372.37Z"/><path class="cls-2" d="M888.24,293.57a5.79,5.79,0,1,1-5.79-5.79A5.79,5.79,0,0,1,888.24,293.57Z"/><path class="cls-2" d="M1113.38,244.79a5.79,5.79,0,1,1-5.79-5.78A5.79,5.79,0,0,1,1113.38,244.79Z"/><path class="cls-2" d="M985.8,372.37a5.79,5.79,0,1,1-5.79-5.78A5.79,5.79,0,0,1,985.8,372.37Z"/><path class="cls-2" d="M888.24,293.57a5.79,5.79,0,1,1-5.79-5.79A5.79,5.79,0,0,1,888.24,293.57Z"/></g></g></g></svg>
