<svg xmlns="http://www.w3.org/2000/svg" viewBox="0 0 149.42 40.74"><defs><style>.cls-1{fill:#008bca;}</style></defs><title>veris</title><g id="Layer_2" data-name="Layer 2"><g id="Layer_1-2" data-name="Layer 1"><path class="cls-1" d="M38.55,0c-3.7,0-7.41,0-11.11,0H16.28c-.81,0-1.08.44-.7,1.15,1.12,2.1,2.26,4.2,3.37,6.3a1,1,0,0,0,1,.6h6.79c.64,0,.92.39.67,1Q24.72,15.5,22,21.94c-.12.28-.27.52-.62.53s-.52-.2-.67-.48c-1.24-2.28-2.49-4.55-3.74-6.83Q13,7.85,9,.55A.91.91,0,0,0,8,0C7,0,5.9,0,4.83,0H.75C.1,0-.18.48.12,1.07c.09.18.19.35.29.53L21.56,40.18c.17.31.34.57.75.56s.52-.3.65-.61q2.2-5.27,4.43-10.52,6-14.22,12-28.44C39.66.46,39.3,0,38.55,0Z"/><path class="cls-1" d="M101.22,24.86a.11.11,0,0,1,.1-.1c1.18,0,2.29,0,3.39,0a1,1,0,0,1,1,.5c1.46,2.24,3,4.46,4.44,6.7a1,1,0,0,0,1,.5c1.26,0,2.53,0,3.79,0h1.59a.09.09,0,0,0,.08-.15L111,24.15a.09.09,0,0,1,0-.13,21.81,21.81,0,0,0,2.91-2.17c1.89-1.93,2.23-4.37,1.86-6.94A6.73,6.73,0,0,0,112,9.57a10.11,10.11,0,0,0-4.57-1.05c-3.75,0-7.49,0-11.24,0L96,8.64V32.31a.11.11,0,0,0,.1.1h5a.1.1,0,0,0,.1-.1Zm0-11.49s.08-.08.11-.08c2,0,3.9-.06,5.84.08,2.62.18,4.12,2.4,3.06,4.8a3.21,3.21,0,0,1-3,1.88c-2,.1-3.94,0-6,0a.09.09,0,0,1-.09-.09Z"/><path class="cls-1" d="M91.16,27.75H78.49a.1.1,0,0,1-.1-.1V22.79a.09.09,0,0,1,.1-.09h11a.1.1,0,0,0,.1-.1V18.14a.1.1,0,0,0-.1-.1h-11a.09.09,0,0,1-.1-.1V13.28a.09.09,0,0,1,.1-.09H91a.11.11,0,0,0,.1-.1V8.64a.1.1,0,0,0-.1-.1H73.28a.09.09,0,0,0-.1.1V32.32a.09.09,0,0,0,.1.1H91.16a.1.1,0,0,0,.1-.1V27.85A.1.1,0,0,0,91.16,27.75Z"/><path class="cls-1" d="M142.32,27.92a7.25,7.25,0,0,1-4.92-.41,42.76,42.76,0,0,1-3.89-2.11.11.11,0,0,0-.13,0L130.43,29a.11.11,0,0,0,0,.14,30.36,30.36,0,0,0,3,1.91,14.26,14.26,0,0,0,11.16,1.16,6.9,6.9,0,0,0,1.08-12.73,33.61,33.61,0,0,0-4.2-1.46c-1.13-.39-2.31-.69-3.4-1.17A2.22,2.22,0,0,1,136.7,15c-.1-1.38,1.09-1.91,2.17-2.09a7.46,7.46,0,0,1,4.52.81c.86.4,1.68.9,2.55,1.38a.11.11,0,0,0,.13,0q1.32-1.91,2.65-3.86l-.39-.32a13.76,13.76,0,0,0-10.22-2.6c-3.75.46-6.92,3.11-6.71,7.58A5.6,5.6,0,0,0,134.47,21a37.6,37.6,0,0,0,4.19,1.58c1.48.52,3,.9,4.45,1.53a1.84,1.84,0,0,1,.61,3A3.08,3.08,0,0,1,142.32,27.92Z"/><path class="cls-1" d="M49.58,18.7c1.79,4.46,3.57,8.92,5.38,13.37.08.2.3.46.46.47,1.44,0,2.88,0,4.34,0a.1.1,0,0,0,.09-.06C63,24.57,66.21,16.65,69.43,8.65a.11.11,0,0,0-.1-.14c-1.72,0-3.37,0-5,0-.44,0-.6.16-.74.54q-2.31,6.27-4.64,12.52c-.41,1.12-.83,2.24-1.29,3.45a.1.1,0,0,1-.18,0c-2.07-5.56-4.08-11-6.1-16.42a.09.09,0,0,0-.09-.06H45.52c.08.21.14.39.21.57Q47.65,13.91,49.58,18.7Z"/><rect class="cls-1" x="120.91" y="8.55" width="5.15" height="23.87" rx="0.1" ry="0.1"/></g></g></svg>