<svg id="Layer_1" data-name="Layer 1" xmlns="http://www.w3.org/2000/svg" viewBox="0 0 267.08 267.08"><defs><style>.cls-1{fill:#fff;}</style></defs><title>ico_whitepaper</title><path class="cls-1" d="M202.62,231.79H64.46a2.16,2.16,0,0,1-2.15-2.16V37.45a2.15,2.15,0,0,1,2.15-2.15h93a2.16,2.16,0,0,1,2.16,2.15v43h43a2.16,2.16,0,0,1,2.15,2.16v147A2.16,2.16,0,0,1,202.62,231.79Zm-136-4.31H200.47V84.79h-43a2.15,2.15,0,0,1-2.15-2.15v-43H66.62Z"/><path class="cls-1" d="M202.62,84.79H157.43a2.15,2.15,0,0,1-2.15-2.15V37.45a2.16,2.16,0,0,1,1.33-2,2.14,2.14,0,0,1,2.34.47l45.19,45.18a2.15,2.15,0,0,1-1.52,3.68Zm-43-4.31h37.84L159.59,42.64Z"/><path class="cls-1" d="M179.44,131.25H85.25a2.15,2.15,0,1,1,0-4.3h94.19a2.15,2.15,0,1,1,0,4.3Z"/><path class="cls-1" d="M179.44,156.36H85.25a2.16,2.16,0,1,1,0-4.31h94.19a2.16,2.16,0,0,1,0,4.31Z"/><path class="cls-1" d="M161.87,181.46H85.25a2.15,2.15,0,1,1,0-4.3h76.62a2.15,2.15,0,0,1,0,4.3Z"/></svg>