<svg id="Layer_1" data-name="Layer 1" xmlns="http://www.w3.org/2000/svg" viewBox="0 0 200 200"><defs><style>.cls-1{fill:none;stroke:#008bca;stroke-miterlimit:10;stroke-width:3px;}</style></defs><title>ico_disintermediation</title><polygon class="cls-1" points="89.49 53.07 78.77 71.39 89.28 89.83 110.51 89.96 121.23 71.64 110.72 53.19 89.49 53.07"/><polyline class="cls-1" points="94.11 71.06 98.42 75.26 105.81 67.69"/><polygon class="cls-1" points="55.52 110.04 44.8 128.36 55.3 146.81 76.53 146.93 87.25 128.61 76.75 110.17 55.52 110.04"/><polyline class="cls-1" points="60.14 128.03 64.45 132.23 71.83 124.66"/><polygon class="cls-1" points="123.47 110.04 112.75 128.36 123.25 146.81 144.48 146.93 155.2 128.61 144.69 110.17 123.47 110.04"/><polyline class="cls-1" points="128.18 128.41 132.48 132.61 139.87 125.04"/><line class="cls-1" x1="110.51" y1="89.96" x2="123.47" y2="110.04"/><line class="cls-1" x1="89.28" y1="89.83" x2="76.75" y2="110.17"/></svg>