<svg id="Layer_1" data-name="Layer 1" xmlns="http://www.w3.org/2000/svg" viewBox="0 0 200 200"><defs><style>.cls-1{fill:none;}.cls-1,.cls-2{stroke:#008bca;stroke-miterlimit:10;stroke-width:3px;}.cls-2{fill:#fff;}</style></defs><title>ico_transparency</title><line class="cls-1" x1="94.23" y1="65.6" x2="107.79" y2="65.6"/><line class="cls-1" x1="136.18" y1="65.6" x2="149.73" y2="65.6"/><line class="cls-1" x1="111.57" y1="65.6" x2="131.29" y2="65.6"/><line class="cls-1" x1="89.23" y1="80.81" x2="99.46" y2="80.81"/><line class="cls-1" x1="105.4" y1="80.81" x2="137.96" y2="80.81"/><line class="cls-1" x1="86.73" y1="96.02" x2="131.29" y2="96.02"/><line class="cls-1" x1="86.73" y1="50.38" x2="131.29" y2="50.38"/><rect class="cls-2" x="76.12" y="97.84" width="9.26" height="9.26" transform="translate(52.94 -25) rotate(25.93)"/><rect class="cls-2" x="59.52" y="104.04" width="15.96" height="51.33" rx="3.45" ry="3.45" transform="translate(63.52 -16.46) rotate(25.93)"/><path class="cls-2" d="M107.37,47.72a28.12,28.12,0,1,0,13,37.59A28.13,28.13,0,0,0,107.37,47.72ZM86.86,89.91A18.79,18.79,0,1,1,112,81.23,18.81,18.81,0,0,1,86.86,89.91Z"/></svg>