<svg id="Layer_1" data-name="Layer 1" xmlns="http://www.w3.org/2000/svg" viewBox="0 0 200 200"><defs><style>.cls-1,.cls-2{fill:none;stroke:#008bca;stroke-miterlimit:10;stroke-width:3px;}.cls-2{stroke-linecap:round;}</style></defs><title>ico_encryption</title><path class="cls-1" d="M131.12,143.88H58.28a1.55,1.55,0,0,1-1.56-1.55V46.54A1.56,1.56,0,0,1,58.28,45h74.4v97.35A1.55,1.55,0,0,1,131.12,143.88Z"/><path class="cls-1" d="M133.05,52.36h9.06a1.18,1.18,0,0,1,1.17,1.18v100.3a1.18,1.18,0,0,1-1.17,1.18H65.93a1.17,1.17,0,0,1-1.17-1.18V143.4"/><circle class="cls-2" cx="93.29" cy="111.11" r="8.65"/><line class="cls-2" x1="93.29" y1="102.47" x2="93.29" y2="69.11"/><line class="cls-2" x1="93.29" y1="86.35" x2="101.61" y2="86.35"/><line class="cls-2" x1="93.29" y1="76.58" x2="104.76" y2="76.58"/></svg>