<?xml version="1.0" encoding="utf-8"?>
<!-- Generator: Adobe Illustrator 22.0.1, SVG Export Plug-In . SVG Version: 6.00 Build 0)  -->
<svg version="1.1" id="Layer_1" xmlns="http://www.w3.org/2000/svg" xmlns:xlink="http://www.w3.org/1999/xlink" x="0px" y="0px"
	 viewBox="0 0 400 600" style="enable-background:new 0 0 400 600;" xml:space="preserve">
<style type="text/css">
	.st0{fill:#CA0000;}
	.st1{fill:#CD00CA;}
	.st2{fill:#180001;}
	.st3{fill:#00BD5C;}
	.st4{fill:#278CD6;}
	.st5{fill:#0F3552;}
	.st6{font-family:'OpenSans';}
	.st7{font-size:14px;}
</style>
<g>
	<path class="st0" d="M192.4,105C192.5,105,192.5,105,192.4,105l0.1-55.3c-5.9,0-12.5,0.5-18.3,1.3l7.7,54.6
		C185.3,105.2,188.9,105,192.4,105z"/>
	<path class="st1" d="M177.5,89.2l-5.3-37.9c-12,1.7-21.2,4.2-32.4,8.7l20.6,51c6.2-2.4,12.7-4.1,19.5-5.1L177.5,89.2z"/>
	<polygon class="st2" points="172.2,51.3 172.2,51.3 177.5,89.2 	"/>
	<path class="st3" d="M158.5,111.7l-20.6-51c-23.1,9.5-41.3,23-57.2,42.3l42.8,34.7C132.8,126.4,144.8,117.4,158.5,111.7z"/>
	<path class="st4" d="M103.4,194c0-20.6,7-39.6,18.9-54.7l-42.8-34.7c-1.6,2-2.3,3-4,5.3C28.4,174.7,42.6,265.7,107,313.2l33.9-46.7
		C118.2,250.3,103.4,223.8,103.4,194z"/>
	<path class="st5" d="M281.4,194c0,49.1-39.9,89-89,89c-18.5,0-35.7-5.7-50-15.4l-33.9,46.7c25.9,18.6,53,27.3,85,27.3
		c80.5,0,145.9-65.5,145.9-145.9c0-80.1-64.9-145.4-144.9-145.9V105C242.6,106.1,281.4,145.6,281.4,194z"/>
</g>
<text transform="matrix(1 0 0 1 39.66 415.6396)" class="st6 st7">Public Contributors</text>
<circle class="st5" cx="19.7" cy="419" r="9"/>
<text transform="matrix(1 0 0 1 39.66 435.667)" class="st6 st7">30m VRS / 60% </text>
<text transform="matrix(1 0 0 1 39.66 476.6396)" class="st6 st7">Veris Foundation</text>
<circle class="st4" cx="19.7" cy="480" r="9"/>
<text transform="matrix(1 0 0 1 39.66 496.667)" class="st6 st7">13m VRS / 26% </text>
<text transform="matrix(1 0 0 1 39.66 538.6396)" class="st6 st7">Veris Core Team</text>
<circle class="st3" cx="19.7" cy="542" r="9"/>
<text transform="matrix(1 0 0 1 39.66 558.667)" class="st6 st7">4m VRS / 8% </text>
<text transform="matrix(1 0 0 1 243.66 415.6396)" class="st6 st7">Partnership &amp; Advisory</text>
<circle class="st1" cx="223.7" cy="419" r="9"/>
<text transform="matrix(1 0 0 1 243.66 435.667)" class="st6 st7">2m VRS / 4% </text>
<text transform="matrix(1 0 0 1 243.66 476.6396)" class="st6 st7">Bounties</text>
<circle class="st0" cx="223.7" cy="480" r="9"/>
<text transform="matrix(1 0 0 1 243.66 496.667)" class="st6 st7">1m VRS / 2% </text>
</svg>
