<svg id="Layer_1" data-name="Layer 1" xmlns="http://www.w3.org/2000/svg" viewBox="0 0 260 260"><defs><style>.cls-1{fill:#0089ca;}.cls-2{fill:#12394f;}</style></defs><title>ico_smartcontract_transfer</title><path class="cls-1" d="M129.54,116.68a27.86,27.86,0,1,0,27.86,27.86A27.89,27.89,0,0,0,129.54,116.68Zm0,52.72a24.86,24.86,0,1,1,24.86-24.86A24.89,24.89,0,0,1,129.54,169.4Z"/><path class="cls-1" d="M130,143.14h0c-3-1-6.08-2-6.08-5,0-2.52,2-4.14,5.22-4.14a12.82,12.82,0,0,1,6.61,2.18l1.38-1.71a16.18,16.18,0,0,0-6.15-2.49l-.41-.07v-5.13h-1.67v5l-.47,0c-4.37.21-7.09,2.72-7.09,6.54,0,4.15,3.16,5.48,8,7,3.69,1.15,6.31,2.22,6.31,5.43,0,2.67-2.26,4.47-5.61,4.47a11.85,11.85,0,0,1-7.64-3.08L120.89,154a13.34,13.34,0,0,0,7.52,3.45l.44.05v4.81h1.67v-4.79l.46,0c4.46-.36,7.23-3,7.23-6.81C138.21,146,135.07,144.77,130,143.14Z"/><path class="cls-2" d="M129.94,63.3a12.59,12.59,0,1,0-12.59-12.59A12.61,12.61,0,0,0,129.94,63.3Zm0-22.18a9.59,9.59,0,1,1-9.59,9.59A9.6,9.6,0,0,1,129.94,41.12Z"/><path class="cls-2" d="M152.71,70.39h0l-1.13-1.12a1.92,1.92,0,0,0-.38-.29,15.61,15.61,0,0,0-9.83-3.51H118.78a15.36,15.36,0,0,0-14.64,15.67v20.12h52.64V80.85A15.47,15.47,0,0,0,153,70.73Zm-19.89-1.93-2.22,2.41H129l-2.06-2.41Zm-.89,22.85-2.17,1.75-2.17-1.75,2.17-18.87Zm21.85,7h-8.13V86.61h-3V98.27H118.28V86.61h-3V98.27h-8.14V81.15a12.35,12.35,0,0,1,11.8-12.67c.47,0,.94,0,1.41,0h2.59l3.75,4.4-2.27,19.76,5.34,4.31,5.34-4.31-2.27-19.73,4.07-4.42h4.47a12.57,12.57,0,0,1,8.78,3.61l.08.07a12.49,12.49,0,0,1,3.55,8.71Z"/><path class="cls-2" d="M72,162.48a12.59,12.59,0,1,0-12.59-12.59A12.61,12.61,0,0,0,72,162.48Zm0-22.18a9.59,9.59,0,1,1-9.59,9.59A9.6,9.6,0,0,1,72,140.3Z"/><path class="cls-2" d="M94.74,169.51h0l-1.08-1.07a2.38,2.38,0,0,0-.36-.28,15.61,15.61,0,0,0-9.85-3.52H60.86a15.36,15.36,0,0,0-14.64,15.66v20.13H98.86V180A15.63,15.63,0,0,0,95,169.86ZM74.9,167.64l-2.22,2.41H71l-2-2.41ZM74,190.49l-2.17,1.75-2.17-1.75,2.17-18.88Zm21.85,7H87.73V185.79h-3v11.66H60.36V185.79h-3v11.66H49.22V180.32A12.36,12.36,0,0,1,61,167.65c.47,0,.94,0,1.42,0H65l3.75,4.4L66.5,191.79l5.34,4.31,5.34-4.31-2.27-19.73L79,167.64h4.47a12.54,12.54,0,0,1,8.75,3.57l.1.1A12.5,12.5,0,0,1,95.86,180Z"/><path class="cls-2" d="M186.94,162.48a12.59,12.59,0,1,0-12.59-12.59A12.6,12.6,0,0,0,186.94,162.48Zm0-22.18a9.59,9.59,0,1,1-9.59,9.59A9.6,9.6,0,0,1,186.94,140.3Z"/><path class="cls-2" d="M208.58,168.44a2.75,2.75,0,0,0-.38-.29,15.63,15.63,0,0,0-9.84-3.51H175.78a15.36,15.36,0,0,0-14.64,15.66v20.13h52.64V180A15.44,15.44,0,0,0,210,169.92Zm-18.77-.8-2.21,2.41H186l-2.06-2.41Zm-.89,22.85-2.17,1.75-2.16-1.75,2.16-18.87Zm21.86,7h-8.14V185.79h-3v11.66H175.28V185.79h-3v11.66h-8.14V180.32a12.54,12.54,0,0,1,2.6-7.91,12.67,12.67,0,0,1,9.19-4.76c.47,0,.95,0,1.42,0h2.59l3.75,4.4-2.27,19.76,5.33,4.31,5.34-4.31-2.26-19.73,4.06-4.42h4.47a12.63,12.63,0,0,1,8.79,3.6l.07.08a12.5,12.5,0,0,1,3.56,8.71Z"/><path class="cls-2" d="M87,94l-1.61,9.08,3,.52L90.9,89.27,76.83,86.78l-.52,3,9.25,1.63-.8.69a73.4,73.4,0,0,0-21.92,33.29l2.87.87A69.39,69.39,0,0,1,85.94,95Z"/><path class="cls-2" d="M189.78,122.07l.35,1.31-8.24-5.66-1.7,2.47,12.06,8.29,8-11.57-2.47-1.71-4.89,7-.28-1c-.5-1.89-1.06-3.71-1.67-5.42a72.65,72.65,0,0,0-19.16-29l-2,2.22a69.57,69.57,0,0,1,18.35,27.82C188.74,118.45,189.29,120.23,189.78,122.07Z"/><path class="cls-2" d="M116.74,211.47c-1.74-.33-3.56-.76-5.39-1.26l-1.3-.36,9-4.26-1.28-2.72-13.24,6.24,5.93,12.77,2.72-1.26-3.61-7.77,1,.28c1.88.51,3.74,1,5.52,1.29a72.61,72.61,0,0,0,34.74-1.9l-.9-2.86A69.73,69.73,0,0,1,116.74,211.47Z"/></svg>