<svg xmlns="http://www.w3.org/2000/svg" viewBox="7733 5646 173.8 143.3">
  <defs>
    <style>
      .cls-1 {
        fill: #008acb;
      }

      .cls-2 {
        fill: #12394f;
      }
    </style>
  </defs>
  <g id="Group_3110" data-name="Group 3110" transform="translate(7733 5646)">
    <path id="Path_8607" data-name="Path 8607" class="cls-1" d="M59.2,52.7A15.636,15.636,0,0,0,68,56.8h.4v5.6h2.1V56.9H71c5.2-.4,8.5-3.5,8.5-8,0-5.4-3.7-6.9-9.6-8.8-3.6-1.2-7-2.3-7-5.7,0-2.9,2.3-4.7,6-4.7a15.245,15.245,0,0,1,7.7,2.5l1.7-2.1a19.3,19.3,0,0,0-7.2-3l-.4-.1V21H68.6v6h-.5c-5.1.2-8.3,3.2-8.3,7.7,0,5.2,4.5,6.7,9.3,8.2,4.2,1.3,7.3,2.5,7.3,6.2,0,3-2.6,5.1-6.4,5.1a13.225,13.225,0,0,1-8.8-3.6Z"/>
    <rect id="Rectangle_330" data-name="Rectangle 330" class="cls-1" width="3" height="10.5" transform="translate(67.7)"/>
    <rect id="Rectangle_331" data-name="Rectangle 331" class="cls-1" width="10.5" height="3" transform="translate(34.7 40.3)"/>
    <rect id="Rectangle_332" data-name="Rectangle 332" class="cls-1" width="10.5" height="3" transform="translate(92.2 40.3)"/>
    <rect id="Rectangle_333" data-name="Rectangle 333" class="cls-1" width="10.5" height="3" transform="matrix(0.767, -0.642, 0.642, 0.767, 87.021, 19.9)"/>
    <rect id="Rectangle_334" data-name="Rectangle 334" class="cls-1" width="3" height="10.5" transform="translate(41.333 15.554) rotate(-50.054)"/>
    <path id="Path_8608" data-name="Path 8608" class="cls-1" d="M173.8,25H152.4V78.5h21.4Zm-3,50.5H155.4V28h15.4Z"/>
    <path id="Path_8609" data-name="Path 8609" class="cls-1" d="M147,47.2H125.6V78.5H147Zm-3,28.3H128.6V50.2H144Z"/>
    <path id="Path_8610" data-name="Path 8610" class="cls-1" d="M98.8,78.5h21.4V61.4H98.8Zm3-14.1h15.4V75.6H101.8Z"/>
    <g id="Group_3109" data-name="Group 3109">
      <path id="Path_8611" data-name="Path 8611" class="cls-2" d="M131,138.9h.6a11.449,11.449,0,0,0,2.3-6.9,10.932,10.932,0,0,0-2.4-6.9H131l-.3-.3a11.227,11.227,0,0,0-8.2-3.7H122v-.5H98.9l.7-.8a7.006,7.006,0,0,0,.8-1,10.775,10.775,0,0,0,1.9-8.5,11.424,11.424,0,0,0-4.7-7.4L61.5,77a50.205,50.205,0,0,0-29-9.2H0v48.6H16.3c7.6,0,10,1.8,14.7,5.4l.1.1c1.3,1,2.7,2,4.4,3.2l10.1,7c6,3.4,21.1,11.2,30.8,11.2h45.7v-.5h.5a10.323,10.323,0,0,0,3-.4,10.891,10.891,0,0,0,4.2-2.3Zm-8.4,1.5H76.4c-9.3,0-24.8-8.3-29.3-10.8l-9.9-6.9c-1.7-1.2-3.1-2.3-4.3-3.2-5-3.8-8-6.1-16.6-6.1H3V70.7H32.5a46.9,46.9,0,0,1,27.3,8.7L96,105.1a8.073,8.073,0,0,1,3.4,5.5,8.278,8.278,0,0,1-1.4,6.3,8.567,8.567,0,0,1-5.5,3.5,8.278,8.278,0,0,1-6.3-1.4L62.8,102.4l-1.7,2.5,23.4,16.6a11.174,11.174,0,0,0,6.8,2.1h31.3a8.4,8.4,0,0,1,0,16.8Z"/>
      <path id="Path_8612" data-name="Path 8612" class="cls-2" d="M143,139.5a11.409,11.409,0,0,0,0-15.2,6.9,6.9,0,0,0-1.8-1.6,11.817,11.817,0,0,0-4.3-1.9,9.863,9.863,0,0,0-2.4-.3h-7a12.845,12.845,0,0,1,4.3,3h2.7a8.386,8.386,0,0,1,8.4,8.4,8.5,8.5,0,0,1-7.9,8.4h-3.3a12.456,12.456,0,0,1-4.2,3H135A11.274,11.274,0,0,0,143,139.5Z"/>
      <path id="Path_8613" data-name="Path 8613" class="cls-2" d="M144.1,120.5h-4.7l.6.3.6.3a2.092,2.092,0,0,1,.6.4,1,1,0,0,1,.5.4c.2.1.3.3.5.4s.3.3.5.4.3.3.5.4l.4.4h.5a8.4,8.4,0,1,1,0,16.8h-.5l-.3.3c-.2.2-.3.4-.5.5-.1.1-.3.2-.4.4a2.092,2.092,0,0,1-.6.4c-.2.1-.3.2-.5.3s-.4.3-.6.4-.3.2-.5.3l-.6.3c-.1,0-.1.1-.2.1h4.7a11.4,11.4,0,0,0,0-22.8Z"/>
      <rect id="Rectangle_335" data-name="Rectangle 335" class="cls-2" width="74.9" height="3" transform="translate(98.7 85.1)"/>
    </g>
  </g>
</svg>
