<svg id="Layer_1" data-name="Layer 1" xmlns="http://www.w3.org/2000/svg" viewBox="0 0 260 260"><defs><style>.cls-1{fill:#12394f;}.cls-2{fill:#0089ca;}</style></defs><title>ico_smartcontract_secure</title><path class="cls-1" d="M157.35,189.63v4.18H45V48.92H157.35v96.25c.57-.4,1.14-.77,1.71-1.1.42-.25.85-.5,1.29-.72V45.92H42V196.81H160.35v-5.37c-.43-.22-.85-.45-1.26-.7Q158.22,190.23,157.35,189.63Z"/><rect class="cls-1" x="62.36" y="109.17" width="79.17" height="3"/><rect class="cls-1" x="62.36" y="88.64" width="79.17" height="3"/><rect class="cls-1" x="62.36" y="68.11" width="79.17" height="3"/><rect class="cls-1" x="62.36" y="129.71" width="79.17" height="3"/><rect class="cls-1" x="62.1" y="150.24" width="39.34" height="3"/><rect class="cls-1" x="62.1" y="170.78" width="20.25" height="3"/><path class="cls-2" d="M179.22,163a4.38,4.38,0,1,0,4.38,4.38A4.38,4.38,0,0,0,179.22,163Z"/><path class="cls-2" d="M172.83,144.28a23.19,23.19,0,0,0-20.47,12.42l-.14.26H118.87l-14.27,8.62V173l13.92,8.62,7-6.44h3.38l6.78,6.66,4.61-4.46,2.45,2.22h10.55l.15.24a22.91,22.91,0,0,0,3.8,4.51,22.11,22.11,0,0,0,3.91,2.9,22.9,22.9,0,0,0,11.73,3.24,23.12,23.12,0,0,0,0-46.24Zm0,43.24a20.16,20.16,0,0,1-12.29-4.22l-.31-.26-.16-.13a19.64,19.64,0,0,1-3.63-3.9,16.76,16.76,0,0,1-1.05-1.62l-.43-.76H143.84l-3.66-3.33-4.53,4.37-5.58-5.46H124.3l-6.14,5.68-10.56-6.54v-3.43h44.79v-3H111.48l8.22-5h34.43l.4-.88a20.49,20.49,0,0,1,5.95-7.54,20.11,20.11,0,1,1,12.35,36Z"/><rect class="cls-2" x="172.87" y="121.87" width="3" height="11.03"/><rect class="cls-2" x="199.17" y="137.32" width="11.6" height="3" transform="translate(-38.12 185.59) rotate(-45)"/><rect class="cls-2" x="172.91" y="203.04" width="3" height="11.03"/><rect class="cls-2" x="203.51" y="191.32" width="3" height="11.6" transform="translate(-79.34 202.7) rotate(-45)"/><rect class="cls-2" x="207" y="166.76" width="11.03" height="3"/></svg>