<svg xmlns="http://www.w3.org/2000/svg" viewBox="-5859 47 150.945 41.088">
  <defs>
    <style>
      .cls-1 {
        fill: #278cd6;
      }
    </style>
  </defs>
  <g id="Logo" transform="translate(-6039 2)">
    <g id="Group_3" data-name="Group 3" transform="translate(180 45)">
      <g id="Group_2" data-name="Group 2">
        <path id="Path_1" data-name="Path 1" class="cls-1" d="M38.946,0H16.414C15.6,0,15.292.408,15.7,1.122c1.122,2.141,2.243,4.282,3.365,6.321a1.19,1.19,0,0,0,1.122.714h6.831a.7.7,0,0,1,.714,1.02c-1.835,4.384-3.67,8.666-5.506,13.05a.646.646,0,0,1-.612.51c-.306,0-.51-.2-.714-.51-1.223-2.345-2.549-4.588-3.772-6.933C14.476,10.4,11.724,5.4,9.073.51A1.071,1.071,0,0,0,8.155,0H.814C.1,0-.1.51.2,1.02c.1.2.2.306.306.51,7.137,12.948,14.274,26,21.411,38.947.2.306.306.612.714.612s.51-.306.714-.612c1.529-3.568,2.957-7.137,4.486-10.6,3.874-9.482,7.851-19.066,11.929-28.65C40.067.51,39.762,0,38.946,0Z" transform="translate(-0.065 0)"/>
        <g id="Group_1" data-name="Group 1" transform="translate(45.916 8.157)">
          <path id="Path_2" data-name="Path 2" class="cls-1" d="M100.4,24.919h0c1.325-.1,2.447-.1,3.568-.1a.892.892,0,0,1,.918.51c1.529,2.243,2.957,4.486,4.486,6.729a.892.892,0,0,0,.918.51H115.8c.1,0,.1-.1.1-.2-1.937-2.855-3.772-5.608-5.608-8.258V24a16.122,16.122,0,0,0,2.957-2.243c1.937-1.937,2.243-4.384,1.835-7.035a6.72,6.72,0,0,0-3.874-5.4,10.377,10.377,0,0,0-4.588-1.02H95.3l-.1.1V32.464c0,.1,0,.1.1.1h5c.1,0,.1,0,.1-.1Zm.1-11.521a.1.1,0,0,0,.1-.1,57.225,57.225,0,0,1,5.913.1c2.651.2,4.18,2.447,3.059,4.894a3.266,3.266,0,0,1-2.957,1.937c-1.937.1-3.976,0-6.015,0-.1,0-.1,0-.1-.1Z" transform="translate(-44.12 -7.995)"/>
          <path id="Path_3" data-name="Path 3" class="cls-1" d="M90.75,27.872H77.9c-.1,0-.1,0-.1-.1V22.876c0-.1,0-.1.1-.1H89.017c.1,0,.1,0,.1-.1V18.186c0-.1,0-.1-.1-.1H77.9c-.1,0-.1,0-.1-.1v-4.69c0-.1,0-.1.1-.1H90.546c.1,0,.1,0,.1-.1V8.6c0-.1,0-.1-.1-.1H72.6c-.1,0-.1,0-.1.1V32.46c0,.1,0,.1.1.1H90.648c.1,0,.1,0,.1-.1V27.872Z" transform="translate(-44.564 -7.991)"/>
          <path id="Path_4" data-name="Path 4" class="cls-1" d="M141.331,28.085a7.052,7.052,0,0,1-5-.408c-1.325-.612-2.549-1.427-3.976-2.141h-.1c-.918,1.122-1.937,2.243-2.957,3.568v.1a24.439,24.439,0,0,0,2.957,1.937,14.131,14.131,0,0,0,11.317,1.122,6.932,6.932,0,0,0,4.894-7.137,7.035,7.035,0,0,0-3.772-5.811,30.13,30.13,0,0,0-4.282-1.427c-1.122-.408-2.345-.714-3.467-1.223a2.112,2.112,0,0,1-1.325-1.835c-.1-1.427,1.122-1.937,2.141-2.141a7.158,7.158,0,0,1,4.588.816,20.524,20.524,0,0,1,2.549,1.427h.1c.918-1.325,1.733-2.549,2.651-3.874-.1-.1-.306-.2-.408-.306a14.244,14.244,0,0,0-10.3-2.651c-3.772.51-7.035,3.161-6.729,7.647a5.618,5.618,0,0,0,3.059,5.2,30.9,30.9,0,0,0,4.282,1.631c1.529.51,3.059.918,4.486,1.529a1.8,1.8,0,0,1,.612,2.957A2.164,2.164,0,0,1,141.331,28.085Z" transform="translate(-43.453 -8.001)"/>
          <path id="Path_5" data-name="Path 5" class="cls-1" d="M49.178,18.7c1.835,4.486,3.568,8.972,5.4,13.56.1.2.306.51.51.51h4.384a.1.1,0,0,0,.1-.1C62.84,24.611,66,16.658,69.264,8.6c0-.1,0-.1-.1-.1h-5.1a.679.679,0,0,0-.714.51c-1.529,4.18-3.161,8.462-4.69,12.643-.408,1.122-.816,2.243-1.325,3.467,0,.1-.2.1-.2,0C55.092,19.513,53.053,14.008,51.013,8.5l-.1-.1H45.1c.1.2.1.408.2.612C46.629,12.274,47.955,15.537,49.178,18.7Z" transform="translate(-45.1 -7.993)"/>
          <path id="Path_6" data-name="Path 6" class="cls-1" d="M125,8.5h-5c-.1,0-.1,0-.1.1V32.46c0,.1,0,.1.1.1h5c.1,0,.1,0,.1-.1L125,8.5Z" transform="translate(-43.637 -7.991)"/>
        </g>
      </g>
    </g>
  </g>
</svg>
