<svg xmlns="http://www.w3.org/2000/svg" viewBox="0 0 422.76 379.53"><defs><style>.cls-1,.cls-3{fill:#fff;}.cls-1,.cls-3,.cls-5{stroke:#1f1f1f;stroke-width:2px;}.cls-1,.cls-5{stroke-miterlimit:10;}.cls-2,.cls-4{fill:#008bca;}.cls-2{opacity:0.2;}.cls-3{stroke-linejoin:round;}.cls-5{fill:none;}</style></defs><title>savings</title><g id="Layer_2" data-name="Layer 2"><g id="Layer_1-2" data-name="Layer 1"><rect class="cls-1" x="13.18" y="166.89" width="182.74" height="76.02"/><rect class="cls-1" x="7.58" y="160.24" width="182.74" height="76.02"/><rect class="cls-2" x="13.18" y="166.89" width="182.74" height="76.02"/><rect class="cls-2" x="7.58" y="160.24" width="182.74" height="76.02"/><rect class="cls-1" x="1" y="153.66" width="182.74" height="76.02"/><rect class="cls-3" x="60.9" y="150.54" width="58.27" height="82.79"/><polygon class="cls-3" points="126.78 247.64 68.51 247.64 60.9 233.32 119.17 233.32 126.78 247.64"/><polygon class="cls-2" points="126.78 247.64 114.41 247.64 106.81 233.32 119.17 233.32 126.78 247.64"/><polygon class="cls-2" points="80.78 247.64 68.51 247.64 60.9 233.32 73.18 233.32 80.78 247.64"/><rect class="cls-2" x="60.9" y="150.54" width="12.28" height="82.79"/><rect class="cls-2" x="106.89" y="150.54" width="12.28" height="82.79"/><circle class="cls-1" cx="29.92" cy="191.67" r="17.75"/><path class="cls-4" d="M34,188.38a2.17,2.17,0,0,0-.37-.27,6.73,6.73,0,0,0-.78-.41,10.43,10.43,0,0,0-1.05-.42,6.25,6.25,0,0,0-1.17-.29v2.87l.67.17a17,17,0,0,1,1.94.64,5.17,5.17,0,0,1,1.46.86,3.63,3.63,0,0,1,.93,1.26,4.3,4.3,0,0,1,.33,1.77,4.52,4.52,0,0,1-.42,2A3.92,3.92,0,0,1,34.37,198a4.93,4.93,0,0,1-1.62.81,7.71,7.71,0,0,1-1.93.32v2.44H29.36v-2.46a13.08,13.08,0,0,1-2.87-.59,10.63,10.63,0,0,1-2.56-1.22l1.51-3a2.39,2.39,0,0,0,.46.35,8.28,8.28,0,0,0,.93.51c.38.17.81.34,1.29.5a8.18,8.18,0,0,0,1.48.35v-2.8l-1-.3a13.79,13.79,0,0,1-1.79-.68,4.75,4.75,0,0,1-1.25-.86,3,3,0,0,1-.74-1.11,4.21,4.21,0,0,1-.24-1.48,4.81,4.81,0,0,1,.38-2,4.36,4.36,0,0,1,1-1.46,4.58,4.58,0,0,1,1.52-1,7.09,7.09,0,0,1,1.88-.45v-2.13h1.46v2.13a8.71,8.71,0,0,1,2.57.61,16.47,16.47,0,0,1,2.09,1Zm-5.84-.19a1,1,0,0,0,.37.84,3.19,3.19,0,0,0,1.11.53V187C28.61,187.06,28.12,187.46,28.12,188.19Zm4.09,6.7a1,1,0,0,0-.44-.85,5.22,5.22,0,0,0-1.18-.56V196C31.67,196,32.21,195.6,32.21,194.89Z"/><circle class="cls-1" cx="152.77" cy="191.67" r="17.75"/><path class="cls-4" d="M156.8,188.38a1.79,1.79,0,0,0-.37-.27,6.73,6.73,0,0,0-.78-.41,8.82,8.82,0,0,0-1.05-.42,6.25,6.25,0,0,0-1.17-.29v2.87l.67.17a16.35,16.35,0,0,1,1.94.64,5.23,5.23,0,0,1,1.47.86,3.48,3.48,0,0,1,.92,1.26,4.3,4.3,0,0,1,.33,1.77,4.52,4.52,0,0,1-.42,2,3.92,3.92,0,0,1-1.13,1.38,4.93,4.93,0,0,1-1.62.81,7.57,7.57,0,0,1-1.93.32v2.44h-1.45v-2.46a13.16,13.16,0,0,1-2.88-.59,10.63,10.63,0,0,1-2.56-1.22l1.52-3a1.94,1.94,0,0,0,.45.35,8.53,8.53,0,0,0,.94.51c.38.17.81.34,1.28.5a8.18,8.18,0,0,0,1.48.35v-2.8l-1-.3a12.76,12.76,0,0,1-1.79-.68,4.65,4.65,0,0,1-1.26-.86,3.18,3.18,0,0,1-.74-1.11,4.21,4.21,0,0,1-.24-1.48,4.81,4.81,0,0,1,.38-2,4.51,4.51,0,0,1,1-1.46,4.68,4.68,0,0,1,1.52-1,7.07,7.07,0,0,1,1.89-.45v-2.13h1.45v2.13a8.71,8.71,0,0,1,2.57.61,16.47,16.47,0,0,1,2.09,1Zm-5.84-.19a1.07,1.07,0,0,0,.37.84,3.38,3.38,0,0,0,1.11.53V187C151.46,187.06,151,187.46,151,188.19Zm4.09,6.7a1,1,0,0,0-.44-.85,5.22,5.22,0,0,0-1.18-.56V196C154.51,196,155.05,195.6,155.05,194.89Z"/><rect class="cls-1" x="174.59" y="297.78" width="182.74" height="76.02"/><rect class="cls-1" x="168.98" y="291.12" width="182.74" height="76.02"/><rect class="cls-2" x="174.59" y="297.78" width="182.74" height="76.02"/><rect class="cls-2" x="168.98" y="291.12" width="182.74" height="76.02"/><rect class="cls-1" x="162.4" y="284.55" width="182.74" height="76.02"/><rect class="cls-3" x="222.31" y="281.42" width="58.27" height="82.79"/><polygon class="cls-3" points="288.18 378.53 229.91 378.53 222.31 364.21 280.58 364.21 288.18 378.53"/><polygon class="cls-2" points="288.18 378.53 275.81 378.53 268.21 364.21 280.58 364.21 288.18 378.53"/><polygon class="cls-2" points="242.19 378.53 229.91 378.53 222.31 364.21 234.59 364.21 242.19 378.53"/><rect class="cls-2" x="222.31" y="281.42" width="12.28" height="82.79"/><rect class="cls-2" x="268.3" y="281.42" width="12.28" height="82.79"/><circle class="cls-1" cx="191.33" cy="322.55" r="17.75"/><path class="cls-4" d="M195.36,319.27A1.42,1.42,0,0,0,195,319a9.73,9.73,0,0,0-1.83-.83,6.21,6.21,0,0,0-1.17-.28v2.86l.67.17a18.4,18.4,0,0,1,1.94.64,5.24,5.24,0,0,1,1.47.87,3.5,3.5,0,0,1,.93,1.25,4.48,4.48,0,0,1,.32,1.77,4.6,4.6,0,0,1-.42,2.05,3.92,3.92,0,0,1-1.13,1.38,5.13,5.13,0,0,1-1.62.81,7.56,7.56,0,0,1-1.93.31v2.45h-1.45V330a12.6,12.6,0,0,1-2.88-.59,10.26,10.26,0,0,1-2.56-1.22l1.52-3a2.3,2.3,0,0,0,.45.34,7.13,7.13,0,0,0,.94.51c.38.18.81.34,1.28.51a8.16,8.16,0,0,0,1.48.34v-2.8l-1-.29a11.58,11.58,0,0,1-1.79-.69,4.63,4.63,0,0,1-1.26-.85,3.15,3.15,0,0,1-.73-1.12,3.9,3.9,0,0,1-.25-1.47,4.78,4.78,0,0,1,.38-1.95,4.83,4.83,0,0,1,1-1.47,4.68,4.68,0,0,1,1.52-1,7.07,7.07,0,0,1,1.89-.45v-2.13h1.45v2.13a9,9,0,0,1,2.57.61,16.47,16.47,0,0,1,2.09,1Zm-5.84-.19a1,1,0,0,0,.37.83,3.58,3.58,0,0,0,1.11.54v-2.59C190,317.94,189.52,318.35,189.52,319.08Zm4.09,6.7a1,1,0,0,0-.44-.85,4.65,4.65,0,0,0-1.18-.56v2.53C193.07,326.85,193.61,326.48,193.61,325.78Z"/><circle class="cls-1" cx="314.17" cy="322.55" r="17.75"/><path class="cls-4" d="M318.21,319.27a1.93,1.93,0,0,0-.37-.28c-.21-.12-.47-.26-.78-.41a9.76,9.76,0,0,0-1.06-.42,5.87,5.87,0,0,0-1.17-.28v2.86l.68.17a20.07,20.07,0,0,1,1.94.64,5.33,5.33,0,0,1,1.46.87,3.5,3.5,0,0,1,.93,1.25,4.3,4.3,0,0,1,.33,1.77,4.6,4.6,0,0,1-.43,2.05,3.9,3.9,0,0,1-1.12,1.38,5.19,5.19,0,0,1-1.63.81,7.56,7.56,0,0,1-1.92.31v2.45h-1.46V330a12.6,12.6,0,0,1-2.88-.59,10.44,10.44,0,0,1-2.56-1.22l1.52-3a2.7,2.7,0,0,0,.45.34,7.13,7.13,0,0,0,.94.51c.38.18.81.34,1.29.51a8.25,8.25,0,0,0,1.47.34v-2.8l-1-.29a12,12,0,0,1-1.79-.69,4.57,4.57,0,0,1-1.25-.85,3.17,3.17,0,0,1-.74-1.12,4.12,4.12,0,0,1-.24-1.47,4.62,4.62,0,0,1,.38-1.95,4.51,4.51,0,0,1,1-1.47,4.58,4.58,0,0,1,1.52-1,7.09,7.09,0,0,1,1.88-.45v-2.13h1.46v2.13a9,9,0,0,1,2.57.61,16.3,16.3,0,0,1,2.08,1Zm-5.84-.19a1,1,0,0,0,.37.83,3.4,3.4,0,0,0,1.1.54v-2.59C312.86,317.94,312.37,318.35,312.37,319.08Zm4.09,6.7a1,1,0,0,0-.45-.85,4.49,4.49,0,0,0-1.18-.56v2.53C315.92,326.85,316.46,326.48,316.46,325.78Z"/><rect class="cls-1" x="239.02" y="56.08" width="182.74" height="76.02"/><rect class="cls-1" x="233.41" y="49.42" width="182.74" height="76.02"/><rect class="cls-2" x="239.02" y="56.08" width="182.74" height="76.02"/><rect class="cls-2" x="233.41" y="49.42" width="182.74" height="76.02"/><rect class="cls-1" x="226.84" y="42.85" width="182.74" height="76.02"/><rect class="cls-3" x="286.74" y="39.72" width="58.27" height="82.79"/><polygon class="cls-3" points="352.61 136.83 294.34 136.83 286.74 122.51 345.01 122.51 352.61 136.83"/><polygon class="cls-2" points="352.61 136.83 340.25 136.83 332.64 122.51 345.01 122.51 352.61 136.83"/><polygon class="cls-2" points="306.62 136.83 294.34 136.83 286.74 122.51 299.02 122.51 306.62 136.83"/><rect class="cls-2" x="286.74" y="39.72" width="12.28" height="82.79"/><rect class="cls-2" x="332.73" y="39.72" width="12.28" height="82.79"/><circle class="cls-1" cx="255.76" cy="80.86" r="17.75"/><path class="cls-4" d="M259.79,77.57a1.5,1.5,0,0,0-.36-.28c-.21-.12-.47-.26-.78-.41s-.67-.28-1.06-.42a5.87,5.87,0,0,0-1.17-.28V79l.68.17a20.07,20.07,0,0,1,1.94.64,5.33,5.33,0,0,1,1.46.87,3.5,3.5,0,0,1,.93,1.25,4.31,4.31,0,0,1,.32,1.77,4.57,4.57,0,0,1-.42,2.05,3.9,3.9,0,0,1-1.12,1.38,5,5,0,0,1-1.63.81,7.56,7.56,0,0,1-1.93.31v2.45H255.2V88.27a12.6,12.6,0,0,1-2.88-.59,10.09,10.09,0,0,1-2.56-1.22l1.52-3a3.19,3.19,0,0,0,.45.35,7.19,7.19,0,0,0,.94.5,11.57,11.57,0,0,0,1.29.51,9.25,9.25,0,0,0,1.47.35V82.35l-1-.29a12,12,0,0,1-1.79-.69,4.57,4.57,0,0,1-1.25-.85,3.09,3.09,0,0,1-.74-1.12,4.12,4.12,0,0,1-.24-1.47,4.65,4.65,0,0,1,.38-2,4.51,4.51,0,0,1,1-1.47,5,5,0,0,1,1.51-1,7.25,7.25,0,0,1,1.89-.45V71h1.45V73.1a9,9,0,0,1,2.58.61,19.54,19.54,0,0,1,2.08,1ZM254,77.38a1,1,0,0,0,.37.83,3.21,3.21,0,0,0,1.1.54V76.16C254.45,76.24,254,76.65,254,77.38Zm4.09,6.7a1,1,0,0,0-.45-.85,4.65,4.65,0,0,0-1.18-.56V85.2C257.5,85.16,258.05,84.78,258.05,84.08Z"/><circle class="cls-1" cx="378.6" cy="80.86" r="17.75"/><path class="cls-4" d="M382.64,77.57a1.64,1.64,0,0,0-.37-.28,8.75,8.75,0,0,0-.78-.41q-.48-.21-1.05-.42a6.21,6.21,0,0,0-1.17-.28V79l.67.17a19.2,19.2,0,0,1,1.94.64,5.18,5.18,0,0,1,1.46.87,3.5,3.5,0,0,1,.93,1.25,4.3,4.3,0,0,1,.33,1.77,4.57,4.57,0,0,1-.42,2.05,3.92,3.92,0,0,1-1.13,1.38,4.93,4.93,0,0,1-1.62.81,7.63,7.63,0,0,1-1.93.31v2.45H378V88.27a12.63,12.63,0,0,1-2.87-.59,9.93,9.93,0,0,1-2.56-1.22l1.51-3a2.91,2.91,0,0,0,.46.35,6.6,6.6,0,0,0,.94.5,10.66,10.66,0,0,0,1.28.51,9.11,9.11,0,0,0,1.48.35V82.35l-1-.29a12.44,12.44,0,0,1-1.79-.69,4.73,4.73,0,0,1-1.25-.85,3.09,3.09,0,0,1-.74-1.12,4.12,4.12,0,0,1-.24-1.47,4.81,4.81,0,0,1,.38-2,4.51,4.51,0,0,1,1-1.47,5,5,0,0,1,1.52-1A7.09,7.09,0,0,1,378,73.1V71h1.46V73.1a9,9,0,0,1,2.57.61,19.77,19.77,0,0,1,2.09,1Zm-5.84-.19a1,1,0,0,0,.37.83,3.27,3.27,0,0,0,1.11.54V76.16C377.29,76.24,376.8,76.65,376.8,77.38Zm4.09,6.7a1,1,0,0,0-.44-.85,4.82,4.82,0,0,0-1.18-.56V85.2C380.35,85.16,380.89,84.78,380.89,84.08Z"/><path class="cls-5" d="M60.32,51.64V75.75a8.92,8.92,0,0,0,3.23,6.86L93.18,107a8.89,8.89,0,0,1,3.23,6.86v18.71"/><circle class="cls-4" cx="96.41" cy="132.59" r="4.34"/><circle class="cls-4" cx="60.46" cy="51.64" r="4.34"/><path class="cls-4" d="M33.14,11.32a3.05,3.05,0,0,0-.65-.47,13.62,13.62,0,0,0-1.35-.7,18.4,18.4,0,0,0-1.81-.73,11.32,11.32,0,0,0-2-.49v4.92l1.16.29a30.89,30.89,0,0,1,3.33,1.11,9.17,9.17,0,0,1,2.53,1.48A6,6,0,0,1,36,18.88a7.57,7.57,0,0,1,.56,3,7.65,7.65,0,0,1-.73,3.51,6.7,6.7,0,0,1-1.93,2.37,8.69,8.69,0,0,1-2.79,1.39,13.24,13.24,0,0,1-3.31.54v4.2H25.22V29.7a22,22,0,0,1-4.94-1,19.77,19.77,0,0,1-4.39-2.08l2.6-5.17a4.18,4.18,0,0,0,.8.59,15.2,15.2,0,0,0,1.63.89,18.64,18.64,0,0,0,2.2.88,11.56,11.56,0,0,0,2.53.56V19.53L23.92,19a21.67,21.67,0,0,1-3.08-1.18,8.66,8.66,0,0,1-2.17-1.46,5.44,5.44,0,0,1-1.28-1.92A7,7,0,0,1,17,11.94a8.24,8.24,0,0,1,.65-3.35,7.78,7.78,0,0,1,1.76-2.51A8,8,0,0,1,22,4.43a12,12,0,0,1,3.24-.78V0h2.53V3.65A15.47,15.47,0,0,1,32.17,4.7a31,31,0,0,1,3.54,1.7Zm-10-.32a1.69,1.69,0,0,0,.64,1.41,6.35,6.35,0,0,0,1.89.94V8.9C24,9,23.12,9.74,23.12,11Zm7,11.5A1.66,1.66,0,0,0,29.35,21a8.57,8.57,0,0,0-2-1v4.34C29.18,24.34,30.1,23.71,30.1,22.5Z"/><path class="cls-4" d="M48.44,17.83a9.14,9.14,0,0,1,3.4.62,8.16,8.16,0,0,1,2.7,1.7,7.51,7.51,0,0,1,1.77,2.6,8.76,8.76,0,0,1,.63,3.37,8.61,8.61,0,0,1-.72,3.56,8.16,8.16,0,0,1-2,2.77,9,9,0,0,1-3.07,1.79,11.63,11.63,0,0,1-3.89.63,11.11,11.11,0,0,1-5.06-1.12,8.09,8.09,0,0,1-3.44-3.15L42,27a8.17,8.17,0,0,0,2.44,2,5.93,5.93,0,0,0,2.84.76,3.76,3.76,0,0,0,2.69-1,3.4,3.4,0,0,0,1-2.6,3.26,3.26,0,0,0-3.4-3.44,3.9,3.9,0,0,0-1.82.43,3.14,3.14,0,0,0-1.32,1.23h-5s0-.27.14-.74.21-1.08.35-1.83.28-1.58.47-2.51.36-1.87.56-2.84c.43-2.27.92-4.83,1.48-7.7H55.21v5.28H46.64l-.76,4.37a2.35,2.35,0,0,1,.88-.45A5.83,5.83,0,0,1,48.44,17.83Z"/><path class="cls-4" d="M59.08,17.83a8.66,8.66,0,0,1,.72-3.52,9,9,0,0,1,2-2.86,9.45,9.45,0,0,1,3-1.92,9.87,9.87,0,0,1,3.76-.7,9.25,9.25,0,0,1,4,.83,8.19,8.19,0,0,1,3,2.39,11,11,0,0,1,1.89,3.83A18.86,18.86,0,0,1,78.11,21a23.08,23.08,0,0,1-.71,6,13.36,13.36,0,0,1-2,4.42,8.75,8.75,0,0,1-3.18,2.73,9.4,9.4,0,0,1-4.23.94,10.15,10.15,0,0,1-4.43-1A10.59,10.59,0,0,1,60,31.29L63.2,27.6a6.72,6.72,0,0,0,2.17,1.81,5.86,5.86,0,0,0,2.68.65,4.15,4.15,0,0,0,3.38-1.52,6.92,6.92,0,0,0,1.32-4.3,4.89,4.89,0,0,1-1.91,1.52,6.74,6.74,0,0,1-2.79.54,9.63,9.63,0,0,1-3.56-.65,8.69,8.69,0,0,1-2.84-1.79,8.17,8.17,0,0,1-1.88-2.68A8.06,8.06,0,0,1,59.08,17.83Zm9.48-4.12A3.62,3.62,0,0,0,67,14a4,4,0,0,0-1.27.88,4.59,4.59,0,0,0-.87,1.32,4.14,4.14,0,0,0-.32,1.59,3.72,3.72,0,0,0,.31,1.54,3.62,3.62,0,0,0,.85,1.23,4,4,0,0,0,1.26.83,3.85,3.85,0,0,0,1.56.31,3.79,3.79,0,0,0,1.52-.31,4,4,0,0,0,1.26-.83,4.16,4.16,0,0,0,.87-1.23,3.58,3.58,0,0,0,.33-1.54,4,4,0,0,0-.33-1.59,4.59,4.59,0,0,0-.87-1.32A4,4,0,0,0,70.08,14,3.65,3.65,0,0,0,68.56,13.71Z"/><path class="cls-4" d="M92.68,29.84a7.46,7.46,0,0,1-3.78-.92,6.75,6.75,0,0,1-2.55-2.59v3.15H81.29V3.07h5.79V13.6a6.9,6.9,0,0,1,2.51-2.55,7.34,7.34,0,0,1,3.75-.92,7.11,7.11,0,0,1,3.31.78A7.94,7.94,0,0,1,99.23,13a10,10,0,0,1,1.7,3.17,12.1,12.1,0,0,1,.62,3.89,11,11,0,0,1-.67,3.85A9.63,9.63,0,0,1,99,27a8.36,8.36,0,0,1-2.82,2.06A8.25,8.25,0,0,1,92.68,29.84ZM91.06,25a4.58,4.58,0,0,0,1.86-.38,4.35,4.35,0,0,0,1.45-1A4.75,4.75,0,0,0,95.29,22a5.47,5.47,0,0,0,.32-1.93,6.25,6.25,0,0,0-.3-1.94,4.94,4.94,0,0,0-.89-1.61,4.28,4.28,0,0,0-1.36-1.08,3.62,3.62,0,0,0-1.71-.4,3.85,3.85,0,0,0-2.52.94,6.23,6.23,0,0,0-1.75,2.35v4a4.76,4.76,0,0,0,1.7,1.93A4.11,4.11,0,0,0,91.06,25Z"/></g></g></svg>