<svg xmlns="http://www.w3.org/2000/svg" viewBox="0 0 539.77 234.17"><defs><style>.cls-1{fill:none;}.cls-1,.cls-6{stroke:#1f1f1f;stroke-miterlimit:10;stroke-width:2px;}.cls-2,.cls-3,.cls-5{fill:#008bca;}.cls-2,.cls-4{opacity:0.2;}.cls-5{font-size:23.79px;font-family:Raleway-ExtraBold, Raleway;font-weight:700;}.cls-6,.cls-7{fill:#fff;}.cls-7{stroke:#008bca;stroke-linejoin:round;stroke-width:3px;}</style></defs><title>security</title><g id="Layer_2" data-name="Layer 2"><g id="Layer_1-2" data-name="Layer 1"><path class="cls-1" d="M416.67,123.87h25.39l17.19-37.11A18.07,18.07,0,0,1,475.64,76.3H535"/><path class="cls-1" d="M416.67,123.76h25.39l45.24,44.49A18.08,18.08,0,0,0,500,173.44h18.33"/><line class="cls-1" x1="355.17" y1="123.87" x2="416.67" y2="123.87"/><path class="cls-2" d="M329.23,75.18s8,53.16,0,96H344.6v-96Z"/><path class="cls-3" d="M16.5,42.75v-2a7.12,7.12,0,0,1,7.12-7.11h0a7.12,7.12,0,0,1,7.11,7.11v2a1.58,1.58,0,0,1-1.58,1.58H18.08A1.58,1.58,0,0,1,16.5,42.75Z"/><circle class="cls-3" cx="23.62" cy="29.39" r="4.12"/><path class="cls-3" d="M307.36,96.94c-4.92,0-9.84,0-14.76,0H277.77c-1.08,0-1.44.59-.93,1.54,1.49,2.79,3,5.57,4.48,8.37a1.32,1.32,0,0,0,1.35.8q4.51,0,9,0c.84,0,1.21.51.89,1.28l-7.26,17.14c-.16.38-.37.7-.83.72a1,1,0,0,1-.88-.64l-5-9.08q-5.31-9.7-10.62-19.41A1.23,1.23,0,0,0,266.8,97c-1.41,0-2.83,0-4.25,0h-5.41c-.88,0-1.24.62-.84,1.39.12.24.25.47.37.7q14.07,25.64,28.11,51.28c.23.41.46.76,1,.73s.7-.39.88-.8q2.93-7,5.87-14,8-18.9,15.91-37.79C308.83,97.55,308.36,96.93,307.36,96.94Z"/><rect class="cls-1" x="220.06" y="75.18" width="125.16" height="95.98" rx="9" ry="9"/><path class="cls-1" d="M253.72,75.08V47.33a28.92,28.92,0,0,1,57.84,0V75.08H329V47.33A46.34,46.34,0,0,0,282.64,1h0a46.33,46.33,0,0,0-46.33,46.33V75.08Z"/><g class="cls-4"><path class="cls-3" d="M275.39,18.42c-15.95,0-27.47,13-27.47,28.91V75.08h5.8V47.33A28.94,28.94,0,0,1,279,18.67,28.83,28.83,0,0,0,275.39,18.42Z"/></g><g class="cls-4"><path class="cls-3" d="M282.64,1a45.84,45.84,0,0,0-4.71.24c23.37,2.36,44.88,22.1,44.88,46.09V75.08H329V47.33A46.34,46.34,0,0,0,282.64,1Z"/></g><polygon class="cls-1" points="97.97 135.67 1 135.67 1 7.97 83.73 7.97 97.97 22.21 97.97 135.67"/><polyline class="cls-1" points="83.73 7.97 83.73 22.78 97.97 22.78"/><polyline class="cls-2" points="83.73 7.97 83.73 22.78 97.97 22.78"/><line class="cls-1" x1="14.02" y1="65.65" x2="76.94" y2="65.65"/><line class="cls-1" x1="14.02" y1="77.04" x2="55.08" y2="77.04"/><line class="cls-1" x1="39.34" y1="28.06" x2="61.54" y2="28.06"/><line class="cls-1" x1="39.34" y1="43.13" x2="52.43" y2="43.13"/><line class="cls-1" x1="39.34" y1="35.75" x2="65.51" y2="35.75"/><line class="cls-1" x1="14.02" y1="90.16" x2="65.51" y2="90.16"/><line class="cls-1" x1="14.02" y1="103.09" x2="65.51" y2="103.09"/><line class="cls-1" x1="14.02" y1="116.01" x2="41.99" y2="116.01"/><path class="cls-1" d="M111.41,78.31h23.43a19.13,19.13,0,0,1,10.57,3.19l23.28,15.4a19.12,19.12,0,0,0,10.57,3.18h30"/><circle class="cls-3" cx="209.29" cy="100.08" r="4.8"/><circle class="cls-3" cx="111.41" cy="78.46" r="4.8"/><path class="cls-1" d="M209.29,141.74h-35a9.82,9.82,0,0,0-7.58,3.58l-27,32.76a9.85,9.85,0,0,1-7.58,3.58H111.41"/><circle class="cls-3" cx="111.41" cy="181.66" r="4.8"/><circle class="cls-3" cx="209.29" cy="141.89" r="4.8"/><rect class="cls-1" x="1.16" y="157.33" width="94.03" height="75.84"/><polyline class="cls-1" points="14.91 216.11 30.4 199.39 46.36 211.55 56.88 203.42 72.74 206.29 85.8 176.91"/><text class="cls-5" transform="translate(12.42 186.38)">$</text><circle class="cls-3" cx="355.17" cy="124.01" r="4.8"/><circle class="cls-3" cx="519.98" cy="173.44" r="4.8"/><circle class="cls-3" cx="534.97" cy="76.3" r="4.8"/><line class="cls-1" x1="436.78" y1="123.76" x2="501.49" y2="123.76"/><circle class="cls-3" cx="501.49" cy="124.01" r="4.8"/><path class="cls-6" d="M403.6,145.69s18.83-6.46,18.83-32.29l-18.83-7.31-18.84,7.31C384.76,139.23,403.6,145.69,403.6,145.69Z"/><polyline class="cls-7" points="397.25 123.53 402.66 128.94 412.16 119.44"/></g></g></svg>