<svg xmlns="http://www.w3.org/2000/svg" viewBox="-6621.1 3138.251 2514.169 1199.013">
  <defs>
    <style>
      .cls-1 {
        opacity: 0.079;
      }

      .cls-2 {
        fill: #fff;
      }
    </style>
  </defs>
  <g id="Group_2541" data-name="Group 2541" class="cls-1" transform="matrix(0.974, 0.225, -0.225, 0.974, -6478.673, 3072.426)">
    <g id="triangle36_168_" transform="translate(1717.541 466.363)">
      <path id="Path_3" data-name="Path 3" class="cls-2" d="M1782.7,467.9h.4l112.13,6.578-172.033,59.5Zm104.356,7.675-103.758-6.08-54.919,61Z" transform="translate(-1723.2 -467.9)"/>
    </g>
    <g id="triangle36_167_" transform="translate(1719.235 472.045)">
      <path id="Path_4" data-name="Path 4" class="cls-2" d="M1893.046,473.6l-1.2,1.894L1763.673,680.518,1724.9,531.808l.7-.2ZM1764.27,676.531,1889.259,476.49l-162.465,56.215Z" transform="translate(-1724.9 -473.6)"/>
    </g>
    <g id="triangle36_166_" transform="translate(1884.291 319.049)">
      <path id="Path_5" data-name="Path 5" class="cls-2" d="M2000.139,320.1l.4,1.694,57.61,230.54L1890.5,474.99l.6-.8Zm55.716,229.344-56.414-225.557-106.549,150.4Z" transform="translate(-1890.5 -320.1)"/>
    </g>
    <g id="triangle36_165_" transform="translate(1992.236 318.949)">
      <path id="Path_6" data-name="Path 6" class="cls-2" d="M1998.8,320l1.794,1.3,153.294,114.921-.5.6-96.382,115.619-.4-1.5Zm152.8,116.516-150.1-112.629,56.315,225.158Z" transform="translate(-1998.8 -320)"/>
    </g>
    <g id="triangle36_164_" transform="translate(1153.699 282.469)">
      <path id="Path_7" data-name="Path 7" class="cls-2" d="M1158.6,546.832l94.09-263.432,1.5.6L1157.5,554.606" transform="translate(-1157.5 -283.4)"/>
    </g>
    <g id="triangle36_163_" transform="translate(2050.045 136.45)">
      <path id="Path_8" data-name="Path 8" class="cls-2" d="M2164.844,136.9l1.595.1-12.858,302.7L2056.8,188.131l1.495-.6,93.991,244.395Z" transform="translate(-2056.8 -136.9)"/>
    </g>
    <g id="triangle36_162_" transform="translate(1993.133 187.084)">
      <path id="Path_9" data-name="Path 9" class="cls-2" d="M2058.107,187.7l96.383,250.574L1999.7,322.157l.9-1.3L2151,433.69,2056.613,188.3Z" transform="translate(-1999.7 -187.7)"/>
    </g>
    <g id="triangle36_161_" transform="translate(1776.546 376.36)">
      <path id="Path_10" data-name="Path 10" class="cls-2" d="M1782.4,377.6l1.3,1.2,109.938,96.881L1782.5,469.1V377.6Zm106.649,96.183-105.054-92.695V467.6Z" transform="translate(-1782.4 -377.6)"/>
    </g>
    <g id="triangle36_160_" transform="translate(764.78 548.991)">
      <path id="Path_11" data-name="Path 11" class="cls-2" d="M767.3,550.8H1158.71l-1.4,1.4L940.529,768.981l-.6-.7Zm387.623,1.595H770.589L940.729,766.589Z" transform="translate(-767.3 -550.8)"/>
    </g>
    <g id="triangle36_159_" transform="translate(2145.331 136.45)">
      <path id="Path_12" data-name="Path 12" class="cls-2" d="M2165.158,136.9l1.595.1-12.658,296.822L2375.166,212.75l1.2,1.1L2152.4,437.809Z" transform="translate(-2152.4 -136.9)"/>
    </g>
    <g id="triangle36_158_" transform="translate(2145.724 212.332)">
      <rect id="Rectangle_1" data-name="Rectangle 1" class="cls-2" width="314.763" height="1.595" transform="matrix(0.707, -0.707, 0.707, 0.707, 0, 222.632)"/>
    </g>
    <g id="triangle36_157_" transform="translate(2144.035 433.671)">
      <path id="Path_13" data-name="Path 13" class="cls-2" d="M2151.1,435.1l2.392.9,387.823,146.318-.5,1.5-385.53-145.421,183,265.027-1.3.9Z" transform="translate(-2151.1 -435.1)"/>
    </g>
    <g id="triangle36_156_" transform="translate(1502.848 301.706)">
      <path id="Path_14" data-name="Path 14" class="cls-2" d="M1559.031,302.7l1.6.3L1510.093,536.43l125.586-75.352.8,1.4L1507.8,539.719l.4-1.794Z" transform="translate(-1507.8 -302.7)"/>
    </g>
    <g id="triangle36_155_" transform="translate(1388.824 282.469)">
      <path id="Path_15" data-name="Path 15" class="cls-2" d="M1394.9,283.4l113.426,252.069,50.334-232.833,1.595.3L1508.82,540.553l-1-2.193L1393.4,284Z" transform="translate(-1393.4 -283.4)"/>
    </g>
    <g id="triangle36_154_" transform="translate(14.552 358.02)">
      <path id="Path_16" data-name="Path 16" class="cls-2" d="M117.76,359.2l.6.3L395.046,501.033l-3.688-.2L14.6,481.7ZM387.671,499.139,118.159,361.194,17.889,480.3Z" transform="translate(-14.6 -359.2)"/>
    </g>
    <g id="triangle36_153_" transform="translate(1267.424 280.875)">
      <path id="Path_17" data-name="Path 17" class="cls-2" d="M1393.7,281.8l.7,1.595,114.921,255.359-1.2.1L1271.6,551.611l.5-1.2Zm113.226,255.458L1393.7,285.588,1274.192,549.817Z" transform="translate(-1271.6 -281.8)"/>
    </g>
    <g id="triangle36_152_" transform="translate(1248.885 282.469)">
      <path id="Path_18" data-name="Path 18" class="cls-2" d="M1392.939,283.4l1.5.6-122.2,269.911L1253,283.7l1.595-.1,18.838,263.93Z" transform="translate(-1253 -283.4)"/>
    </g>
    <g id="triangle36_151_" transform="translate(1153.2 278.881)">
      <path id="Path_19" data-name="Path 19" class="cls-2" d="M1253.981,279.8l.3,3.788L1273.417,551.5H1157l.4-1.1Zm17.742,270.11-18.738-262.435L1159.293,549.91Z" transform="translate(-1157 -279.8)"/>
    </g>
    <g id="triangle36_150_" transform="translate(1522.583 529.455)">
      <path id="Path_20" data-name="Path 20" class="cls-2" d="M1725.648,531.2l.3,1.1,38.174,146.218-1.595.4-37.875-145.221L1528.5,660.275l-.9-1.3Z" transform="translate(-1527.6 -531.2)"/>
    </g>
    <g id="triangle36_149_" transform="translate(1503.048 529.854)">
      <path id="Path_21" data-name="Path 21" class="cls-2" d="M1727.975,531.6,1527.436,660.974l-.2-1.2L1508,538.079h.9ZM1528.632,658.283l193.662-124.888-212.4,6.279Z" transform="translate(-1508 -531.6)"/>
    </g>
    <g id="triangle36_148_" transform="translate(9.369 231.537)">
      <path id="Path_22" data-name="Path 22" class="cls-2" d="M48.671,232.3l71.365,129.673-2.492-1.5L9.4,296.887l.8-1.3,105.652,62.1L47.275,233Z" transform="translate(-9.4 -232.3)"/>
    </g>
    <g id="triangle36_147_" transform="translate(9.369 294.829)">
      <path id="Path_23" data-name="Path 23" class="cls-2" d="M10.2,295.8l108.941,63.989-.6.8L16.776,481.389l-1.2-1.1,101.167-120.1L9.4,297.1Z" transform="translate(-9.4 -295.8)"/>
    </g>
    <g id="triangle36_146_" transform="translate(384.134 497.86)">
      <path id="Path_24" data-name="Path 24" class="cls-2" d="M391.779,499.5l1,.3L704.349,601.564l-.5,1.5L393.374,501.693l-6.379,329.514H385.4Z" transform="translate(-385.4 -499.5)"/>
    </g>
    <g id="triangle36_145_" transform="translate(238.016 495.069)">
      <path id="Path_25" data-name="Path 25" class="cls-2" d="M392.992,496.7l-6.479,334.5h-1.595L391.2,504.475l-151,339.78-1.4-.7Z" transform="translate(-238.8 -496.7)"/>
    </g>
    <g id="triangle36_144_" transform="translate(751.524 351.94)">
      <path id="Path_26" data-name="Path 26" class="cls-2" d="M1157.67,552.244l-1.2-.6L754,353.7l1.894-.6m2.492.9,397.49,195.556" transform="translate(-754 -353.1)"/>
    </g>
    <g id="triangle36_143_" transform="translate(752.819 351.342)">
      <path id="Path_27" data-name="Path 27" class="cls-2" d="M755.3,352.5l1.2.6,403.67,198.646H768.158l-.1-.7Zm398.088,197.649L757.094,355.191l12.559,194.958Z" transform="translate(-755.3 -352.5)"/>
    </g>
    <g id="triangle36_142_" transform="translate(752.321 351.442)">
      <path id="Path_28" data-name="Path 28" class="cls-2" d="M754.8,355.1" transform="translate(-754.8 -352.608)"/>
      <path id="Path_29" data-name="Path 29" class="cls-2" d="M757.6,352.6" transform="translate(-754.809 -352.6)"/>
    </g>
    <g id="triangle36_141_" transform="translate(500.252 9.568)">
      <path id="Path_30" data-name="Path 30" class="cls-2" d="M755.265,354.962l-.7-1.993L501.9,10.1l1.5-.5,252.07,340.877" transform="translate(-501.9 -9.6)"/>
    </g>
    <g id="triangle36_140_" transform="translate(701.688 346.757)">
      <path id="Path_31" data-name="Path 31" class="cls-2" d="M756.427,347.9l.4,5.881L769.584,551.33,704,603.857l.4-2.193Zm11.462,202.632L755.63,359.761,706.392,599.77Z" transform="translate(-704 -347.9)"/>
    </g>
    <g id="triangle36_139_" transform="translate(389.018 351.442)">
      <path id="Path_32" data-name="Path 32" class="cls-2" d="M756.095,352.6l-.3,1.4-51.032,248.88-.9-.3L390.3,500.214l1.994-.8ZM703.568,600.782,754,355.092,394.885,500.014Z" transform="translate(-390.3 -352.6)"/>
    </g>
    <g id="triangle36_138_" transform="translate(251.172 9.568)">
      <path id="Path_33" data-name="Path 33" class="cls-2" d="M502.574,9.6,755.74,353.866,252,207.249l.5-1.5,500.85,145.82L501.079,10.1Z" transform="translate(-252 -9.6)"/>
    </g>
    <g id="triangle36_137_" transform="translate(249.976 205.224)">
      <path id="Path_34" data-name="Path 34" class="cls-2" d="M250.8,205.9l1.694.5L757.032,353.314l-2.093.9-363.1,146.517-.3-.7ZM752.148,353.514,253.79,208.392,392.533,498.635Z" transform="translate(-250.8 -205.9)"/>
    </g>
    <g id="triangle36_136_" transform="translate(116.616 205.024)">
      <path id="Path_35" data-name="Path 35" class="cls-2" d="M251.955,205.7l.5,1.1L393.389,501.426,117,359.992ZM389.9,497.837,251.557,208.59l-131.965,150.9Z" transform="translate(-117 -205.7)"/>
    </g>
    <g id="triangle36_135_" transform="translate(47.244 205.921)">
      <path id="Path_36" data-name="Path 36" class="cls-2" d="M250.929,206.6l1.2,1.1L117.868,361.091l-.5-1L47.4,232.913l1.4-.7L118.167,358.4Z" transform="translate(-47.4 -206.6)"/>
    </g>
    <g id="triangle36_134_" transform="translate(1458.693 533.343)">
      <path id="Path_37" data-name="Path 37" class="cls-2" d="M1509.05,535.1l.5,3.588,19.137,120.8-1.595.3-18.539-117.214-43.457,155.488-1.595-.5Z" transform="translate(-1463.5 -535.1)"/>
    </g>
    <g id="triangle36_133_" transform="translate(740.161 547.895)">
      <path id="Path_38" data-name="Path 38" class="cls-2" d="M768.415,549.7l1.1,1.4L941.146,767.283l-1.2,1L769.412,553.488,744.195,717.049l-1.595-.2Z" transform="translate(-742.6 -549.7)"/>
    </g>
    <g id="triangle36_132_" transform="translate(702.386 547.895)">
      <path id="Path_39" data-name="Path 39" class="cls-2" d="M769.885,549.7l-.3,1.993L744.07,717.049l-1.595-.2,25.217-163.362-62,49.636-1-1.3Z" transform="translate(-704.7 -549.7)"/>
    </g>
    <g id="triangle36_131_" transform="translate(1675.579 378.154)">
      <path id="Path_40" data-name="Path 40" class="cls-2" d="M1782.068,379.4h1.594v89.7L1681.3,481.862l-.2-1.5,100.968-12.658Z" transform="translate(-1681.1 -379.4)"/>
    </g>
    <g id="triangle36_130_" transform="translate(1674.084 466.064)">
      <path id="Path_41" data-name="Path 41" class="cls-2" d="M1784.953,467.6l-59.3,65.883L1679.6,480.856Zm-59.3,63.491,55.219-61.3-98.077,12.26Z" transform="translate(-1679.6 -467.6)"/>
    </g>
    <g id="triangle36_129_" transform="translate(1498.562 478.922)">
      <path id="Path_42" data-name="Path 42" class="cls-2" d="M1680.816,480.5l45.949,52.527L1503.5,539.605Zm42.56,51.032-43.058-49.238-166.053,55.318Z" transform="translate(-1503.5 -480.5)"/>
    </g>
    <g id="triangle36_128_" transform="translate(1497.366 460.084)">
      <path id="Path_43" data-name="Path 43" class="cls-2" d="M1635.661,461.6l.8,1.4-120.9,72.561,164.757-54.919.5,1.5-178.512,59.5Z" transform="translate(-1502.3 -461.6)"/>
    </g>
    <g id="triangle36_127_" transform="translate(2176.329 637.3)">
      <path id="Path_44" data-name="Path 44" class="cls-2" d="M2183.5,639.4l1.894.8,152.6,63.591-.6,1.5-150.7-62.793L2243.1,761.4l-1.5.7Z" transform="translate(-2183.5 -639.4)"/>
    </g>
    <g id="triangle36_126_" transform="translate(2144.833 432.076)">
      <path id="Path_45" data-name="Path 45" class="cls-2" d="M2151.9,433.5l1.994,2.891L2339.781,705.7l-155.488-64.787Zm183.5,268.515-180.9-261.937,31.2,199.543Z" transform="translate(-2151.9 -433.5)"/>
    </g>
    <g id="triangle36_125_" transform="translate(2049.746 433.472)">
      <path id="Path_46" data-name="Path 46" class="cls-2" d="M2153.481,434.9l.3,1.694,32.094,205.323-1.495-1.1L2056.5,551.316l.6-.7Zm30.2,203.629-31.2-199.842-93.691,112.43Z" transform="translate(-2056.5 -434.9)"/>
    </g>
    <g id="triangle36_124_" transform="translate(98.376 496.663)">
      <path id="Path_47" data-name="Path 47" class="cls-2" d="M393.529,498.3l-1.2,2.591L239.735,844.26l-1.4-.7,151.4-340.678L99.6,704.72l-.9-1.3Z" transform="translate(-98.7 -498.3)"/>
    </g>
    <g id="triangle36_123_" transform="translate(16.147 479.022)">
      <path id="Path_48" data-name="Path 48" class="cls-2" d="M16.3,480.6l377.456,19.236-1.993,1.3L99.326,704.662l-.9-1.3L388.972,501.232,16.2,482.195Z" transform="translate(-16.2 -480.6)"/>
    </g>
    <g id="triangle36_122_" transform="translate(1846.516 269.911)">
      <path id="Path_49" data-name="Path 49" class="cls-2" d="M1854.195,270.8l37.775,201.636,107.047-151.1,1.3.9-109.14,154.192-.4-1.894L1852.6,271.1Z" transform="translate(-1852.6 -270.8)"/>
    </g>
    <g id="triangle36_121_" transform="translate(1776.845 269.911)">
      <path id="Path_50" data-name="Path 50" class="cls-2" d="M1853.965,270.8l38.573,205.722L1782.7,379.641l1.1-1.2,106.349,93.791L1852.371,271.1Z" transform="translate(-1782.7 -270.8)"/>
    </g>
    <g id="triangle36_120_" transform="translate(1883.793 471.845)">
      <path id="Path_51" data-name="Path 51" class="cls-2" d="M1890,473.4l167.847,77.445-.1.6-38.573,193.064-1-2.193Zm166.053,78.441-162.764-75.152,125.287,262.934Z" transform="translate(-1890 -473.4)"/>
    </g>
    <g id="triangle36_119_" transform="translate(1757.609 471.845)">
      <path id="Path_52" data-name="Path 52" class="cls-2" d="M1891.379,473.4l.6,1.3,127.181,267.02-1.5.7L1891.179,476.689,1764.8,678.923l-1.4-.8Z" transform="translate(-1763.4 -473.4)"/>
    </g>
    <g id="triangle36_118_" transform="translate(2012.27 637.699)">
      <path id="Path_53" data-name="Path 53" class="cls-2" d="M2184.953,639.8l57.61,121.6-1.495.7-56.813-120L2019.7,743.359l-.8-1.4Z" transform="translate(-2018.9 -639.8)"/>
    </g>
    <g id="triangle36_117_" transform="translate(2011.572 548.493)">
      <path id="Path_54" data-name="Path 54" class="cls-2" d="M2056.873,550.3l129.175,90.4-1,.6L2018.2,743.962l.4-1.794Zm126.283,90.3-125.187-87.611-37.577,187.781Z" transform="translate(-2018.2 -550.3)"/>
    </g>
    <g id="triangle36_116_" transform="translate(1319.054 534.937)">
      <path id="Path_55" data-name="Path 55" class="cls-2" d="M1509.786,536.7l-.7,2.392-44.454,158.976-1.594-.5L1506.9,540.986,1324.4,685.709l-1-1.2Z" transform="translate(-1323.4 -536.7)"/>
    </g>
    <g id="triangle36_115_" transform="translate(1267.623 536.133)">
      <path id="Path_56" data-name="Path 56" class="cls-2" d="M1510.613,537.9,1323.43,686.311l-.4-1L1271.8,550.758ZM1324.127,683.819l181.6-144.026-231.736,12.459Z" transform="translate(-1271.8 -537.9)"/>
    </g>
    <g id="triangle36_114_" transform="translate(1152.004 548.991)">
      <path id="Path_57" data-name="Path 57" class="cls-2" d="M1155.8,550.8h117.214l.2.5,51.929,136.251-2.292-1.794Zm116.217,1.595H1160.385l161.269,130.271Z" transform="translate(-1155.8 -550.8)"/>
    </g>
    <g id="triangle36_113_" transform="translate(937.511 548.692)">
      <path id="Path_58" data-name="Path 58" class="cls-2" d="M1157.286,550.5l.6.5,165.255,133.56-1,1.2L1157.386,552.693,941.8,768.382l-1.2-1.2Z" transform="translate(-940.6 -550.5)"/>
    </g>
    <path id="Path_59" data-name="Path 59" class="cls-2" d="M1881.9,475.068a9.768,9.768,0,1,1,9.768,9.768A9.783,9.783,0,0,1,1881.9,475.068Z" transform="translate(-6.181 -1.528)"/>
    <path id="Path_60" data-name="Path 60" class="cls-2" d="M1716,532.468a9.768,9.768,0,1,1,9.768,9.768A9.784,9.784,0,0,1,1716,532.468Z" transform="translate(-5.636 -1.717)"/>
    <path id="Path_61" data-name="Path 61" class="cls-2" d="M1773.4,468.668a9.768,9.768,0,1,1,9.768,9.768A9.784,9.784,0,0,1,1773.4,468.668Z" transform="translate(-5.824 -1.507)"/>
    <path id="Path_62" data-name="Path 62" class="cls-2" d="M1754.3,679.168a9.768,9.768,0,1,1,9.768,9.768A9.784,9.784,0,0,1,1754.3,679.168Z" transform="translate(-5.761 -2.198)"/>
    <path id="Path_63" data-name="Path 63" class="cls-2" d="M1881.9,475.068a9.768,9.768,0,1,1,9.768,9.768A9.783,9.783,0,0,1,1881.9,475.068Z" transform="translate(-6.181 -1.528)"/>
    <path id="Path_64" data-name="Path 64" class="cls-2" d="M1716,532.468a9.768,9.768,0,1,1,9.768,9.768A9.784,9.784,0,0,1,1716,532.468Z" transform="translate(-5.636 -1.717)"/>
    <path id="Path_65" data-name="Path 65" class="cls-2" d="M1754.3,679.168a9.768,9.768,0,1,1,9.768,9.768A9.784,9.784,0,0,1,1754.3,679.168Z" transform="translate(-5.761 -2.198)"/>
    <path id="Path_66" data-name="Path 66" class="cls-2" d="M1990.3,321.968a9.768,9.768,0,1,1,9.768,9.768A9.784,9.784,0,0,1,1990.3,321.968Z" transform="translate(-6.537 -1.025)"/>
    <path id="Path_67" data-name="Path 67" class="cls-2" d="M2047.7,551.568a9.768,9.768,0,1,1,9.768,9.768A9.658,9.658,0,0,1,2047.7,551.568Z" transform="translate(-6.725 -1.779)"/>
    <path id="Path_68" data-name="Path 68" class="cls-2" d="M1881.9,475.068a9.768,9.768,0,1,1,9.768,9.768A9.783,9.783,0,0,1,1881.9,475.068Z" transform="translate(-6.181 -1.528)"/>
    <path id="Path_69" data-name="Path 69" class="cls-2" d="M1990.3,321.968a9.768,9.768,0,1,1,9.768,9.768A9.784,9.784,0,0,1,1990.3,321.968Z" transform="translate(-6.537 -1.025)"/>
    <path id="Path_70" data-name="Path 70" class="cls-2" d="M1990.3,321.968a9.768,9.768,0,1,1,9.768,9.768A9.784,9.784,0,0,1,1990.3,321.968Z" transform="translate(-6.537 -1.025)"/>
    <path id="Path_71" data-name="Path 71" class="cls-2" d="M2143.4,436.768a9.768,9.768,0,1,1,9.768,9.768A9.784,9.784,0,0,1,2143.4,436.768Z" transform="translate(-7.039 -1.402)"/>
    <path id="Path_72" data-name="Path 72" class="cls-2" d="M2047.7,551.568a9.768,9.768,0,1,1,9.768,9.768A9.658,9.658,0,0,1,2047.7,551.568Z" transform="translate(-6.725 -1.779)"/>
    <path id="Path_73" data-name="Path 73" class="cls-2" d="M1990.3,321.968a9.768,9.768,0,1,1,9.768,9.768A9.784,9.784,0,0,1,1990.3,321.968Z" transform="translate(-6.537 -1.025)"/>
    <path id="Path_74" data-name="Path 74" class="cls-2" d="M1243.9,283.668a9.768,9.768,0,1,1,9.768,9.768A9.784,9.784,0,0,1,1243.9,283.668Z" transform="translate(-4.085 -0.9)"/>
    <path id="Path_75" data-name="Path 75" class="cls-2" d="M1148.2,551.568a9.768,9.768,0,1,1,9.768,9.768A9.784,9.784,0,0,1,1148.2,551.568Z" transform="translate(-3.771 -1.779)"/>
    <path id="Path_76" data-name="Path 76" class="cls-2" d="M2047.7,187.968a9.768,9.768,0,1,1,9.768,9.768A9.784,9.784,0,0,1,2047.7,187.968Z" transform="translate(-6.725 -0.585)"/>
    <path id="Path_77" data-name="Path 77" class="cls-2" d="M2143.4,436.768a9.768,9.768,0,1,1,9.768,9.768A9.784,9.784,0,0,1,2143.4,436.768Z" transform="translate(-7.039 -1.402)"/>
    <path id="Path_78" data-name="Path 78" class="cls-2" d="M2156.2,136.968a9.768,9.768,0,1,1,9.768,9.768A9.784,9.784,0,0,1,2156.2,136.968Z" transform="translate(-7.081 -0.418)"/>
    <path id="Path_79" data-name="Path 79" class="cls-2" d="M1990.3,321.968a9.768,9.768,0,1,1,9.768,9.768A9.784,9.784,0,0,1,1990.3,321.968Z" transform="translate(-6.537 -1.025)"/>
    <path id="Path_80" data-name="Path 80" class="cls-2" d="M2143.4,436.768a9.768,9.768,0,1,1,9.768,9.768A9.784,9.784,0,0,1,2143.4,436.768Z" transform="translate(-7.039 -1.402)"/>
    <path id="Path_81" data-name="Path 81" class="cls-2" d="M2047.7,187.968a9.768,9.768,0,1,1,9.768,9.768A9.784,9.784,0,0,1,2047.7,187.968Z" transform="translate(-6.725 -0.585)"/>
    <path id="Path_82" data-name="Path 82" class="cls-2" d="M1773.4,379.368a9.768,9.768,0,1,1,9.768,9.768A9.784,9.784,0,0,1,1773.4,379.368Z" transform="translate(-5.824 -1.214)"/>
    <path id="Path_83" data-name="Path 83" class="cls-2" d="M1773.4,468.668a9.768,9.768,0,1,1,9.768,9.768A9.784,9.784,0,0,1,1773.4,468.668Z" transform="translate(-5.824 -1.507)"/>
    <path id="Path_84" data-name="Path 84" class="cls-2" d="M1881.9,475.068a9.768,9.768,0,1,1,9.768,9.768A9.783,9.783,0,0,1,1881.9,475.068Z" transform="translate(-6.181 -1.528)"/>
    <path id="Path_85" data-name="Path 85" class="cls-2" d="M1773.4,379.368a9.768,9.768,0,1,1,9.768,9.768A9.784,9.784,0,0,1,1773.4,379.368Z" transform="translate(-5.824 -1.214)"/>
    <path id="Path_86" data-name="Path 86" class="cls-2" d="M931.4,768.468a9.768,9.768,0,1,1,9.768,9.768A9.783,9.783,0,0,1,931.4,768.468Z" transform="translate(-3.059 -2.492)"/>
    <path id="Path_87" data-name="Path 87" class="cls-2" d="M1148.2,551.568a9.768,9.768,0,1,1,9.768,9.768A9.784,9.784,0,0,1,1148.2,551.568Z" transform="translate(-3.771 -1.779)"/>
    <path id="Path_88" data-name="Path 88" class="cls-2" d="M759.1,551.568a9.768,9.768,0,1,1,9.768,9.768A9.658,9.658,0,0,1,759.1,551.568Z" transform="translate(-2.493 -1.779)"/>
    <path id="Path_89" data-name="Path 89" class="cls-2" d="M931.4,768.468a9.768,9.768,0,1,1,9.768,9.768A9.783,9.783,0,0,1,931.4,768.468Z" transform="translate(-3.059 -2.492)"/>
    <path id="Path_90" data-name="Path 90" class="cls-2" d="M2366.7,213.468a9.767,9.767,0,1,1,9.768,9.768A9.658,9.658,0,0,1,2366.7,213.468Z" transform="translate(-7.773 -0.669)"/>
    <path id="Path_91" data-name="Path 91" class="cls-2" d="M2143.4,436.768a9.768,9.768,0,1,1,9.768,9.768A9.784,9.784,0,0,1,2143.4,436.768Z" transform="translate(-7.039 -1.402)"/>
    <path id="Path_92" data-name="Path 92" class="cls-2" d="M2156.2,136.968a9.768,9.768,0,1,1,9.768,9.768A9.784,9.784,0,0,1,2156.2,136.968Z" transform="translate(-7.081 -0.418)"/>
    <path id="Path_93" data-name="Path 93" class="cls-2" d="M2143.4,436.768a9.768,9.768,0,1,1,9.768,9.768A9.784,9.784,0,0,1,2143.4,436.768Z" transform="translate(-7.039 -1.402)"/>
    <path id="Path_94" data-name="Path 94" class="cls-2" d="M2366.7,213.468a9.767,9.767,0,1,1,9.768,9.768A9.658,9.658,0,0,1,2366.7,213.468Z" transform="translate(-7.773 -0.669)"/>
    <path id="Path_95" data-name="Path 95" class="cls-2" d="M2532.5,583.468a9.768,9.768,0,1,1,9.768,9.768A9.784,9.784,0,0,1,2532.5,583.468Z" transform="translate(-8.317 -1.884)"/>
    <path id="Path_96" data-name="Path 96" class="cls-2" d="M2143.4,436.768a9.768,9.768,0,1,1,9.768,9.768A9.784,9.784,0,0,1,2143.4,436.768Z" transform="translate(-7.039 -1.402)"/>
    <path id="Path_97" data-name="Path 97" class="cls-2" d="M2328.4,704.668a9.768,9.768,0,1,1,9.768,9.768A9.784,9.784,0,0,1,2328.4,704.668Z" transform="translate(-7.647 -2.282)"/>
    <path id="Path_98" data-name="Path 98" class="cls-2" d="M1550.1,302.768a9.768,9.768,0,1,1,9.768,9.768A9.658,9.658,0,0,1,1550.1,302.768Z" transform="translate(-5.091 -0.962)"/>
    <path id="Path_99" data-name="Path 99" class="cls-2" d="M1499.1,538.868a9.768,9.768,0,1,1,9.768,9.768A9.784,9.784,0,0,1,1499.1,538.868Z" transform="translate(-4.923 -1.738)"/>
    <path id="Path_100" data-name="Path 100" class="cls-2" d="M1626.7,462.268a9.768,9.768,0,1,1,9.768,9.768A9.784,9.784,0,0,1,1626.7,462.268Z" transform="translate(-5.342 -1.486)"/>
    <path id="Path_101" data-name="Path 101" class="cls-2" d="M1384.3,283.668a9.768,9.768,0,1,1,9.768,9.768A9.784,9.784,0,0,1,1384.3,283.668Z" transform="translate(-4.546 -0.9)"/>
    <path id="Path_102" data-name="Path 102" class="cls-2" d="M1499.1,538.868a9.768,9.768,0,1,1,9.768,9.768A9.784,9.784,0,0,1,1499.1,538.868Z" transform="translate(-4.923 -1.738)"/>
    <path id="Path_103" data-name="Path 103" class="cls-2" d="M1550.1,302.768a9.768,9.768,0,1,1,9.768,9.768A9.658,9.658,0,0,1,1550.1,302.768Z" transform="translate(-5.091 -0.962)"/>
    <path id="Path_104" data-name="Path 104" class="cls-2" d="M6.4,481.368a9.768,9.768,0,1,1,9.768,9.768A9.658,9.658,0,0,1,6.4,481.368Z" transform="translate(-0.021 -1.549)"/>
    <path id="Path_105" data-name="Path 105" class="cls-2" d="M382.7,500.568a9.768,9.768,0,1,1,9.768,9.768A9.784,9.784,0,0,1,382.7,500.568Z" transform="translate(-1.257 -1.612)"/>
    <path id="Path_106" data-name="Path 106" class="cls-2" d="M108.4,360.168a9.768,9.768,0,1,1,9.768,9.768A9.784,9.784,0,0,1,108.4,360.168Z" transform="translate(-0.356 -1.151)"/>
    <path id="Path_107" data-name="Path 107" class="cls-2" d="M6.4,481.368a9.768,9.768,0,1,1,9.768,9.768A9.658,9.658,0,0,1,6.4,481.368Z" transform="translate(-0.021 -1.549)"/>
    <path id="Path_108" data-name="Path 108" class="cls-2" d="M1384.3,283.668a9.768,9.768,0,1,1,9.768,9.768A9.784,9.784,0,0,1,1384.3,283.668Z" transform="translate(-4.546 -0.9)"/>
    <path id="Path_109" data-name="Path 109" class="cls-2" d="M1499.1,538.868a9.768,9.768,0,1,1,9.768,9.768A9.784,9.784,0,0,1,1499.1,538.868Z" transform="translate(-4.923 -1.738)"/>
    <path id="Path_110" data-name="Path 110" class="cls-2" d="M1263.1,551.568a9.768,9.768,0,1,1,9.768,9.768A9.658,9.658,0,0,1,1263.1,551.568Z" transform="translate(-4.149 -1.779)"/>
    <path id="Path_111" data-name="Path 111" class="cls-2" d="M1384.3,283.668a9.768,9.768,0,1,1,9.768,9.768A9.784,9.784,0,0,1,1384.3,283.668Z" transform="translate(-4.546 -0.9)"/>
    <path id="Path_112" data-name="Path 112" class="cls-2" d="M1384.3,283.668a9.768,9.768,0,1,1,9.768,9.768A9.784,9.784,0,0,1,1384.3,283.668Z" transform="translate(-4.546 -0.9)"/>
    <path id="Path_113" data-name="Path 113" class="cls-2" d="M1263.1,551.568a9.768,9.768,0,1,1,9.768,9.768A9.658,9.658,0,0,1,1263.1,551.568Z" transform="translate(-4.149 -1.779)"/>
    <path id="Path_114" data-name="Path 114" class="cls-2" d="M1243.9,283.668a9.768,9.768,0,1,1,9.768,9.768A9.784,9.784,0,0,1,1243.9,283.668Z" transform="translate(-4.085 -0.9)"/>
    <path id="Path_115" data-name="Path 115" class="cls-2" d="M1243.9,283.668a9.768,9.768,0,1,1,9.768,9.768A9.784,9.784,0,0,1,1243.9,283.668Z" transform="translate(-4.085 -0.9)"/>
    <path id="Path_116" data-name="Path 116" class="cls-2" d="M1263.1,551.568a9.768,9.768,0,1,1,9.768,9.768A9.658,9.658,0,0,1,1263.1,551.568Z" transform="translate(-4.149 -1.779)"/>
    <path id="Path_117" data-name="Path 117" class="cls-2" d="M1148.2,551.568a9.768,9.768,0,1,1,9.768,9.768A9.784,9.784,0,0,1,1148.2,551.568Z" transform="translate(-3.771 -1.779)"/>
    <path id="Path_118" data-name="Path 118" class="cls-2" d="M1243.9,283.668a9.768,9.768,0,1,1,9.768,9.768A9.784,9.784,0,0,1,1243.9,283.668Z" transform="translate(-4.085 -0.9)"/>
    <path id="Path_119" data-name="Path 119" class="cls-2" d="M1518.2,660.068a9.768,9.768,0,1,1,9.768,9.768A9.784,9.784,0,0,1,1518.2,660.068Z" transform="translate(-4.986 -2.136)"/>
    <path id="Path_120" data-name="Path 120" class="cls-2" d="M1716,532.468a9.768,9.768,0,1,1,9.768,9.768A9.784,9.784,0,0,1,1716,532.468Z" transform="translate(-5.636 -1.717)"/>
    <path id="Path_121" data-name="Path 121" class="cls-2" d="M1754.3,679.168a9.768,9.768,0,1,1,9.768,9.768A9.784,9.784,0,0,1,1754.3,679.168Z" transform="translate(-5.761 -2.198)"/>
    <path id="Path_122" data-name="Path 122" class="cls-2" d="M1518.2,660.068a9.768,9.768,0,1,1,9.768,9.768A9.784,9.784,0,0,1,1518.2,660.068Z" transform="translate(-4.986 -2.136)"/>
    <path id="Path_123" data-name="Path 123" class="cls-2" d="M1499.1,538.868a9.768,9.768,0,1,1,9.768,9.768A9.784,9.784,0,0,1,1499.1,538.868Z" transform="translate(-4.923 -1.738)"/>
    <path id="Path_124" data-name="Path 124" class="cls-2" d="M1716,532.468a9.768,9.768,0,1,1,9.768,9.768A9.784,9.784,0,0,1,1716,532.468Z" transform="translate(-5.636 -1.717)"/>
    <path id="Path_125" data-name="Path 125" class="cls-2" d="M1518.2,660.068a9.768,9.768,0,1,1,9.768,9.768A9.784,9.784,0,0,1,1518.2,660.068Z" transform="translate(-4.986 -2.136)"/>
    <path id="Path_126" data-name="Path 126" class="cls-2" d="M38.3,232.668a9.768,9.768,0,1,1,9.768,9.768A9.784,9.784,0,0,1,38.3,232.668Z" transform="translate(-0.126 -0.732)"/>
    <path id="Path_127" data-name="Path 127" class="cls-2" d="M108.4,360.168a9.768,9.768,0,1,1,9.768,9.768A9.784,9.784,0,0,1,108.4,360.168Z" transform="translate(-0.356 -1.151)"/>
    <path id="Path_128" data-name="Path 128" class="cls-2" d="M0,296.368a9.768,9.768,0,1,1,9.768,9.768A9.658,9.658,0,0,1,0,296.368Z" transform="translate(0 -0.941)"/>
    <path id="Path_129" data-name="Path 129" class="cls-2" d="M6.4,481.368a9.768,9.768,0,1,1,9.768,9.768A9.658,9.658,0,0,1,6.4,481.368Z" transform="translate(-0.021 -1.549)"/>
    <path id="Path_130" data-name="Path 130" class="cls-2" d="M108.4,360.168a9.768,9.768,0,1,1,9.768,9.768A9.784,9.784,0,0,1,108.4,360.168Z" transform="translate(-0.356 -1.151)"/>
    <path id="Path_131" data-name="Path 131" class="cls-2" d="M0,296.368a9.768,9.768,0,1,1,9.768,9.768A9.658,9.658,0,0,1,0,296.368Z" transform="translate(0 -0.941)"/>
    <path id="Path_132" data-name="Path 132" class="cls-2" d="M376.4,832.268a9.768,9.768,0,1,1,9.768,9.768A9.784,9.784,0,0,1,376.4,832.268Z" transform="translate(-1.236 -2.701)"/>
    <path id="Path_133" data-name="Path 133" class="cls-2" d="M382.7,500.568a9.768,9.768,0,1,1,9.768,9.768A9.784,9.784,0,0,1,382.7,500.568Z" transform="translate(-1.257 -1.612)"/>
    <path id="Path_134" data-name="Path 134" class="cls-2" d="M695.3,602.568a9.768,9.768,0,1,1,9.768,9.768A9.658,9.658,0,0,1,695.3,602.568Z" transform="translate(-2.284 -1.947)"/>
    <path id="Path_135" data-name="Path 135" class="cls-2" d="M229.7,845.068a9.768,9.768,0,1,1,9.768,9.768A9.784,9.784,0,0,1,229.7,845.068Z" transform="translate(-0.754 -2.743)"/>
    <path id="Path_136" data-name="Path 136" class="cls-2" d="M382.7,500.568a9.768,9.768,0,1,1,9.768,9.768A9.784,9.784,0,0,1,382.7,500.568Z" transform="translate(-1.257 -1.612)"/>
    <path id="Path_137" data-name="Path 137" class="cls-2" d="M376.4,832.268a9.768,9.768,0,1,1,9.768,9.768A9.784,9.784,0,0,1,376.4,832.268Z" transform="translate(-1.236 -2.701)"/>
    <path id="Path_138" data-name="Path 138" class="cls-2" d="M1148.2,551.568a9.768,9.768,0,1,1,9.768,9.768A9.784,9.784,0,0,1,1148.2,551.568Z" transform="translate(-3.771 -1.779)"/>
    <path id="Path_139" data-name="Path 139" class="cls-2" d="M746.4,353.868a9.768,9.768,0,1,1,9.768,9.768A9.784,9.784,0,0,1,746.4,353.868Z" transform="translate(-2.451 -1.13)"/>
    <path id="Path_140" data-name="Path 140" class="cls-2" d="M746.4,353.868a9.768,9.768,0,1,1,9.768,9.768A9.784,9.784,0,0,1,746.4,353.868Z" transform="translate(-2.451 -1.13)"/>
    <path id="Path_141" data-name="Path 141" class="cls-2" d="M759.1,551.568a9.768,9.768,0,1,1,9.768,9.768A9.658,9.658,0,0,1,759.1,551.568Z" transform="translate(-2.493 -1.779)"/>
    <path id="Path_142" data-name="Path 142" class="cls-2" d="M1148.2,551.568a9.768,9.768,0,1,1,9.768,9.768A9.784,9.784,0,0,1,1148.2,551.568Z" transform="translate(-3.771 -1.779)"/>
    <path id="Path_143" data-name="Path 143" class="cls-2" d="M746.4,353.868a9.768,9.768,0,1,1,9.768,9.768A9.784,9.784,0,0,1,746.4,353.868Z" transform="translate(-2.451 -1.13)"/>
    <path id="Path_144" data-name="Path 144" class="cls-2" d="M746.4,353.868a9.768,9.768,0,1,1,9.768,9.768A9.784,9.784,0,0,1,746.4,353.868Z" transform="translate(-2.451 -1.13)"/>
    <path id="Path_145" data-name="Path 145" class="cls-2" d="M492.8,9.768a9.768,9.768,0,1,1,9.768,9.768A9.658,9.658,0,0,1,492.8,9.768Z" transform="translate(-1.618)"/>
    <path id="Path_146" data-name="Path 146" class="cls-2" d="M695.3,602.568a9.768,9.768,0,1,1,9.768,9.768A9.658,9.658,0,0,1,695.3,602.568Z" transform="translate(-2.284 -1.947)"/>
    <path id="Path_147" data-name="Path 147" class="cls-2" d="M759.1,551.568a9.768,9.768,0,1,1,9.768,9.768A9.658,9.658,0,0,1,759.1,551.568Z" transform="translate(-2.493 -1.779)"/>
    <path id="Path_148" data-name="Path 148" class="cls-2" d="M746.4,353.868a9.768,9.768,0,1,1,9.768,9.768A9.784,9.784,0,0,1,746.4,353.868Z" transform="translate(-2.451 -1.13)"/>
    <path id="Path_149" data-name="Path 149" class="cls-2" d="M695.3,602.568a9.768,9.768,0,1,1,9.768,9.768A9.658,9.658,0,0,1,695.3,602.568Z" transform="translate(-2.284 -1.947)"/>
    <path id="Path_150" data-name="Path 150" class="cls-2" d="M695.3,602.568a9.768,9.768,0,1,1,9.768,9.768A9.658,9.658,0,0,1,695.3,602.568Z" transform="translate(-2.284 -1.947)"/>
    <path id="Path_151" data-name="Path 151" class="cls-2" d="M746.4,353.868a9.768,9.768,0,1,1,9.768,9.768A9.784,9.784,0,0,1,746.4,353.868Z" transform="translate(-2.451 -1.13)"/>
    <path id="Path_152" data-name="Path 152" class="cls-2" d="M382.7,500.568a9.768,9.768,0,1,1,9.768,9.768A9.784,9.784,0,0,1,382.7,500.568Z" transform="translate(-1.257 -1.612)"/>
    <path id="Path_153" data-name="Path 153" class="cls-2" d="M695.3,602.568a9.768,9.768,0,1,1,9.768,9.768A9.658,9.658,0,0,1,695.3,602.568Z" transform="translate(-2.284 -1.947)"/>
    <path id="Path_154" data-name="Path 154" class="cls-2" d="M492.8,9.768a9.768,9.768,0,1,1,9.768,9.768A9.658,9.658,0,0,1,492.8,9.768Z" transform="translate(-1.618)"/>
    <path id="Path_155" data-name="Path 155" class="cls-2" d="M746.4,353.868a9.768,9.768,0,1,1,9.768,9.768A9.784,9.784,0,0,1,746.4,353.868Z" transform="translate(-2.451 -1.13)"/>
    <path id="Path_156" data-name="Path 156" class="cls-2" d="M242.4,207.068a9.768,9.768,0,1,1,9.768,9.768A9.658,9.658,0,0,1,242.4,207.068Z" transform="translate(-0.796 -0.648)"/>
    <path id="Path_157" data-name="Path 157" class="cls-2" d="M242.4,207.068a9.768,9.768,0,1,1,9.768,9.768A9.658,9.658,0,0,1,242.4,207.068Z" transform="translate(-0.796 -0.648)"/>
    <path id="Path_158" data-name="Path 158" class="cls-2" d="M382.7,500.568a9.768,9.768,0,1,1,9.768,9.768A9.784,9.784,0,0,1,382.7,500.568Z" transform="translate(-1.257 -1.612)"/>
    <path id="Path_159" data-name="Path 159" class="cls-2" d="M746.4,353.868a9.768,9.768,0,1,1,9.768,9.768A9.784,9.784,0,0,1,746.4,353.868Z" transform="translate(-2.451 -1.13)"/>
    <path id="Path_160" data-name="Path 160" class="cls-2" d="M242.4,207.068a9.768,9.768,0,1,1,9.768,9.768A9.658,9.658,0,0,1,242.4,207.068Z" transform="translate(-0.796 -0.648)"/>
    <path id="Path_161" data-name="Path 161" class="cls-2" d="M242.4,207.068a9.768,9.768,0,1,1,9.768,9.768A9.658,9.658,0,0,1,242.4,207.068Z" transform="translate(-0.796 -0.648)"/>
    <path id="Path_162" data-name="Path 162" class="cls-2" d="M108.4,360.168a9.768,9.768,0,1,1,9.768,9.768A9.784,9.784,0,0,1,108.4,360.168Z" transform="translate(-0.356 -1.151)"/>
    <path id="Path_163" data-name="Path 163" class="cls-2" d="M382.7,500.568a9.768,9.768,0,1,1,9.768,9.768A9.784,9.784,0,0,1,382.7,500.568Z" transform="translate(-1.257 -1.612)"/>
    <path id="Path_164" data-name="Path 164" class="cls-2" d="M242.4,207.068a9.768,9.768,0,1,1,9.768,9.768A9.658,9.658,0,0,1,242.4,207.068Z" transform="translate(-0.796 -0.648)"/>
    <path id="Path_165" data-name="Path 165" class="cls-2" d="M38.3,232.668a9.768,9.768,0,1,1,9.768,9.768A9.784,9.784,0,0,1,38.3,232.668Z" transform="translate(-0.126 -0.732)"/>
    <path id="Path_166" data-name="Path 166" class="cls-2" d="M108.4,360.168a9.768,9.768,0,1,1,9.768,9.768A9.784,9.784,0,0,1,108.4,360.168Z" transform="translate(-0.356 -1.151)"/>
    <path id="Path_167" data-name="Path 167" class="cls-2" d="M242.4,207.068a9.768,9.768,0,1,1,9.768,9.768A9.658,9.658,0,0,1,242.4,207.068Z" transform="translate(-0.796 -0.648)"/>
    <path id="Path_168" data-name="Path 168" class="cls-2" d="M1454.5,698.268a9.768,9.768,0,1,1,9.768,9.768A9.658,9.658,0,0,1,1454.5,698.268Z" transform="translate(-4.777 -2.261)"/>
    <path id="Path_169" data-name="Path 169" class="cls-2" d="M1499.1,538.868a9.768,9.768,0,1,1,9.768,9.768A9.784,9.784,0,0,1,1499.1,538.868Z" transform="translate(-4.923 -1.738)"/>
    <path id="Path_170" data-name="Path 170" class="cls-2" d="M1518.2,660.068a9.768,9.768,0,1,1,9.768,9.768A9.784,9.784,0,0,1,1518.2,660.068Z" transform="translate(-4.986 -2.136)"/>
    <path id="Path_171" data-name="Path 171" class="cls-2" d="M733.6,717.468a9.768,9.768,0,1,1,9.768,9.768A9.784,9.784,0,0,1,733.6,717.468Z" transform="translate(-2.409 -2.324)"/>
    <path id="Path_172" data-name="Path 172" class="cls-2" d="M759.1,551.568a9.768,9.768,0,1,1,9.768,9.768A9.658,9.658,0,0,1,759.1,551.568Z" transform="translate(-2.493 -1.779)"/>
    <path id="Path_173" data-name="Path 173" class="cls-2" d="M931.4,768.468a9.768,9.768,0,1,1,9.768,9.768A9.783,9.783,0,0,1,931.4,768.468Z" transform="translate(-3.059 -2.492)"/>
    <path id="Path_174" data-name="Path 174" class="cls-2" d="M695.3,602.568a9.768,9.768,0,1,1,9.768,9.768A9.658,9.658,0,0,1,695.3,602.568Z" transform="translate(-2.284 -1.947)"/>
    <path id="Path_175" data-name="Path 175" class="cls-2" d="M759.1,551.568a9.768,9.768,0,1,1,9.768,9.768A9.658,9.658,0,0,1,759.1,551.568Z" transform="translate(-2.493 -1.779)"/>
    <path id="Path_176" data-name="Path 176" class="cls-2" d="M733.6,717.468a9.768,9.768,0,1,1,9.768,9.768A9.784,9.784,0,0,1,733.6,717.468Z" transform="translate(-2.409 -2.324)"/>
    <path id="Path_177" data-name="Path 177" class="cls-2" d="M1773.4,379.368a9.768,9.768,0,1,1,9.768,9.768A9.784,9.784,0,0,1,1773.4,379.368Z" transform="translate(-5.824 -1.214)"/>
    <path id="Path_178" data-name="Path 178" class="cls-2" d="M1773.4,468.668a9.768,9.768,0,1,1,9.768,9.768A9.784,9.784,0,0,1,1773.4,468.668Z" transform="translate(-5.824 -1.507)"/>
    <path id="Path_179" data-name="Path 179" class="cls-2" d="M1671.3,481.368a9.768,9.768,0,1,1,9.768,9.768A9.784,9.784,0,0,1,1671.3,481.368Z" transform="translate(-5.489 -1.549)"/>
    <path id="Path_180" data-name="Path 180" class="cls-2" d="M1671.3,481.368a9.768,9.768,0,1,1,9.768,9.768A9.784,9.784,0,0,1,1671.3,481.368Z" transform="translate(-5.489 -1.549)"/>
    <path id="Path_181" data-name="Path 181" class="cls-2" d="M1716,532.468a9.768,9.768,0,1,1,9.768,9.768A9.784,9.784,0,0,1,1716,532.468Z" transform="translate(-5.636 -1.717)"/>
    <path id="Path_182" data-name="Path 182" class="cls-2" d="M1773.4,468.668a9.768,9.768,0,1,1,9.768,9.768A9.784,9.784,0,0,1,1773.4,468.668Z" transform="translate(-5.824 -1.507)"/>
    <path id="Path_183" data-name="Path 183" class="cls-2" d="M1671.3,481.368a9.768,9.768,0,1,1,9.768,9.768A9.784,9.784,0,0,1,1671.3,481.368Z" transform="translate(-5.489 -1.549)"/>
    <path id="Path_184" data-name="Path 184" class="cls-2" d="M1671.3,481.368a9.768,9.768,0,1,1,9.768,9.768A9.784,9.784,0,0,1,1671.3,481.368Z" transform="translate(-5.489 -1.549)"/>
    <path id="Path_185" data-name="Path 185" class="cls-2" d="M1499.1,538.868a9.768,9.768,0,1,1,9.768,9.768A9.784,9.784,0,0,1,1499.1,538.868Z" transform="translate(-4.923 -1.738)"/>
    <path id="Path_186" data-name="Path 186" class="cls-2" d="M1716,532.468a9.768,9.768,0,1,1,9.768,9.768A9.784,9.784,0,0,1,1716,532.468Z" transform="translate(-5.636 -1.717)"/>
    <path id="Path_187" data-name="Path 187" class="cls-2" d="M1671.3,481.368a9.768,9.768,0,1,1,9.768,9.768A9.784,9.784,0,0,1,1671.3,481.368Z" transform="translate(-5.489 -1.549)"/>
    <path id="Path_188" data-name="Path 188" class="cls-2" d="M1671.3,481.368a9.768,9.768,0,1,1,9.768,9.768A9.784,9.784,0,0,1,1671.3,481.368Z" transform="translate(-5.489 -1.549)"/>
    <path id="Path_189" data-name="Path 189" class="cls-2" d="M1499.1,538.868a9.768,9.768,0,1,1,9.768,9.768A9.784,9.784,0,0,1,1499.1,538.868Z" transform="translate(-4.923 -1.738)"/>
    <path id="Path_190" data-name="Path 190" class="cls-2" d="M1626.7,462.268a9.768,9.768,0,1,1,9.768,9.768A9.784,9.784,0,0,1,1626.7,462.268Z" transform="translate(-5.342 -1.486)"/>
    <path id="Path_191" data-name="Path 191" class="cls-2" d="M2328.4,704.668a9.768,9.768,0,1,1,9.768,9.768A9.784,9.784,0,0,1,2328.4,704.668Z" transform="translate(-7.647 -2.282)"/>
    <path id="Path_192" data-name="Path 192" class="cls-2" d="M2175.3,640.868a9.767,9.767,0,1,1,9.768,9.768A9.658,9.658,0,0,1,2175.3,640.868Z" transform="translate(-7.144 -2.073)"/>
    <path id="Path_193" data-name="Path 193" class="cls-2" d="M2232.7,762.068a9.768,9.768,0,1,1,9.769,9.768A9.658,9.658,0,0,1,2232.7,762.068Z" transform="translate(-7.332 -2.471)"/>
    <path id="Path_194" data-name="Path 194" class="cls-2" d="M2328.4,704.668a9.768,9.768,0,1,1,9.768,9.768A9.784,9.784,0,0,1,2328.4,704.668Z" transform="translate(-7.647 -2.282)"/>
    <path id="Path_195" data-name="Path 195" class="cls-2" d="M2175.3,640.868a9.767,9.767,0,1,1,9.768,9.768A9.658,9.658,0,0,1,2175.3,640.868Z" transform="translate(-7.144 -2.073)"/>
    <path id="Path_196" data-name="Path 196" class="cls-2" d="M2143.4,436.768a9.768,9.768,0,1,1,9.768,9.768A9.784,9.784,0,0,1,2143.4,436.768Z" transform="translate(-7.039 -1.402)"/>
    <path id="Path_197" data-name="Path 197" class="cls-2" d="M2328.4,704.668a9.768,9.768,0,1,1,9.768,9.768A9.784,9.784,0,0,1,2328.4,704.668Z" transform="translate(-7.647 -2.282)"/>
    <path id="Path_198" data-name="Path 198" class="cls-2" d="M2175.3,640.868a9.767,9.767,0,1,1,9.768,9.768A9.658,9.658,0,0,1,2175.3,640.868Z" transform="translate(-7.144 -2.073)"/>
    <path id="Path_199" data-name="Path 199" class="cls-2" d="M2047.7,551.568a9.768,9.768,0,1,1,9.768,9.768A9.658,9.658,0,0,1,2047.7,551.568Z" transform="translate(-6.725 -1.779)"/>
    <path id="Path_200" data-name="Path 200" class="cls-2" d="M2143.4,436.768a9.768,9.768,0,1,1,9.768,9.768A9.784,9.784,0,0,1,2143.4,436.768Z" transform="translate(-7.039 -1.402)"/>
    <path id="Path_201" data-name="Path 201" class="cls-2" d="M229.7,845.068a9.768,9.768,0,1,1,9.768,9.768A9.784,9.784,0,0,1,229.7,845.068Z" transform="translate(-0.754 -2.743)"/>
    <path id="Path_202" data-name="Path 202" class="cls-2" d="M382.7,500.568a9.768,9.768,0,1,1,9.768,9.768A9.784,9.784,0,0,1,382.7,500.568Z" transform="translate(-1.257 -1.612)"/>
    <path id="Path_203" data-name="Path 203" class="cls-2" d="M89.3,704.668a9.768,9.768,0,1,1,9.768,9.768A9.784,9.784,0,0,1,89.3,704.668Z" transform="translate(-0.293 -2.282)"/>
    <path id="Path_204" data-name="Path 204" class="cls-2" d="M6.4,481.368a9.768,9.768,0,1,1,9.768,9.768A9.658,9.658,0,0,1,6.4,481.368Z" transform="translate(-0.021 -1.549)"/>
    <path id="Path_205" data-name="Path 205" class="cls-2" d="M382.7,500.568a9.768,9.768,0,1,1,9.768,9.768A9.784,9.784,0,0,1,382.7,500.568Z" transform="translate(-1.257 -1.612)"/>
    <path id="Path_206" data-name="Path 206" class="cls-2" d="M89.3,704.668a9.768,9.768,0,1,1,9.768,9.768A9.784,9.784,0,0,1,89.3,704.668Z" transform="translate(-0.293 -2.282)"/>
    <path id="Path_207" data-name="Path 207" class="cls-2" d="M1843.6,270.868a9.768,9.768,0,1,1,9.767,9.768A9.657,9.657,0,0,1,1843.6,270.868Z" transform="translate(-6.055 -0.858)"/>
    <path id="Path_208" data-name="Path 208" class="cls-2" d="M1881.9,475.068a9.768,9.768,0,1,1,9.768,9.768A9.783,9.783,0,0,1,1881.9,475.068Z" transform="translate(-6.181 -1.528)"/>
    <path id="Path_209" data-name="Path 209" class="cls-2" d="M1990.3,321.968a9.768,9.768,0,1,1,9.768,9.768A9.784,9.784,0,0,1,1990.3,321.968Z" transform="translate(-6.537 -1.025)"/>
    <path id="Path_210" data-name="Path 210" class="cls-2" d="M1773.4,379.368a9.768,9.768,0,1,1,9.768,9.768A9.784,9.784,0,0,1,1773.4,379.368Z" transform="translate(-5.824 -1.214)"/>
    <path id="Path_211" data-name="Path 211" class="cls-2" d="M1881.9,475.068a9.768,9.768,0,1,1,9.768,9.768A9.783,9.783,0,0,1,1881.9,475.068Z" transform="translate(-6.181 -1.528)"/>
    <path id="Path_212" data-name="Path 212" class="cls-2" d="M1843.6,270.868a9.768,9.768,0,1,1,9.767,9.768A9.657,9.657,0,0,1,1843.6,270.868Z" transform="translate(-6.055 -0.858)"/>
    <path id="Path_213" data-name="Path 213" class="cls-2" d="M2009.4,742.968a9.768,9.768,0,1,1,9.768,9.768A9.783,9.783,0,0,1,2009.4,742.968Z" transform="translate(-6.599 -2.408)"/>
    <path id="Path_214" data-name="Path 214" class="cls-2" d="M1881.9,475.068a9.768,9.768,0,1,1,9.768,9.768A9.783,9.783,0,0,1,1881.9,475.068Z" transform="translate(-6.181 -1.528)"/>
    <path id="Path_215" data-name="Path 215" class="cls-2" d="M2047.7,551.568a9.768,9.768,0,1,1,9.768,9.768A9.658,9.658,0,0,1,2047.7,551.568Z" transform="translate(-6.725 -1.779)"/>
    <path id="Path_216" data-name="Path 216" class="cls-2" d="M2009.4,742.968a9.768,9.768,0,1,1,9.768,9.768A9.783,9.783,0,0,1,2009.4,742.968Z" transform="translate(-6.599 -2.408)"/>
    <path id="Path_217" data-name="Path 217" class="cls-2" d="M1754.3,679.168a9.768,9.768,0,1,1,9.768,9.768A9.784,9.784,0,0,1,1754.3,679.168Z" transform="translate(-5.761 -2.198)"/>
    <path id="Path_218" data-name="Path 218" class="cls-2" d="M1881.9,475.068a9.768,9.768,0,1,1,9.768,9.768A9.783,9.783,0,0,1,1881.9,475.068Z" transform="translate(-6.181 -1.528)"/>
    <path id="Path_219" data-name="Path 219" class="cls-2" d="M2009.4,742.968a9.768,9.768,0,1,1,9.768,9.768A9.783,9.783,0,0,1,2009.4,742.968Z" transform="translate(-6.599 -2.408)"/>
    <path id="Path_220" data-name="Path 220" class="cls-2" d="M2009.4,742.968a9.768,9.768,0,1,1,9.768,9.768A9.783,9.783,0,0,1,2009.4,742.968Z" transform="translate(-6.599 -2.408)"/>
    <path id="Path_221" data-name="Path 221" class="cls-2" d="M2175.3,640.868a9.767,9.767,0,1,1,9.768,9.768A9.658,9.658,0,0,1,2175.3,640.868Z" transform="translate(-7.144 -2.073)"/>
    <path id="Path_222" data-name="Path 222" class="cls-2" d="M2232.7,762.068a9.768,9.768,0,1,1,9.769,9.768A9.658,9.658,0,0,1,2232.7,762.068Z" transform="translate(-7.332 -2.471)"/>
    <path id="Path_223" data-name="Path 223" class="cls-2" d="M2009.4,742.968a9.768,9.768,0,1,1,9.768,9.768A9.783,9.783,0,0,1,2009.4,742.968Z" transform="translate(-6.599 -2.408)"/>
    <path id="Path_224" data-name="Path 224" class="cls-2" d="M2047.7,551.568a9.768,9.768,0,1,1,9.768,9.768A9.658,9.658,0,0,1,2047.7,551.568Z" transform="translate(-6.725 -1.779)"/>
    <path id="Path_225" data-name="Path 225" class="cls-2" d="M2175.3,640.868a9.767,9.767,0,1,1,9.768,9.768A9.658,9.658,0,0,1,2175.3,640.868Z" transform="translate(-7.144 -2.073)"/>
    <path id="Path_226" data-name="Path 226" class="cls-2" d="M2009.4,742.968a9.768,9.768,0,1,1,9.768,9.768A9.783,9.783,0,0,1,2009.4,742.968Z" transform="translate(-6.599 -2.408)"/>
    <path id="Path_227" data-name="Path 227" class="cls-2" d="M1454.5,698.268a9.768,9.768,0,1,1,9.768,9.768A9.658,9.658,0,0,1,1454.5,698.268Z" transform="translate(-4.777 -2.261)"/>
    <path id="Path_228" data-name="Path 228" class="cls-2" d="M1499.1,538.868a9.768,9.768,0,1,1,9.768,9.768A9.784,9.784,0,0,1,1499.1,538.868Z" transform="translate(-4.923 -1.738)"/>
    <path id="Path_229" data-name="Path 229" class="cls-2" d="M1314.1,685.568a9.768,9.768,0,1,1,9.768,9.768A9.784,9.784,0,0,1,1314.1,685.568Z" transform="translate(-4.316 -2.219)"/>
    <path id="Path_230" data-name="Path 230" class="cls-2" d="M1314.1,685.568a9.768,9.768,0,1,1,9.768,9.768A9.784,9.784,0,0,1,1314.1,685.568Z" transform="translate(-4.316 -2.219)"/>
    <path id="Path_231" data-name="Path 231" class="cls-2" d="M1263.1,551.568a9.768,9.768,0,1,1,9.768,9.768A9.658,9.658,0,0,1,1263.1,551.568Z" transform="translate(-4.149 -1.779)"/>
    <path id="Path_232" data-name="Path 232" class="cls-2" d="M1499.1,538.868a9.768,9.768,0,1,1,9.768,9.768A9.784,9.784,0,0,1,1499.1,538.868Z" transform="translate(-4.923 -1.738)"/>
    <path id="Path_233" data-name="Path 233" class="cls-2" d="M1314.1,685.568a9.768,9.768,0,1,1,9.768,9.768A9.784,9.784,0,0,1,1314.1,685.568Z" transform="translate(-4.316 -2.219)"/>
    <path id="Path_234" data-name="Path 234" class="cls-2" d="M1314.1,685.568a9.768,9.768,0,1,1,9.768,9.768A9.784,9.784,0,0,1,1314.1,685.568Z" transform="translate(-4.316 -2.219)"/>
    <path id="Path_235" data-name="Path 235" class="cls-2" d="M1148.2,551.568a9.768,9.768,0,1,1,9.768,9.768A9.784,9.784,0,0,1,1148.2,551.568Z" transform="translate(-3.771 -1.779)"/>
    <path id="Path_236" data-name="Path 236" class="cls-2" d="M1263.1,551.568a9.768,9.768,0,1,1,9.768,9.768A9.658,9.658,0,0,1,1263.1,551.568Z" transform="translate(-4.149 -1.779)"/>
    <path id="Path_237" data-name="Path 237" class="cls-2" d="M1314.1,685.568a9.768,9.768,0,1,1,9.768,9.768A9.784,9.784,0,0,1,1314.1,685.568Z" transform="translate(-4.316 -2.219)"/>
    <path id="Path_238" data-name="Path 238" class="cls-2" d="M931.4,768.468a9.768,9.768,0,1,1,9.768,9.768A9.783,9.783,0,0,1,931.4,768.468Z" transform="translate(-3.059 -2.492)"/>
    <path id="Path_239" data-name="Path 239" class="cls-2" d="M1148.2,551.568a9.768,9.768,0,1,1,9.768,9.768A9.784,9.784,0,0,1,1148.2,551.568Z" transform="translate(-3.771 -1.779)"/>
    <path id="Path_240" data-name="Path 240" class="cls-2" d="M1314.1,685.568a9.768,9.768,0,1,1,9.768,9.768A9.784,9.784,0,0,1,1314.1,685.568Z" transform="translate(-4.316 -2.219)"/>
  </g>
</svg>
