<svg xmlns="http://www.w3.org/2000/svg" viewBox="-5649.536 1567.767 781.971 421.148">
  <defs>
    <style>
      .cls-1 {
        fill: #003555;
      }

      .cls-2 {
        fill: #9dc2c7;
      }

      .cls-3 {
        fill: #fff;
      }

      .cls-4 {
        fill: #c35b00;
      }
    </style>
  </defs>
  <g id="Group_1504" data-name="Group 1504" transform="translate(-5649.536 1567.867)">
    <g id="Group_1401" data-name="Group 1401" transform="translate(99.368 275.46)">
      <path id="Path_1088" data-name="Path 1088" class="cls-1" d="M84.441,221.319a2.349,2.349,0,0,1-.882,2.015,3.761,3.761,0,0,1-2.519.756h-.756v3.149H78.9V218.8h2.393a4.172,4.172,0,0,1,2.393.63A2.21,2.21,0,0,1,84.441,221.319Zm-4.156,1.511h.756a2.188,2.188,0,0,0,1.511-.378,1.527,1.527,0,0,0,0-2.267,2.026,2.026,0,0,0-1.385-.378h-.882Z" transform="translate(-78.9 -218.674)"/>
      <path id="Path_1089" data-name="Path 1089" class="cls-1" d="M91.149,227.238l-.882-2.393H86.993l-.882,2.393H84.6l3.149-8.438H89.26l3.149,8.438Zm-1.259-3.526-.756-2.267a4.954,4.954,0,0,0-.252-.756c-.126-.378-.126-.63-.252-.756a7.1,7.1,0,0,1-.5,1.511l-.756,2.267Z" transform="translate(-77.421 -218.674)"/>
      <path id="Path_1090" data-name="Path 1090" class="cls-1" d="M95.9,227.238H94.519v-7.3H92V218.8h6.423v1.133H95.9Z" transform="translate(-75.502 -218.674)"/>
      <path id="Path_1091" data-name="Path 1091" class="cls-1" d="M99,227.238V218.8h1.385v8.438Z" transform="translate(-73.686 -218.674)"/>
      <path id="Path_1092" data-name="Path 1092" class="cls-1" d="M107.586,227.238H102.8V218.8h4.786v1.133h-3.4V222.2h3.149v1.133h-3.149v2.645h3.4Z" transform="translate(-72.7 -218.674)"/>
      <path id="Path_1093" data-name="Path 1093" class="cls-1" d="M116.027,227.238H114.39l-4.156-6.8h0v.378c0,.756.126,1.385.126,2.015v4.408H109.1V218.8h1.637l4.156,6.675h0V218.8h1.259v8.438Z" transform="translate(-71.066 -218.674)"/>
      <path id="Path_1094" data-name="Path 1094" class="cls-1" d="M120.5,227.238h-1.385v-7.3H116.6V218.8h6.423v1.133H120.5Z" transform="translate(-69.12 -218.674)"/>
      <path id="Path_1095" data-name="Path 1095" class="cls-1" d="M130.756,219.833a2.266,2.266,0,0,0-1.889.882,3.4,3.4,0,0,0-.63,2.393,4.48,4.48,0,0,0,.63,2.393,2.376,2.376,0,0,0,1.889.756,2.455,2.455,0,0,0,1.008-.126c.378-.126.63-.126,1.008-.252v1.133a6.1,6.1,0,0,1-2.267.378,3.794,3.794,0,0,1-2.9-1.133,5.627,5.627,0,0,1-.5-5.541,4,4,0,0,1,1.385-1.511,4.14,4.14,0,0,1,2.141-.5,5.111,5.111,0,0,1,2.393.5l-.5,1.133c-.252-.126-.63-.252-.882-.378A1.868,1.868,0,0,0,130.756,219.833Z" transform="translate(-66.526 -218.7)"/>
    </g>
    <g id="Group_1402" data-name="Group 1402" transform="translate(95.59 73.954)">
      <path id="Path_1096" data-name="Path 1096" class="cls-1" d="M81.567,61.219a2.349,2.349,0,0,1-.882,2.015,3.761,3.761,0,0,1-2.519.756h-.882v3.149H75.9V58.7h2.393a4.172,4.172,0,0,1,2.393.63A1.988,1.988,0,0,1,81.567,61.219ZM77.285,62.73h.756a2.188,2.188,0,0,0,1.511-.378,1.527,1.527,0,0,0,0-2.267,2.026,2.026,0,0,0-1.385-.378h-.882Z" transform="translate(-75.9 -58.7)"/>
      <path id="Path_1097" data-name="Path 1097" class="cls-1" d="M88.149,67.138l-.882-2.393H83.993l-.882,2.393H81.6L84.749,58.7H86.26l3.149,8.438Zm-1.133-3.652-.756-2.267a4.953,4.953,0,0,0-.252-.756c-.126-.378-.126-.63-.252-.756a7.1,7.1,0,0,1-.5,1.511L84.5,63.486h2.519Z" transform="translate(-74.421 -58.7)"/>
      <path id="Path_1098" data-name="Path 1098" class="cls-1" d="M93,67.138H91.619v-7.3H89.1V58.7h6.423v1.133H93Z" transform="translate(-72.476 -58.7)"/>
      <path id="Path_1099" data-name="Path 1099" class="cls-1" d="M96.1,67.138V58.7h1.385v8.438Z" transform="translate(-70.66 -58.7)"/>
      <path id="Path_1100" data-name="Path 1100" class="cls-1" d="M104.686,67.138H99.9V58.7h4.786v1.133h-3.4V62.1h3.149v1.133h-3.149v2.645h3.4Z" transform="translate(-69.674 -58.7)"/>
      <path id="Path_1101" data-name="Path 1101" class="cls-1" d="M113.127,67.138H111.49l-4.156-6.8h0v.378c0,.756.126,1.385.126,2.015v4.408H106.2V58.7h1.637l4.156,6.675h0V58.7h1.259v8.438Z" transform="translate(-68.04 -58.7)"/>
      <path id="Path_1102" data-name="Path 1102" class="cls-1" d="M117.6,67.138h-1.385v-7.3H113.7V58.7h6.423v1.133H117.6Z" transform="translate(-66.094 -58.7)"/>
      <path id="Path_1103" data-name="Path 1103" class="cls-1" d="M129.649,67.138l-.882-2.393h-3.274l-.882,2.393H123.1l3.149-8.438h1.511l3.149,8.438Zm-1.259-3.652-.756-2.267a4.952,4.952,0,0,0-.252-.756c-.126-.378-.126-.63-.252-.756a7.1,7.1,0,0,1-.5,1.511l-.756,2.267h2.519Z" transform="translate(-63.656 -58.7)"/>
    </g>
    <g id="Group_1403" data-name="Group 1403" transform="translate(0 174.077)">
      <path id="Path_1104" data-name="Path 1104" class="cls-1" d="M5.541,140.719a2.349,2.349,0,0,1-.882,2.015,3.761,3.761,0,0,1-2.519.756H1.385v3.149H0V138.2H2.393a4.172,4.172,0,0,1,2.393.63A2.21,2.21,0,0,1,5.541,140.719Zm-4.156,1.637h.756a2.188,2.188,0,0,0,1.511-.378,1.527,1.527,0,0,0,0-2.267,2.026,2.026,0,0,0-1.385-.378H1.385Z" transform="translate(0 -138.2)"/>
      <path id="Path_1105" data-name="Path 1105" class="cls-1" d="M12.223,146.638l-.882-2.393H8.193l-.882,2.393H5.8L8.949,138.2H10.46l3.149,8.438Zm-1.259-3.526-.756-2.267a4.953,4.953,0,0,0-.252-.756,2.216,2.216,0,0,1-.126-.756,7.1,7.1,0,0,1-.5,1.511l-.756,2.267Z" transform="translate(1.505 -138.2)"/>
      <path id="Path_1106" data-name="Path 1106" class="cls-1" d="M17,146.638H15.619v-7.3H13.1V138.2h6.423v1.133H17Z" transform="translate(3.398 -138.2)"/>
      <path id="Path_1107" data-name="Path 1107" class="cls-1" d="M20.2,146.638V138.2h1.385v8.438Z" transform="translate(5.24 -138.2)"/>
      <path id="Path_1108" data-name="Path 1108" class="cls-1" d="M28.786,146.638H24V138.2h4.786v1.133h-3.4V141.6h3.149v1.133H25.385v2.645h3.4Z" transform="translate(6.226 -138.2)"/>
      <path id="Path_1109" data-name="Path 1109" class="cls-1" d="M37.227,146.638H35.59l-4.156-6.8h0v.378c0,.756.126,1.385.126,2.015v4.408H30.3V138.2h1.637l4.156,6.675h0V138.2h1.259v8.438Z" transform="translate(7.86 -138.2)"/>
      <path id="Path_1110" data-name="Path 1110" class="cls-1" d="M41.6,146.638H40.219v-7.3H37.7V138.2h6.423v1.133H41.6Z" transform="translate(9.78 -138.2)"/>
      <path id="Path_1111" data-name="Path 1111" class="cls-1" d="M48.226,138.2h2.519a4.438,4.438,0,0,1,2.519.5,1.871,1.871,0,0,1,.756,1.637,2.128,2.128,0,0,1-.378,1.259,1.7,1.7,0,0,1-1.133.63h0a2.349,2.349,0,0,1,1.259.63,2.262,2.262,0,0,1,.378,1.385,2.113,2.113,0,0,1-.756,1.763,3.739,3.739,0,0,1-2.267.63H48.1V138.2Zm1.259,3.526h1.385a2.71,2.71,0,0,0,1.259-.252.981.981,0,0,0,.378-.882,1.143,1.143,0,0,0-.378-.882,3.37,3.37,0,0,0-1.385-.252H49.485Zm0,1.008v2.645H51A1.672,1.672,0,0,0,52.256,145a1.555,1.555,0,0,0,.5-1.008,1.145,1.145,0,0,0-.5-1.008,2.026,2.026,0,0,0-1.385-.378H49.485Z" transform="translate(12.478 -138.2)"/>
    </g>
    <g id="Group_1404" data-name="Group 1404" transform="translate(356.792 189.19)">
      <path id="Path_1112" data-name="Path 1112" class="cls-1" d="M289.975,158.738H288.59V154.96h-3.9v3.778H283.3V150.3h1.385v3.4h3.9v-3.4h1.385Z" transform="translate(-283.3 -150.174)"/>
      <path id="Path_1113" data-name="Path 1113" class="cls-1" d="M296.086,158.738H291.3V150.3h4.786v1.133h-3.4V153.7h3.149v1.133h-3.149v2.645h3.4Z" transform="translate(-281.225 -150.174)"/>
      <path id="Path_1114" data-name="Path 1114" class="cls-1" d="M303.049,158.738l-.882-2.393h-3.275l-.882,2.393H296.5l3.149-8.438h1.511l3.148,8.438Zm-1.259-3.526-.756-2.267a4.953,4.953,0,0,0-.252-.756c-.126-.378-.126-.63-.252-.756a7.1,7.1,0,0,1-.5,1.511l-.756,2.267h2.519Z" transform="translate(-279.876 -150.174)"/>
      <path id="Path_1115" data-name="Path 1115" class="cls-1" d="M304.7,158.738V150.3h1.385v7.3h3.526v1.133Z" transform="translate(-277.749 -150.174)"/>
      <path id="Path_1116" data-name="Path 1116" class="cls-1" d="M313.9,158.738h-1.385v-7.3H310V150.3h6.423v1.133H313.9Z" transform="translate(-276.374 -150.174)"/>
      <path id="Path_1117" data-name="Path 1117" class="cls-1" d="M323.675,158.738H322.29V154.96h-3.9v3.778H317V150.3h1.385v3.4h3.9v-3.4h1.385v8.438Z" transform="translate(-274.558 -150.174)"/>
      <path id="Path_1118" data-name="Path 1118" class="cls-1" d="M328.756,151.333a2.266,2.266,0,0,0-1.889.882,3.4,3.4,0,0,0-.63,2.393,4.481,4.481,0,0,0,.63,2.393,2.376,2.376,0,0,0,1.889.756,2.455,2.455,0,0,0,1.008-.126c.378-.126.63-.126,1.007-.252v1.133a6.1,6.1,0,0,1-2.267.378,3.794,3.794,0,0,1-2.9-1.133,4.841,4.841,0,0,1-1.008-3.274,4.313,4.313,0,0,1,.5-2.267,4,4,0,0,1,1.385-1.511,4.139,4.139,0,0,1,2.141-.5,5.111,5.111,0,0,1,2.393.5l-.5,1.133c-.252-.126-.63-.252-.882-.378A1.868,1.868,0,0,0,328.756,151.333Z" transform="translate(-272.586 -150.2)"/>
      <path id="Path_1119" data-name="Path 1119" class="cls-1" d="M337.423,158.738l-.882-2.393h-3.274l-.882,2.393H331l3.149-8.438h1.511l3.149,8.438Zm-1.259-3.526-.756-2.267a4.954,4.954,0,0,0-.252-.756c-.126-.378-.126-.63-.252-.756a7.1,7.1,0,0,1-.5,1.511l-.756,2.267h2.519Z" transform="translate(-270.926 -150.174)"/>
      <path id="Path_1120" data-name="Path 1120" class="cls-1" d="M340.485,155.338v3.4H339.1V150.3h2.393a3.892,3.892,0,0,1,2.393.63,2.21,2.21,0,0,1,.756,1.889A2.367,2.367,0,0,1,343,155.086l2.393,3.778h-1.511l-2.015-3.4h-1.385Zm0-1.133h1.007a2.026,2.026,0,0,0,1.385-.378,1.43,1.43,0,0,0,.378-1.008c0-.5-.126-.882-.5-1.008a3.887,3.887,0,0,0-1.385-.252h-.882V154.2Z" transform="translate(-268.825 -150.174)"/>
      <path id="Path_1121" data-name="Path 1121" class="cls-1" d="M350.886,158.738H346.1V150.3h4.786v1.133h-3.4V153.7h3.148v1.133h-3.148v2.645h3.4Z" transform="translate(-267.009 -150.174)"/>
      <path id="Path_1122" data-name="Path 1122" class="cls-1" d="M296.541,164.119a2.349,2.349,0,0,1-.882,2.015,3.761,3.761,0,0,1-2.519.756h-.882v3.149H291V161.6h2.393a4.172,4.172,0,0,1,2.393.63A2.21,2.21,0,0,1,296.541,164.119Zm-4.156,1.637h.756a2.188,2.188,0,0,0,1.511-.378,1.527,1.527,0,0,0,0-2.267,2.026,2.026,0,0,0-1.385-.378h-1.007v3.023Z" transform="translate(-281.302 -147.243)"/>
      <path id="Path_1123" data-name="Path 1123" class="cls-1" d="M299.085,166.638v3.4H297.7V161.6h2.393a3.892,3.892,0,0,1,2.393.63,2.21,2.21,0,0,1,.756,1.889,2.367,2.367,0,0,1-1.637,2.267L304,170.164h-1.511l-2.015-3.4h-1.385Zm0-1.133h1.007a2.026,2.026,0,0,0,1.385-.378,1.43,1.43,0,0,0,.378-1.008c0-.5-.126-.882-.5-1.008-.252-.252-.756-.252-1.385-.252h-.882V165.5Z" transform="translate(-279.564 -147.243)"/>
      <path id="Path_1124" data-name="Path 1124" class="cls-1" d="M312.208,165.808a5.336,5.336,0,0,1-1.008,3.274,4.268,4.268,0,0,1-5.793,0,5.825,5.825,0,0,1,0-6.549,4.268,4.268,0,0,1,5.793,0A5.337,5.337,0,0,1,312.208,165.808Zm-6.423,0a4.172,4.172,0,0,0,.63,2.393,2.21,2.21,0,0,0,1.889.756,2.376,2.376,0,0,0,1.889-.756,4.172,4.172,0,0,0,.63-2.393,4.48,4.48,0,0,0-.63-2.393c-.378-.63-1.008-.756-1.889-.756a2.21,2.21,0,0,0-1.889.756A4.48,4.48,0,0,0,305.785,165.808Z" transform="translate(-277.826 -147.295)"/>
      <path id="Path_1125" data-name="Path 1125" class="cls-1" d="M318.045,161.6h1.385l-3.023,8.438H314.9L312,161.6h1.385l1.763,5.29a2.372,2.372,0,0,1,.252,1.008,1.82,1.82,0,0,0,.252.882,3.892,3.892,0,0,1,.252-1.008,3.2,3.2,0,0,0,.252-.882Z" transform="translate(-275.855 -147.243)"/>
      <path id="Path_1126" data-name="Path 1126" class="cls-1" d="M319.8,170.038V161.6h1.385v8.438Z" transform="translate(-273.831 -147.243)"/>
      <path id="Path_1127" data-name="Path 1127" class="cls-1" d="M330.527,165.756a4.005,4.005,0,0,1-1.133,3.149,4.618,4.618,0,0,1-3.4,1.133H323.6V161.6h2.645a4.191,4.191,0,0,1,3.149,1.133A3.9,3.9,0,0,1,330.527,165.756Zm-1.511,0c0-2.015-1.008-3.023-2.9-3.023h-1.259V168.9h1.007A2.8,2.8,0,0,0,329.015,165.756Z" transform="translate(-272.845 -147.243)"/>
      <path id="Path_1128" data-name="Path 1128" class="cls-1" d="M336.286,170.038H331.5V161.6h4.786v1.133h-3.4V165h3.149v1.133h-3.149v2.645h3.4Z" transform="translate(-270.796 -147.243)"/>
      <path id="Path_1129" data-name="Path 1129" class="cls-1" d="M339.085,166.638v3.4H337.7V161.6h2.393a3.892,3.892,0,0,1,2.393.63,2.21,2.21,0,0,1,.756,1.889,2.367,2.367,0,0,1-1.637,2.267L344,170.164h-1.511l-2.015-3.4h-1.385Zm0-1.133h1.008a2.026,2.026,0,0,0,1.385-.378,1.43,1.43,0,0,0,.378-1.008c0-.5-.126-.882-.5-1.008-.252-.252-.756-.252-1.385-.252h-.882V165.5Z" transform="translate(-269.188 -147.243)"/>
    </g>
    <g id="Group_1405" data-name="Group 1405" transform="translate(637.516 285.535)">
      <path id="Path_1130" data-name="Path 1130" class="cls-1" d="M506.2,235.238V226.8h1.385v8.438Z" transform="translate(-506.2 -226.674)"/>
      <path id="Path_1131" data-name="Path 1131" class="cls-1" d="M517.027,235.238H515.39l-4.156-6.8h0v.378c0,.756.126,1.385.126,2.015v4.408H510.1V226.8h1.637l4.156,6.675h0V226.8h1.259v8.438Z" transform="translate(-505.188 -226.674)"/>
      <path id="Path_1132" data-name="Path 1132" class="cls-1" d="M523.315,232.971a2.113,2.113,0,0,1-.756,1.763,3.74,3.74,0,0,1-2.267.63,4.5,4.5,0,0,1-2.393-.5V233.6a3.7,3.7,0,0,0,1.259.378c.5,0,.882.126,1.259.126a3.16,3.16,0,0,0,1.259-.252,1.143,1.143,0,0,0,.378-.882.762.762,0,0,0-.378-.756,4.1,4.1,0,0,0-1.511-.756,4.054,4.054,0,0,1-1.637-1.008,1.894,1.894,0,0,1-.5-1.385,1.871,1.871,0,0,1,.756-1.637,3.2,3.2,0,0,1,2.015-.63,5.458,5.458,0,0,1,2.393.5l-.378,1.133a4.318,4.318,0,0,0-2.015-.5,1.951,1.951,0,0,0-1.008.252,1.089,1.089,0,0,0-.378.756c0,.252,0,.378.126.5l.5.5a4.938,4.938,0,0,0,1.134.5,4.511,4.511,0,0,1,1.385.756,3.336,3.336,0,0,1,.63.756A2.455,2.455,0,0,1,523.315,232.971Z" transform="translate(-503.165 -226.674)"/>
      <path id="Path_1133" data-name="Path 1133" class="cls-1" d="M531.049,226.8v5.415a3.486,3.486,0,0,1-.378,1.637,2.47,2.47,0,0,1-1.133,1.133,4.023,4.023,0,0,1-1.763.378,2.963,2.963,0,0,1-2.393-.882,3.357,3.357,0,0,1-.882-2.267V226.8h1.385v5.415c0,.756.126,1.259.5,1.511a2.008,2.008,0,0,0,1.511.5,1.8,1.8,0,0,0,2.015-2.015v-5.29h1.134Z" transform="translate(-501.453 -226.674)"/>
      <path id="Path_1134" data-name="Path 1134" class="cls-1" d="M533.785,231.838v3.4H532.4V226.8h2.393a3.892,3.892,0,0,1,2.393.63,2.21,2.21,0,0,1,.756,1.889,2.367,2.367,0,0,1-1.637,2.267l2.393,3.778h-1.511l-2.015-3.4h-1.386Zm0-1.133h1.008a2.026,2.026,0,0,0,1.385-.378,1.43,1.43,0,0,0,.378-1.008c0-.5-.126-.882-.5-1.008-.252-.252-.756-.252-1.385-.252h-.882Z" transform="translate(-499.403 -226.674)"/>
      <path id="Path_1135" data-name="Path 1135" class="cls-1" d="M544.849,235.238l-.882-2.393h-3.274l-.882,2.393H538.3l3.148-8.438h1.511l3.149,8.438Zm-1.134-3.526-.756-2.267a4.946,4.946,0,0,0-.252-.756c-.126-.378-.126-.63-.252-.756a7.1,7.1,0,0,1-.5,1.511l-.756,2.267h2.519Z" transform="translate(-497.873 -226.674)"/>
      <path id="Path_1136" data-name="Path 1136" class="cls-1" d="M553.527,235.238H551.89l-4.156-6.8h0v.378c0,.756.126,1.385.126,2.015v4.408H546.6V226.8h1.637l4.156,6.675h0V226.8h1.259v8.438Z" transform="translate(-495.72 -226.674)"/>
      <path id="Path_1137" data-name="Path 1137" class="cls-1" d="M558.556,227.833a2.266,2.266,0,0,0-1.889.882,3.4,3.4,0,0,0-.63,2.393,4.479,4.479,0,0,0,.63,2.393,2.036,2.036,0,0,0,1.889.756,2.455,2.455,0,0,0,1.008-.126c.378-.126.63-.126,1.007-.252v1.133a6.1,6.1,0,0,1-2.267.378,3.794,3.794,0,0,1-2.9-1.133,4.841,4.841,0,0,1-1.007-3.274,4.312,4.312,0,0,1,.5-2.267,4,4,0,0,1,1.385-1.511,4.14,4.14,0,0,1,2.141-.5,5.111,5.111,0,0,1,2.393.5l-.5,1.133c-.252-.126-.63-.252-.882-.378C559.186,227.959,558.934,227.833,558.556,227.833Z" transform="translate(-493.696 -226.7)"/>
      <path id="Path_1138" data-name="Path 1138" class="cls-1" d="M566.586,235.238H561.8V226.8h4.786v1.133h-3.4V230.2h3.149v1.133h-3.149v2.645h3.4Z" transform="translate(-491.776 -226.674)"/>
      <path id="Path_1139" data-name="Path 1139" class="cls-1" d="M511.867,240.619a2.349,2.349,0,0,1-.882,2.015,3.76,3.76,0,0,1-2.519.756h-.882v3.149H506.2V238.1h2.393a4.172,4.172,0,0,1,2.393.63A1.988,1.988,0,0,1,511.867,240.619Zm-4.282,1.637h.756a2.188,2.188,0,0,0,1.511-.378,1.6,1.6,0,0,0,.5-1.133,1.228,1.228,0,0,0-.5-1.133,2.026,2.026,0,0,0-1.385-.378h-1.008v3.023Z" transform="translate(-506.2 -223.743)"/>
      <path id="Path_1140" data-name="Path 1140" class="cls-1" d="M514.385,243.138v3.4H513V238.1h2.393a3.892,3.892,0,0,1,2.393.63,2.21,2.21,0,0,1,.756,1.889,2.367,2.367,0,0,1-1.637,2.267l2.393,3.778h-1.511l-2.015-3.4h-1.385Zm0-1.133h1.008a2.026,2.026,0,0,0,1.385-.378,1.43,1.43,0,0,0,.378-1.008c0-.5-.126-.882-.5-1.008-.252-.252-.756-.252-1.385-.252h-.882V242Z" transform="translate(-504.436 -223.743)"/>
      <path id="Path_1141" data-name="Path 1141" class="cls-1" d="M527.508,242.308a5.336,5.336,0,0,1-1.008,3.275,4.268,4.268,0,0,1-5.793,0,5.825,5.825,0,0,1,0-6.549,4.268,4.268,0,0,1,5.793,0A5.337,5.337,0,0,1,527.508,242.308Zm-6.423,0a4.172,4.172,0,0,0,.63,2.393,2.21,2.21,0,0,0,1.889.756,2.376,2.376,0,0,0,1.889-.756,4.861,4.861,0,0,0,0-4.786,2.739,2.739,0,0,0-3.778,0A3.592,3.592,0,0,0,521.085,242.308Z" transform="translate(-502.698 -223.795)"/>
      <path id="Path_1142" data-name="Path 1142" class="cls-1" d="M533.345,238.1h1.385l-3.023,8.438H530.2l-2.9-8.438h1.385l1.763,5.29a2.373,2.373,0,0,1,.252,1.008,7.987,7.987,0,0,0,.252.882,3.89,3.89,0,0,1,.252-1.008,3.2,3.2,0,0,0,.252-.882Z" transform="translate(-500.726 -223.743)"/>
      <path id="Path_1143" data-name="Path 1143" class="cls-1" d="M535.1,246.538V238.1h1.385v8.438Z" transform="translate(-498.703 -223.743)"/>
      <path id="Path_1144" data-name="Path 1144" class="cls-1" d="M545.827,242.256a4,4,0,0,1-1.133,3.149,4.618,4.618,0,0,1-3.4,1.133H538.9V238.1h2.645a4.191,4.191,0,0,1,3.148,1.133A3.9,3.9,0,0,1,545.827,242.256Zm-1.511,0c0-2.015-1.008-3.023-2.9-3.023h-1.26V245.4h1.008A2.8,2.8,0,0,0,544.316,242.256Z" transform="translate(-497.717 -223.743)"/>
      <path id="Path_1145" data-name="Path 1145" class="cls-1" d="M551.486,246.538H546.7V238.1h4.786v1.133h-3.4V241.5h3.149v1.133h-3.149v2.645h3.4Z" transform="translate(-495.694 -223.743)"/>
      <path id="Path_1146" data-name="Path 1146" class="cls-1" d="M554.285,243.138v3.4H552.9V238.1h2.393a3.892,3.892,0,0,1,2.393.63,2.21,2.21,0,0,1,.756,1.889,2.367,2.367,0,0,1-1.637,2.267l2.393,3.778h-1.511l-2.015-3.4h-1.385Zm0-1.133h1.007a2.026,2.026,0,0,0,1.385-.378,1.43,1.43,0,0,0,.378-1.008c0-.5-.126-.882-.5-1.008-.252-.252-.756-.252-1.385-.252h-.881Z" transform="translate(-494.085 -223.743)"/>
      <path id="Path_1147" data-name="Path 1147" class="cls-1" d="M566.956,239.133a2.266,2.266,0,0,0-1.889.882,3.4,3.4,0,0,0-.63,2.393,4.48,4.48,0,0,0,.63,2.393,2.376,2.376,0,0,0,1.889.756,2.455,2.455,0,0,0,1.008-.126c.252-.126.63-.126,1.007-.252v1.133a6.1,6.1,0,0,1-2.267.378,3.794,3.794,0,0,1-2.9-1.133,4.841,4.841,0,0,1-1.008-3.275,4.312,4.312,0,0,1,.5-2.267,4,4,0,0,1,1.385-1.511,4.14,4.14,0,0,1,2.141-.5,5.112,5.112,0,0,1,2.393.5l-.5,1.133c-.252-.126-.63-.252-.882-.378A1.867,1.867,0,0,0,566.956,239.133Z" transform="translate(-491.517 -223.769)"/>
    </g>
    <g id="Group_1406" data-name="Group 1406" transform="translate(704.139 176.722)">
      <path id="Path_1148" data-name="Path 1148" class="cls-1" d="M559.1,148.738V140.3h1.385v8.438Z" transform="translate(-559.1 -140.3)"/>
      <path id="Path_1149" data-name="Path 1149" class="cls-1" d="M569.927,148.738H568.29l-4.156-6.8h0v.378c0,.756.126,1.385.126,2.015v4.408H563V140.3h1.637l4.156,6.675h0V140.3h1.259v8.438Z" transform="translate(-558.088 -140.3)"/>
      <path id="Path_1150" data-name="Path 1150" class="cls-1" d="M576.215,146.471a2.113,2.113,0,0,1-.756,1.763,3.74,3.74,0,0,1-2.267.63,4.5,4.5,0,0,1-2.393-.5V147.1a3.7,3.7,0,0,0,1.259.378,4.284,4.284,0,0,0,1.259.126,3.16,3.16,0,0,0,1.259-.252,1.143,1.143,0,0,0,.378-.882.762.762,0,0,0-.378-.756,4.1,4.1,0,0,0-1.511-.756,4.053,4.053,0,0,1-1.637-1.008,1.894,1.894,0,0,1-.5-1.385,1.871,1.871,0,0,1,.756-1.637,3.2,3.2,0,0,1,2.015-.63,5.458,5.458,0,0,1,2.393.5l-.378,1.133a4.318,4.318,0,0,0-2.015-.5,1.951,1.951,0,0,0-1.008.252.9.9,0,0,0-.378.756c0,.252,0,.378.126.5l.5.5a4.938,4.938,0,0,0,1.134.5,4.509,4.509,0,0,1,1.385.756,3.34,3.34,0,0,1,.63.756A2.457,2.457,0,0,1,576.215,146.471Z" transform="translate(-556.065 -140.3)"/>
      <path id="Path_1151" data-name="Path 1151" class="cls-1" d="M583.949,140.3v5.415a3.487,3.487,0,0,1-.378,1.637,2.472,2.472,0,0,1-1.134,1.133,4.023,4.023,0,0,1-1.763.378,2.963,2.963,0,0,1-2.393-.882,3.357,3.357,0,0,1-.882-2.267V140.3h1.385v5.415c0,.756.126,1.259.5,1.511a2.008,2.008,0,0,0,1.511.5,1.8,1.8,0,0,0,2.015-2.015v-5.29h1.134Z" transform="translate(-554.353 -140.3)"/>
      <path id="Path_1152" data-name="Path 1152" class="cls-1" d="M586.685,145.438v3.4H585.3V140.4h2.393a3.893,3.893,0,0,1,2.393.63,2.21,2.21,0,0,1,.756,1.889,2.367,2.367,0,0,1-1.637,2.267l2.393,3.778h-1.511l-2.015-3.4h-1.385Zm0-1.259h1.008a2.026,2.026,0,0,0,1.385-.378,1.43,1.43,0,0,0,.378-1.008c0-.5-.126-.882-.5-1.008a3.888,3.888,0,0,0-1.385-.252h-.882v2.645Z" transform="translate(-552.303 -140.274)"/>
      <path id="Path_1153" data-name="Path 1153" class="cls-1" d="M597.749,148.738l-.882-2.393h-3.274l-.882,2.393H591.2l3.148-8.438h1.511l3.149,8.438Zm-1.259-3.526-.756-2.267a4.949,4.949,0,0,0-.252-.756c-.126-.378-.126-.63-.252-.756a7.1,7.1,0,0,1-.5,1.511l-.756,2.267h2.519Z" transform="translate(-550.773 -140.3)"/>
      <path id="Path_1154" data-name="Path 1154" class="cls-1" d="M606.427,148.738h-1.637l-4.156-6.8h0v.378c0,.756.126,1.385.126,2.015v4.408H599.5V140.3h1.637l4.156,6.675h0V140.3h1.259v8.438Z" transform="translate(-548.62 -140.3)"/>
      <path id="Path_1155" data-name="Path 1155" class="cls-1" d="M611.456,141.433a2.266,2.266,0,0,0-1.889.882,3.4,3.4,0,0,0-.63,2.393,4.48,4.48,0,0,0,.63,2.393,2.376,2.376,0,0,0,1.889.756,2.455,2.455,0,0,0,1.008-.126c.378-.126.63-.126,1.008-.252v1.133a6.1,6.1,0,0,1-2.267.378,3.794,3.794,0,0,1-2.9-1.133,4.84,4.84,0,0,1-1.007-3.274,4.313,4.313,0,0,1,.5-2.267,4,4,0,0,1,1.385-1.511,4.139,4.139,0,0,1,2.141-.5,5.111,5.111,0,0,1,2.393.5l-.5,1.133c-.252-.126-.63-.252-.882-.378A1.867,1.867,0,0,0,611.456,141.433Z" transform="translate(-546.596 -140.3)"/>
      <path id="Path_1156" data-name="Path 1156" class="cls-1" d="M619.386,148.738H614.6V140.3h4.786v1.133h-3.4V143.7h3.149v1.133h-3.149v2.645h3.4Z" transform="translate(-544.703 -140.3)"/>
      <path id="Path_1157" data-name="Path 1157" class="cls-1" d="M564.767,154.219a2.349,2.349,0,0,1-.882,2.015,3.76,3.76,0,0,1-2.519.756h-.882v3.149H559.1V151.7h2.393a4.172,4.172,0,0,1,2.393.63A2.275,2.275,0,0,1,564.767,154.219Zm-4.282,1.511h.756a2.188,2.188,0,0,0,1.511-.378,1.527,1.527,0,0,0,0-2.267,2.026,2.026,0,0,0-1.385-.378h-1.008v3.023Z" transform="translate(-559.1 -137.343)"/>
      <path id="Path_1158" data-name="Path 1158" class="cls-1" d="M567.185,156.738v3.4H565.8V151.7h2.393a3.892,3.892,0,0,1,2.393.63,2.21,2.21,0,0,1,.756,1.889,2.367,2.367,0,0,1-1.637,2.267l2.393,3.778h-1.511l-2.015-3.4h-1.385Zm0-1.259h1.007a2.025,2.025,0,0,0,1.385-.378,1.429,1.429,0,0,0,.378-1.008c0-.5-.126-.882-.5-1.008-.252-.252-.756-.252-1.385-.252h-.882v2.645Z" transform="translate(-557.362 -137.343)"/>
      <path id="Path_1159" data-name="Path 1159" class="cls-1" d="M580.408,155.908a5.336,5.336,0,0,1-1.008,3.274,4.268,4.268,0,0,1-5.793,0,5.825,5.825,0,0,1,0-6.549,4.268,4.268,0,0,1,5.793,0A5.079,5.079,0,0,1,580.408,155.908Zm-6.549,0a4.172,4.172,0,0,0,.63,2.393,2.21,2.21,0,0,0,1.889.756,2.376,2.376,0,0,0,1.889-.756,4.172,4.172,0,0,0,.63-2.393,4.48,4.48,0,0,0-.63-2.393c-.378-.63-1.008-.756-1.889-.756a2.21,2.21,0,0,0-1.889.756A3.893,3.893,0,0,0,573.859,155.908Z" transform="translate(-555.598 -137.395)"/>
      <path id="Path_1160" data-name="Path 1160" class="cls-1" d="M586.245,151.6h1.385l-3.023,8.438H583.1l-2.9-8.438h1.385l1.763,5.29a2.372,2.372,0,0,1,.252,1.008,1.821,1.821,0,0,0,.252.882,3.892,3.892,0,0,1,.252-1.008,3.2,3.2,0,0,0,.252-.882Z" transform="translate(-553.626 -137.369)"/>
      <path id="Path_1161" data-name="Path 1161" class="cls-1" d="M587.9,160.038V151.6h1.385v8.438Z" transform="translate(-551.629 -137.369)"/>
      <path id="Path_1162" data-name="Path 1162" class="cls-1" d="M598.627,155.756a4.005,4.005,0,0,1-1.133,3.149,4.618,4.618,0,0,1-3.4,1.133H591.7V151.6h2.645a4.191,4.191,0,0,1,3.148,1.133A4.085,4.085,0,0,1,598.627,155.756Zm-1.385.126c0-2.015-1.008-3.023-2.9-3.023h-1.259v6.171h1.008C596.234,158.9,597.241,157.9,597.241,155.882Z" transform="translate(-550.643 -137.369)"/>
      <path id="Path_1163" data-name="Path 1163" class="cls-1" d="M604.386,160.038H599.6V151.6h4.786v1.133h-3.4V155h3.149v1.133h-3.149v2.645h3.4Z" transform="translate(-548.594 -137.369)"/>
      <path id="Path_1164" data-name="Path 1164" class="cls-1" d="M607.185,156.738v3.4H605.8V151.7h2.393a3.892,3.892,0,0,1,2.393.63,2.21,2.21,0,0,1,.755,1.889,2.367,2.367,0,0,1-1.637,2.267l2.393,3.778h-1.511l-2.015-3.4h-1.386Zm0-1.259h1.008a2.026,2.026,0,0,0,1.385-.378,1.43,1.43,0,0,0,.378-1.008c0-.5-.126-.882-.5-1.008-.252-.252-.756-.252-1.385-.252h-.882Z" transform="translate(-546.985 -137.343)"/>
      <path id="Path_1165" data-name="Path 1165" class="cls-1" d="M616.226,151.6h2.519a4.439,4.439,0,0,1,2.519.5,1.871,1.871,0,0,1,.756,1.637,2.127,2.127,0,0,1-.378,1.259,1.7,1.7,0,0,1-1.133.63h0a2.349,2.349,0,0,1,1.259.63,2.262,2.262,0,0,1,.378,1.385,2.113,2.113,0,0,1-.756,1.763,3.74,3.74,0,0,1-2.267.63H616.1V151.6Zm1.385,3.526H619a2.71,2.71,0,0,0,1.259-.252.98.98,0,0,0,.378-.882,1.143,1.143,0,0,0-.378-.882,3.37,3.37,0,0,0-1.385-.252h-1.259Zm0,1.133V158.9h1.511a1.672,1.672,0,0,0,1.259-.378,1.554,1.554,0,0,0,.5-1.008,1.146,1.146,0,0,0-.5-1.008,2.026,2.026,0,0,0-1.385-.378h-1.385Z" transform="translate(-544.313 -137.369)"/>
    </g>
    <g id="Group_1407" data-name="Group 1407" transform="translate(630.337 63.752)">
      <path id="Path_1166" data-name="Path 1166" class="cls-1" d="M500.5,59.138V50.7h1.385v8.438Z" transform="translate(-500.5 -50.574)"/>
      <path id="Path_1167" data-name="Path 1167" class="cls-1" d="M511.327,59.138H509.69l-4.156-6.8h0v.378c0,.756.126,1.385.126,2.015v4.408H504.4V50.7h1.637l4.156,6.675h0V50.7h1.259v8.438Z" transform="translate(-499.488 -50.574)"/>
      <path id="Path_1168" data-name="Path 1168" class="cls-1" d="M517.615,56.9a2.113,2.113,0,0,1-.756,1.763,3.74,3.74,0,0,1-2.267.63,4.5,4.5,0,0,1-2.393-.5V57.527a3.7,3.7,0,0,0,1.259.378,4.284,4.284,0,0,0,1.259.126,3.159,3.159,0,0,0,1.259-.252,1.143,1.143,0,0,0,.378-.882.761.761,0,0,0-.378-.756,4.1,4.1,0,0,0-1.511-.756,3.2,3.2,0,0,1-1.637-1.133,1.894,1.894,0,0,1-.5-1.385,1.871,1.871,0,0,1,.756-1.637,3.2,3.2,0,0,1,2.015-.63,5.458,5.458,0,0,1,2.393.5l-.378,1.133a4.318,4.318,0,0,0-2.015-.5,1.951,1.951,0,0,0-1.008.252.9.9,0,0,0-.378.756c0,.252,0,.378.126.5l.5.5a4.939,4.939,0,0,0,1.133.5,4.511,4.511,0,0,1,1.385.756,3.341,3.341,0,0,1,.63.756A3.129,3.129,0,0,1,517.615,56.9Z" transform="translate(-497.465 -50.6)"/>
      <path id="Path_1169" data-name="Path 1169" class="cls-1" d="M525.349,50.7v5.415a3.487,3.487,0,0,1-.378,1.637,2.471,2.471,0,0,1-1.134,1.133,4.023,4.023,0,0,1-1.763.378,2.963,2.963,0,0,1-2.393-.882,2.7,2.7,0,0,1-.882-2.267V50.7h1.385v5.415c0,.756.126,1.259.5,1.511a2.008,2.008,0,0,0,1.511.5,1.8,1.8,0,0,0,2.015-2.015v-5.29h1.134Z" transform="translate(-495.753 -50.574)"/>
      <path id="Path_1170" data-name="Path 1170" class="cls-1" d="M528.085,55.738v3.4H526.7V50.7h2.393a3.892,3.892,0,0,1,2.393.63,2.21,2.21,0,0,1,.756,1.889,2.367,2.367,0,0,1-1.637,2.267L533,59.264h-1.511l-2.015-3.4h-1.385Zm0-1.133h1.008a2.026,2.026,0,0,0,1.385-.378,1.43,1.43,0,0,0,.378-1.008c0-.5-.126-.882-.5-1.008a3.888,3.888,0,0,0-1.385-.252h-.882V54.6Z" transform="translate(-493.703 -50.574)"/>
      <path id="Path_1171" data-name="Path 1171" class="cls-1" d="M539.149,59.138l-.882-2.393h-3.274l-.882,2.393H532.6l3.148-8.438h1.511l3.149,8.438Zm-1.134-3.526-.756-2.267a4.946,4.946,0,0,0-.252-.756c-.126-.378-.126-.63-.252-.756a7.1,7.1,0,0,1-.5,1.511l-.756,2.267Z" transform="translate(-492.173 -50.574)"/>
      <path id="Path_1172" data-name="Path 1172" class="cls-1" d="M547.827,59.138H546.19l-4.156-6.8h0v.378c0,.756.126,1.385.126,2.015v4.408H540.9V50.7h1.637l4.156,6.675h0V50.7h1.259v8.438Z" transform="translate(-490.02 -50.574)"/>
      <path id="Path_1173" data-name="Path 1173" class="cls-1" d="M552.856,51.733a2.266,2.266,0,0,0-1.889.882,3.4,3.4,0,0,0-.63,2.393,4.481,4.481,0,0,0,.63,2.393,2.376,2.376,0,0,0,1.889.756,2.455,2.455,0,0,0,1.008-.126c.378-.126.63-.126,1.007-.252v1.133a6.1,6.1,0,0,1-2.267.378,3.794,3.794,0,0,1-2.9-1.133,4.274,4.274,0,0,1-1.008-3.274,4.313,4.313,0,0,1,.5-2.267,4,4,0,0,1,1.385-1.511,4.139,4.139,0,0,1,2.141-.5,5.111,5.111,0,0,1,2.393.5l-.5,1.133c-.252-.126-.63-.252-.882-.378A7.1,7.1,0,0,0,552.856,51.733Z" transform="translate(-487.996 -50.6)"/>
      <path id="Path_1174" data-name="Path 1174" class="cls-1" d="M560.886,59.138H556.1V50.7h4.786v1.133h-3.4V54.1h3.149v1.133h-3.149v2.645h3.4Z" transform="translate(-486.077 -50.574)"/>
      <path id="Path_1175" data-name="Path 1175" class="cls-1" d="M506.167,64.519a2.349,2.349,0,0,1-.882,2.015,3.76,3.76,0,0,1-2.519.756h-.882v3.149H500.5V62h2.393a4.172,4.172,0,0,1,2.393.63A1.988,1.988,0,0,1,506.167,64.519Zm-4.282,1.637h.756a2.188,2.188,0,0,0,1.511-.378,1.527,1.527,0,0,0,0-2.267,2.026,2.026,0,0,0-1.385-.378h-1.008v3.023Z" transform="translate(-500.5 -47.643)"/>
      <path id="Path_1176" data-name="Path 1176" class="cls-1" d="M508.685,67.038v3.4H507.3V62h2.393a3.893,3.893,0,0,1,2.393.63,2.21,2.21,0,0,1,.756,1.889,2.367,2.367,0,0,1-1.637,2.267l2.393,3.778h-1.511l-2.015-3.4h-1.385Zm0-1.133h1.007a2.026,2.026,0,0,0,1.385-.378,1.43,1.43,0,0,0,.378-1.008c0-.5-.126-.882-.5-1.008a3.888,3.888,0,0,0-1.385-.252h-.882V65.9Z" transform="translate(-498.736 -47.643)"/>
      <path id="Path_1177" data-name="Path 1177" class="cls-1" d="M521.808,66.208a5.336,5.336,0,0,1-1.008,3.274,4.268,4.268,0,0,1-5.793,0,5.825,5.825,0,0,1,0-6.549,4.268,4.268,0,0,1,5.793,0A5.336,5.336,0,0,1,521.808,66.208Zm-6.423,0a4.172,4.172,0,0,0,.63,2.393,2.21,2.21,0,0,0,1.889.756,2.376,2.376,0,0,0,1.889-.756,4.171,4.171,0,0,0,.63-2.393,4.48,4.48,0,0,0-.63-2.393c-.378-.63-1.007-.756-1.889-.756a2.21,2.21,0,0,0-1.889.756A3.592,3.592,0,0,0,515.385,66.208Z" transform="translate(-496.998 -47.695)"/>
      <path id="Path_1178" data-name="Path 1178" class="cls-1" d="M527.619,62H529l-3.023,8.438H524.6L521.7,62h1.385l1.763,5.29A2.373,2.373,0,0,1,525.1,68.3a7.985,7.985,0,0,0,.252.882,3.889,3.889,0,0,1,.252-1.008,3.2,3.2,0,0,0,.252-.882Z" transform="translate(-495 -47.643)"/>
      <path id="Path_1179" data-name="Path 1179" class="cls-1" d="M529.4,70.438V62h1.385v8.438Z" transform="translate(-493.003 -47.643)"/>
      <path id="Path_1180" data-name="Path 1180" class="cls-1" d="M540.127,66.156a4,4,0,0,1-1.134,3.149,4.618,4.618,0,0,1-3.4,1.133H533.2V62h2.645a4.191,4.191,0,0,1,3.148,1.133A3.9,3.9,0,0,1,540.127,66.156Zm-1.511,0c0-2.015-1.008-3.023-2.9-3.023h-1.259V69.3h1.008C537.608,69.3,538.616,68.3,538.616,66.156Z" transform="translate(-492.017 -47.643)"/>
      <path id="Path_1181" data-name="Path 1181" class="cls-1" d="M545.786,70.438H541V62h4.786v1.133h-3.4V65.4h3.148v1.133h-3.148v2.645h3.4Z" transform="translate(-489.994 -47.643)"/>
      <path id="Path_1182" data-name="Path 1182" class="cls-1" d="M548.585,67.038v3.4H547.2V62h2.393a3.892,3.892,0,0,1,2.393.63,2.21,2.21,0,0,1,.756,1.889,2.367,2.367,0,0,1-1.637,2.267l2.393,3.778h-1.511l-2.015-3.4h-1.385Zm0-1.133h1.008a2.025,2.025,0,0,0,1.385-.378,1.43,1.43,0,0,0,.378-1.008c0-.5-.126-.882-.5-1.008a3.887,3.887,0,0,0-1.385-.252h-.882V65.9Z" transform="translate(-488.385 -47.643)"/>
      <path id="Path_1183" data-name="Path 1183" class="cls-1" d="M563.149,70.438l-.882-2.393h-3.274l-.882,2.393H556.6L559.749,62h1.511l3.148,8.438Zm-1.259-3.526-.756-2.267a4.942,4.942,0,0,0-.252-.756c-.126-.378-.126-.63-.252-.756a7.1,7.1,0,0,1-.5,1.511l-.756,2.267Z" transform="translate(-485.947 -47.643)"/>
    </g>
    <g id="Group_1414" data-name="Group 1414" transform="translate(486.512 178.485)">
      <g id="Group_1413" data-name="Group 1413">
        <g id="Group_1408" data-name="Group 1408" transform="translate(1.385 1.511)">
          <path id="Path_1184" data-name="Path 1184" class="cls-2" d="M529.084,197.307h-.126l.5-1.133h.126Zm-1.385-.5-3.526-1.385.5-1.133,3.526,1.385Zm-4.66-1.763-3.526-1.385.5-1.133,3.526,1.385Zm-4.786-1.763-3.526-1.385.5-1.133,3.526,1.385Zm-4.66-1.763-3.526-1.385.5-1.133,3.526,1.385Zm-4.66-1.763-3.652-1.385.5-1.133,3.526,1.385Zm-4.786-1.763-3.526-1.385.5-1.133,3.526,1.385Zm-4.66-1.763-3.526-1.385.5-1.133,3.526,1.385Zm-4.786-1.763-3.526-1.385.5-1.133,3.526,1.385Zm-4.66-1.763-3.526-1.385.5-1.133,3.526,1.385Zm-4.786-1.889-3.526-1.385.5-1.133,3.526,1.385Zm-4.66-1.763-3.526-1.385.5-1.133,3.526,1.385Zm-4.786-1.763-3.526-1.385.5-1.133,3.526,1.385Zm-4.66-1.763-3.526-1.385.5-1.133,3.526,1.385Zm-4.66-1.763-3.526-1.385.5-1.133L467,172.622Zm-4.786-1.763-3.526-1.385.5-1.133,3.526,1.385Zm-4.66-1.763-3.526-1.385.5-1.133,3.526,1.385Zm-4.786-1.763-3.526-1.385.5-1.133,3.526,1.385ZM447.6,166.7l-3.526-1.385.5-1.133,3.526,1.385Zm-4.786-1.763-3.526-1.385.5-1.133,3.526,1.385Zm-4.66-1.763-3.526-1.385.5-1.133,3.526,1.385Zm-4.786-1.763-3.526-1.385.5-1.133,3.526,1.385Zm-4.66-1.763-3.526-1.385.5-1.133,3.526,1.385Zm-4.66-1.763-3.526-1.385.5-1.133,3.526,1.385Zm-4.786-1.763-3.526-1.385.5-1.133,3.526,1.385Zm-4.66-1.763-3.526-1.385.5-1.133,3.526,1.385Zm-4.786-1.889-3.526-1.385.5-1.133,3.526,1.385Zm-4.66-1.763-3.526-1.385.5-1.133,3.526,1.385Zm-4.786-1.763-3.526-1.385.5-1.133,3.526,1.385Zm-4.66-1.763-3.526-1.385.5-1.133,3.526,1.385Zm-4.786-1.763-3.526-1.385.5-1.133,3.526,1.385Z" transform="translate(-387.4 -142.9)"/>
        </g>
        <g id="Group_1410" data-name="Group 1410">
          <g id="Group_1409" data-name="Group 1409">
            <path id="Path_1185" data-name="Path 1185" class="cls-2" d="M389.826,147.241l-1.511-3.274,3.4-1.511-2.141-.756-3.275,1.511,1.511,3.274Z" transform="translate(-386.3 -141.7)"/>
          </g>
        </g>
        <g id="Group_1412" data-name="Group 1412" transform="translate(139.543 51.888)">
          <g id="Group_1411" data-name="Group 1411">
            <path id="Path_1186" data-name="Path 1186" class="cls-2" d="M497.1,187.686l3.275-1.511-1.385-3.274,2.015.756,1.511,3.274-3.4,1.511Z" transform="translate(-497.1 -182.9)"/>
          </g>
        </g>
      </g>
    </g>
    <g id="Group_1420" data-name="Group 1420" transform="translate(486.512 34.408)">
      <g id="Group_1415" data-name="Group 1415" transform="translate(1.385 1.637)">
        <path id="Path_1187" data-name="Path 1187" class="cls-2" d="M387.9,82.881l-.5-1.133,3.526-1.385.5,1.133Zm4.66-1.763-.5-1.133,3.526-1.385.5,1.133Zm4.786-1.763-.5-1.133,3.526-1.385.5,1.133Zm4.66-1.763-.5-1.133,3.526-1.385.5,1.133Zm4.786-1.763-.5-1.133,3.526-1.385.5,1.133Zm4.66-1.763-.5-1.133,3.526-1.385.5,1.133Zm4.786-1.763-.5-1.133,3.526-1.385.5,1.133Zm4.66-1.763-.5-1.133,3.526-1.385.5,1.133Zm4.66-1.763-.5-1.133,3.526-1.385.5,1.133Zm4.786-1.763-.5-1.133,3.526-1.385.5,1.133Zm4.66-1.889-.5-1.133,3.526-1.385.5,1.133Zm4.786-1.763-.5-1.133,3.526-1.385.5,1.133Zm4.66-1.763-.5-1.133,3.526-1.385.5,1.133Zm4.786-1.763-.5-1.133,3.526-1.385.5,1.133Zm4.66-1.763-.5-1.133,3.526-1.385.5,1.259Zm4.786-1.763-.5-1.133,3.526-1.385.5,1.133Zm4.66-1.763-.5-1.133,3.526-1.385.5,1.133ZM468,52.781l-.5-1.133,3.526-1.385.5,1.133Zm4.786-1.763-.5-1.133,3.526-1.385.5,1.133Zm4.66-1.763-.5-1.133,3.526-1.385.5,1.133Zm4.786-1.763-.5-1.133,3.526-1.385.5,1.133Zm4.66-1.763-.5-1.133,3.526-1.385.5,1.133Zm4.786-1.763-.5-1.133,3.526-1.385.5,1.133Zm4.66-1.763-.5-1.133,3.526-1.385.5,1.133Zm4.786-1.763-.5-1.133,3.526-1.385.5,1.133Zm4.66-1.763-.5-1.133,3.526-1.385.5,1.133Zm4.66-1.889-.5-1.133,3.526-1.385.5,1.133Zm4.786-1.763-.5-1.133,3.526-1.385.5,1.133Zm4.66-1.763-.5-1.133,3.526-1.385.5,1.133Zm4.786-1.763-.5-1.133,3.526-1.385.5,1.133Zm4.66-1.763-.5-1.133h.126l.5,1.133Z" transform="translate(-387.4 -28.6)"/>
      </g>
      <g id="Group_1417" data-name="Group 1417" transform="translate(0 51.888)">
        <g id="Group_1416" data-name="Group 1416" transform="translate(0 0)">
          <path id="Path_1188" data-name="Path 1188" class="cls-2" d="M391.716,73.286l-3.4-1.511,1.511-3.274-2.015.756L386.3,72.53l3.275,1.511Z" transform="translate(-386.3 -68.5)"/>
        </g>
      </g>
      <g id="Group_1419" data-name="Group 1419" transform="translate(139.543)">
        <g id="Group_1418" data-name="Group 1418">
          <path id="Path_1189" data-name="Path 1189" class="cls-2" d="M498.989,32.841l1.385-3.274L497.1,28.056l2.015-.756,3.4,1.511L501,32.086Z" transform="translate(-497.1 -27.3)"/>
        </g>
      </g>
    </g>
    <g id="Group_1426" data-name="Group 1426" transform="translate(487.646 132.642)">
      <g id="Group_1421" data-name="Group 1421" transform="translate(1.763 1.889)">
        <path id="Path_1190" data-name="Path 1190" class="cls-2" d="M603.078,108.059h-3.023V106.8h3.023Zm-4.156,0h-3.778V106.8h3.778Zm-5.038,0h-3.778V106.8h3.778Zm-5.038,0h-3.778V106.8h3.778Zm-5.038,0h-3.778V106.8h3.778Zm-5.038,0h-3.778V106.8h3.778Zm-5.038,0h-3.778V106.8h3.778Zm-5.038,0h-3.778V106.8H568.7Zm-5.038,0H559.88V106.8h3.778Zm-5.038,0h-3.778V106.8h3.778Zm-5.038,0h-3.778V106.8h3.778Zm-5.038,0h-3.778V106.8h3.778Zm-5.038,0H539.73V106.8h3.778Zm-5.038,0h-3.778V106.8h3.778Zm-5.038,0h-3.778V106.8h3.778Zm-5.038,0h-3.778V106.8H528.4Zm-5.038,0h-3.778V106.8h3.778Zm-5.038,0h-3.778V106.8h3.778Zm-5.038,0H509.5V106.8h3.778Zm-5.038,0h-3.778V106.8h3.778Zm-5.038,0h-3.778V106.8h3.778Zm-5.038,0h-3.778V106.8h3.778Zm-5.038,0h-3.778V106.8h3.778Zm-5.038,0h-3.778V106.8h3.778Zm-5.038,0h-3.778V106.8h3.778Zm-5.038,0H474.24V106.8h3.778Zm-5.038,0H469.2V106.8h3.778Zm-5.038,0h-3.778V106.8h3.778Zm-5.038,0h-3.778V106.8h3.778Zm-5.038,0H454.09V106.8h3.778Zm-5.038,0h-3.778V106.8h3.778Zm-5.038,0h-3.778V106.8h3.778Zm-5.038,0h-3.778V106.8h3.778Zm-5.038,0h-3.778V106.8h3.778Zm-5.038,0H428.9V106.8h3.778Zm-5.038,0h-3.778V106.8h3.778Zm-5.038,0h-3.778V106.8H422.6Zm-5.038,0h-3.778V106.8h3.778Zm-5.038,0h-3.778V106.8h3.778Zm-5.038,0h-3.778V106.8h3.778Zm-5.038,0h-3.778V106.8h3.778Zm-5.038,0h-3.778V106.8h3.778Zm-5.038,0H388.6V106.8h3.778Z" transform="translate(-388.6 -106.8)"/>
      </g>
      <g id="Group_1423" data-name="Group 1423">
        <g id="Group_1422" data-name="Group 1422">
          <path id="Path_1191" data-name="Path 1191" class="cls-2" d="M391.86,110.464l-2.519-2.645,2.519-2.519h-2.141l-2.519,2.519,2.519,2.645Z" transform="translate(-387.2 -105.3)"/>
        </g>
      </g>
      <g id="Group_1425" data-name="Group 1425" transform="translate(213.219)">
        <g id="Group_1424" data-name="Group 1424">
          <path id="Path_1192" data-name="Path 1192" class="cls-2" d="M556.5,110.464l2.645-2.645L556.5,105.3h2.267l2.519,2.519-2.519,2.645Z" transform="translate(-556.5 -105.3)"/>
        </g>
      </g>
    </g>
    <g id="Group_1427" data-name="Group 1427" transform="translate(380.092 86.17)">
      <path id="Path_1193" data-name="Path 1193" class="cls-1" d="M321.321,107.442a19.521,19.521,0,1,1,19.521-19.521A19.538,19.538,0,0,1,321.321,107.442Zm0-36.019a16.372,16.372,0,1,0,16.372,16.372A16.34,16.34,0,0,0,321.321,71.423Z" transform="translate(-301.8 -68.4)"/>
    </g>
    <g id="Group_1428" data-name="Group 1428" transform="translate(365.482 131.245)">
      <path id="Path_1194" data-name="Path 1194" class="cls-1" d="M357.579,149.541H294.608a4.381,4.381,0,0,1-4.408-4.408V126.872c0-11.713,10.075-21.788,22.8-22.669a4.33,4.33,0,0,1,4.282,2.393l8.69,16.876,8.69-16.876a4.442,4.442,0,0,1,4.282-2.393c12.846,1.008,22.8,10.957,22.8,22.669v18.262A4.035,4.035,0,0,1,357.579,149.541Zm-44.08-42.19h0c-11.335.882-20.025,9.446-20.025,19.647v18.262a1.262,1.262,0,0,0,1.259,1.259H357.7a1.262,1.262,0,0,0,1.259-1.259V127c0-10.075-8.816-18.765-19.9-19.647a1.385,1.385,0,0,0-1.259.756l-10.075,19.521a1.529,1.529,0,0,1-2.771,0l-10.075-19.521A1.937,1.937,0,0,0,313.5,107.351Z" transform="translate(-290.2 -104.191)"/>
    </g>
    <g id="Group_1431" data-name="Group 1431" transform="translate(413.97 144.229)">
      <g id="Group_1429" data-name="Group 1429" transform="translate(4.912)">
        <path id="Path_1195" data-name="Path 1195" class="cls-1" d="M334.111,127.346a1.531,1.531,0,0,1-1.511-1.511v-9.823a1.531,1.531,0,0,1,1.511-1.511,1.625,1.625,0,0,1,1.511,1.511v9.823A1.455,1.455,0,0,1,334.111,127.346Z" transform="translate(-332.6 -114.5)"/>
      </g>
      <g id="Group_1430" data-name="Group 1430" transform="translate(0 4.912)">
        <path id="Path_1196" data-name="Path 1196" class="cls-1" d="M340.035,121.423h-9.823a1.531,1.531,0,0,1-1.511-1.511,1.625,1.625,0,0,1,1.511-1.511h9.823a1.511,1.511,0,1,1,0,3.023Z" transform="translate(-328.7 -118.4)"/>
      </g>
    </g>
    <g id="Group_1444" data-name="Group 1444" transform="translate(172.414 49.395)">
      <g id="Group_1437" data-name="Group 1437">
        <g id="Group_1432" data-name="Group 1432" transform="translate(1.385 1.511)">
          <path id="Path_1197" data-name="Path 1197" class="cls-2" d="M279.558,94.807h-.126l.5-1.133h.126Zm-1.259-.5-3.526-1.385.5-1.133L278.8,93.17Zm-4.786-1.763-3.526-1.385.5-1.133,3.526,1.385Zm-4.66-1.763-3.526-1.385.5-1.133,3.526,1.385Zm-4.786-1.763-3.526-1.385.5-1.133,3.526,1.385Zm-4.66-1.763-3.526-1.385.5-1.133,3.526,1.385Zm-4.66-1.763L251.221,84.1l.5-1.133,3.526,1.385Zm-4.786-1.763-3.526-1.385.5-1.133,3.526,1.385Zm-4.66-1.763-3.526-1.385.5-1.133,3.526,1.385ZM240.516,80.2l-3.526-1.385.5-1.133,3.526,1.385Zm-4.66-1.763-3.526-1.385.5-1.133L236.36,77.3Zm-4.786-1.763-3.526-1.385.5-1.133,3.526,1.385Zm-4.66-1.763-3.526-1.385.5-1.133,3.526,1.385Zm-4.786-1.889L218.1,71.633l.5-1.133,3.526,1.385Zm-4.66-1.763-3.526-1.385.5-1.133,3.526,1.385Zm-4.66-1.763-3.526-1.385.5-1.133,3.526,1.385Zm-4.786-1.763-3.526-1.385.5-1.133,3.526,1.385Zm-4.66-1.763-3.526-1.385.5-1.133,3.526,1.385ZM198.074,64.2l-3.526-1.385.5-1.133,3.526,1.385Zm-4.66-1.763-3.526-1.385.5-1.133,3.526,1.385Zm-4.786-1.763L185.1,59.291l.5-1.133,3.526,1.385Zm-4.66-1.763-3.526-1.385.5-1.133,3.526,1.385Zm-4.786-1.763-3.526-1.385.5-1.133,3.526,1.385Zm-4.66-1.763L171,54l.5-1.133,3.526,1.385Zm-4.66-1.763-3.526-1.385.5-1.133,3.526,1.385Zm-4.786-1.763-3.526-1.385.5-1.133,3.526,1.385Zm-4.66-1.763-3.526-1.385.5-1.133,3.526,1.385Zm-4.786-1.763-3.526-1.385.5-1.133,3.526,1.385Zm-4.66-1.763-3.526-1.385.5-1.133,3.526,1.385Zm-4.786-1.889L142.66,43.3l.5-1.133,3.526,1.385Zm-4.66-1.763L138,41.533l.5-1.133,3.526,1.385Z" transform="translate(-138 -40.4)"/>
        </g>
        <g id="Group_1434" data-name="Group 1434">
          <g id="Group_1433" data-name="Group 1433">
            <path id="Path_1198" data-name="Path 1198" class="cls-2" d="M140.426,44.867l-1.511-3.4,3.275-1.385-2.015-.882L136.9,40.711l1.511,3.4Z" transform="translate(-136.9 -39.2)"/>
          </g>
        </g>
        <g id="Group_1436" data-name="Group 1436" transform="translate(139.543 51.888)">
          <g id="Group_1435" data-name="Group 1435">
            <path id="Path_1199" data-name="Path 1199" class="cls-2" d="M247.7,85.186l3.275-1.511L249.463,80.4l2.015.756,1.511,3.274-3.274,1.511Z" transform="translate(-247.7 -80.4)"/>
          </g>
        </g>
      </g>
      <g id="Group_1443" data-name="Group 1443" transform="translate(0 118.385)">
        <g id="Group_1438" data-name="Group 1438" transform="translate(1.259 1.637)">
          <path id="Path_1200" data-name="Path 1200" class="cls-2" d="M138.4,188.781l-.5-1.133,3.526-1.385.5,1.133Zm4.786-1.763-.5-1.133,3.526-1.385.5,1.133Zm4.66-1.763-.5-1.133,3.526-1.385.5,1.133Zm4.786-1.763-.5-1.133,3.526-1.385.5,1.133Zm4.66-1.763-.378-1.259,3.526-1.385.5,1.133Zm4.786-1.763-.5-1.133,3.526-1.385.5,1.133Zm4.66-1.889-.5-1.133,3.526-1.385.5,1.133Zm4.66-1.763-.5-1.133,3.526-1.385.5,1.133Zm4.786-1.763-.5-1.133,3.526-1.385.5,1.133Zm4.66-1.763-.5-1.133,3.526-1.385.5,1.133Zm4.786-1.763-.5-1.133,3.526-1.385.5,1.133Zm4.66-1.763-.5-1.133,3.526-1.385.5,1.133Zm4.786-1.763-.5-1.133,3.526-1.385.5,1.133Zm4.66-1.763-.5-1.133,3.526-1.385.5,1.133Zm4.786-1.763-.5-1.133,3.526-1.385.5,1.133Zm4.66-1.763-.5-1.133,3.526-1.385.5,1.133Zm4.66-1.763-.5-1.133,3.526-1.385.5,1.133Zm4.786-1.763-.5-1.133,3.526-1.385.5,1.133Zm4.66-1.763-.5-1.133,3.526-1.385.5,1.133Zm4.786-1.763-.5-1.133,3.526-1.385.5,1.133Zm4.66-1.763-.5-1.133,3.526-1.385.5,1.133Zm4.786-1.889-.5-1.133,3.526-1.385.5,1.133Zm4.66-1.763-.5-1.133,3.526-1.385.5,1.133Zm4.786-1.763-.5-1.133,3.526-1.385.5,1.133Zm4.66-1.763-.5-1.133,3.526-1.385.5,1.133Zm4.66-1.763-.5-1.133,3.526-1.385.5,1.133Zm4.786-1.763-.5-1.133,3.526-1.385.5,1.133Zm4.66-1.763-.5-1.133,3.526-1.385.5,1.133Zm4.786-1.763-.5-1.133,3.526-1.385.5,1.133Zm4.66-1.763-.5-1.133,3.526-1.385.5,1.133Zm4.786-1.763-.5-1.133h.126l.5,1.133Z" transform="translate(-137.9 -134.5)"/>
        </g>
        <g id="Group_1440" data-name="Group 1440" transform="translate(0 51.888)">
          <g id="Group_1439" data-name="Group 1439">
            <path id="Path_1201" data-name="Path 1201" class="cls-2" d="M142.19,179.186l-3.275-1.511,1.511-3.274-2.015.756L136.9,178.43l3.275,1.511Z" transform="translate(-136.9 -174.4)"/>
          </g>
        </g>
        <g id="Group_1442" data-name="Group 1442" transform="translate(139.543)">
          <g id="Group_1441" data-name="Group 1441">
            <path id="Path_1202" data-name="Path 1202" class="cls-2" d="M249.463,138.741l1.511-3.274-3.275-1.511,2.015-.756,3.274,1.511-1.511,3.275Z" transform="translate(-247.7 -133.2)"/>
          </g>
        </g>
      </g>
    </g>
    <g id="Group_1450" data-name="Group 1450" transform="translate(71.787 134.783)">
      <g id="Group_1445" data-name="Group 1445" transform="translate(1.763 1.889)">
        <path id="Path_1203" data-name="Path 1203" class="cls-2" d="M300.334,109.759h-.126V108.5h.126Zm-1.385,0H295.17V108.5h3.778Zm-5.038,0h-3.778V108.5h3.778Zm-5.038,0h-3.778V108.5h3.778Zm-5.038,0h-3.778V108.5h3.778Zm-5.038,0h-3.778V108.5H278.8Zm-5.038,0h-3.778V108.5h3.778Zm-5.038,0h-3.778V108.5h3.778Zm-5.038,0h-3.778V108.5h3.778Zm-5.038,0h-3.778V108.5h3.778Zm-5.038,0h-3.778V108.5h3.778Zm-5.038,0h-3.778V108.5h3.778Zm-5.038,0h-3.778V108.5h3.778Zm-5.038,0h-3.778V108.5H238.5Zm-5.038,0H229.68V108.5h3.778Zm-5.038,0h-3.778V108.5h3.778Zm-5.038,0h-3.778V108.5h3.778Zm-5.038,0h-3.778V108.5h3.778Zm-5.038,0H209.53V108.5h3.778Zm-5.038,0h-3.778V108.5h3.778Zm-5.038,0h-3.778V108.5h3.778Zm-5.038,0h-3.778V108.5H198.2Zm-5.038,0h-3.778V108.5h3.778Zm-5.038,0h-3.778V108.5h3.778Zm-5.038,0H179.3V108.5h3.778Zm-5.038,0h-3.778V108.5h3.778Zm-5.038,0h-3.778V108.5h3.778Zm-5.038,0h-3.778V108.5h3.778Zm-5.038,0h-3.778V108.5h3.778Zm-5.038,0h-3.778V108.5h3.778Zm-5.038,0h-3.778V108.5h3.778Zm-5.038,0H144.04V108.5h3.778Zm-5.038,0H139V108.5h3.778Zm-5.038,0h-3.778V108.5h3.778Zm-5.038,0h-3.778V108.5h3.778Zm-5.038,0H123.89V108.5h3.778Zm-5.038,0h-3.778V108.5h3.778Zm-5.038,0h-3.778V108.5h3.778Zm-5.038,0h-3.778V108.5h3.778Zm-5.038,0h-3.778V108.5h3.778Zm-5.038,0H98.7V108.5h3.778Zm-5.038,0H93.664V108.5h3.778Zm-5.038,0H88.626V108.5H92.4Zm-5.038,0H83.588V108.5h3.778Zm-5.038,0H78.551V108.5h3.778Zm-5.038,0H73.513V108.5h3.778Zm-5.038,0H68.475V108.5h3.778Zm-5.038,0H63.438V108.5h3.778Zm-5.038,0H58.4V108.5h3.778Z" transform="translate(-58.4 -108.5)"/>
      </g>
      <g id="Group_1447" data-name="Group 1447">
        <g id="Group_1446" data-name="Group 1446">
          <path id="Path_1204" data-name="Path 1204" class="cls-2" d="M61.786,112.164l-2.519-2.645L61.786,107H59.645L57,109.519l2.645,2.645Z" transform="translate(-57 -107)"/>
        </g>
      </g>
      <g id="Group_1449" data-name="Group 1449" transform="translate(240.674)">
        <g id="Group_1448" data-name="Group 1448">
          <path id="Path_1205" data-name="Path 1205" class="cls-2" d="M248.1,112.164l2.645-2.645L248.1,107h2.267l2.519,2.519-2.519,2.645Z" transform="translate(-248.1 -107)"/>
        </g>
      </g>
    </g>
    <g id="Group_1453" data-name="Group 1453" transform="translate(11.461 105.187)">
      <g id="Group_1451" data-name="Group 1451" transform="translate(9.572)">
        <path id="Path_1206" data-name="Path 1206" class="cls-1" d="M28.79,107.681a12.09,12.09,0,1,1,12.09-12.09A12.094,12.094,0,0,1,28.79,107.681Zm0-21.158a8.942,8.942,0,1,0,8.942,8.942A8.976,8.976,0,0,0,28.79,86.523Z" transform="translate(-16.7 -83.5)"/>
      </g>
      <g id="Group_1452" data-name="Group 1452" transform="translate(0 26.574)">
        <path id="Path_1207" data-name="Path 1207" class="cls-1" d="M49.275,132.433H12.249A3.118,3.118,0,0,1,9.1,129.285V118.58c0-7.3,6.171-13.35,13.98-13.979H38.444c7.808.63,13.98,6.8,13.98,13.979v10.705A3.2,3.2,0,0,1,49.275,132.433ZM30.762,107.5H23.205c-6.171.5-11.083,5.29-11.083,10.831v10.831H49.275V118.328c0-5.667-4.912-10.327-11.083-10.831Z" transform="translate(-9.1 -104.6)"/>
      </g>
    </g>
    <g id="Group_1456" data-name="Group 1456" transform="translate(110.073 204.303)">
      <g id="Group_1454" data-name="Group 1454" transform="translate(9.572)">
        <path id="Path_1208" data-name="Path 1208" class="cls-1" d="M107.09,186.381a12.09,12.09,0,1,1,12.09-12.09A12.093,12.093,0,0,1,107.09,186.381Zm0-21.158a8.942,8.942,0,1,0,8.942,8.942A8.976,8.976,0,0,0,107.09,165.223Z" transform="translate(-95 -162.2)"/>
      </g>
      <g id="Group_1455" data-name="Group 1455" transform="translate(0 26.574)">
        <path id="Path_1209" data-name="Path 1209" class="cls-1" d="M127.575,211.133H90.549a3.118,3.118,0,0,1-3.149-3.149V197.279c0-7.3,6.171-13.35,13.98-13.98h15.365c7.808.63,13.98,6.8,13.98,13.98v10.705A3.2,3.2,0,0,1,127.575,211.133ZM109.062,186.2h-7.556c-6.171.5-11.083,5.29-11.083,10.831v10.831h37.027V197.028c0-5.667-4.912-10.327-11.083-10.831C116.115,186.323,112.588,186.2,109.062,186.2Z" transform="translate(-87.4 -183.3)"/>
      </g>
    </g>
    <g id="Group_1459" data-name="Group 1459" transform="translate(110.073 7.205)">
      <g id="Group_1457" data-name="Group 1457" transform="translate(9.572)">
        <path id="Path_1210" data-name="Path 1210" class="cls-1" d="M107.09,29.881a12.09,12.09,0,1,1,12.09-12.09A12.094,12.094,0,0,1,107.09,29.881Zm0-21.032a8.942,8.942,0,1,0,8.942,8.942A8.976,8.976,0,0,0,107.09,8.849Z" transform="translate(-95 -5.7)"/>
      </g>
      <g id="Group_1458" data-name="Group 1458" transform="translate(0 26.574)">
        <path id="Path_1211" data-name="Path 1211" class="cls-1" d="M127.575,54.633H90.549A3.118,3.118,0,0,1,87.4,51.485V40.78c0-7.3,6.171-13.35,13.98-13.98h15.365c7.808.63,13.98,6.8,13.98,13.98V51.485A3.118,3.118,0,0,1,127.575,54.633Zm-18.513-24.81h-7.556c-6.171.5-11.083,5.29-11.083,10.831V51.485h37.027V40.654c0-5.667-4.912-10.327-11.083-10.831Z" transform="translate(-87.4 -26.8)"/>
      </g>
    </g>
    <g id="Group_1460" data-name="Group 1460" transform="translate(166.747 117.152)">
      <path id="Path_1212" data-name="Path 1212" class="cls-3" d="M167.916,131.412H143.735A11.288,11.288,0,0,1,132.4,120.077V104.335A11.288,11.288,0,0,1,143.735,93h24.181a11.288,11.288,0,0,1,11.335,11.335v15.743A11.368,11.368,0,0,1,167.916,131.412Z" transform="translate(-132.4 -93)"/>
    </g>
    <g id="Group_1461" data-name="Group 1461" transform="translate(176.57 124.96)">
      <path id="Path_1213" data-name="Path 1213" class="cls-4" d="M147.5,120.106v2.267h-1.637v-2.267a6.378,6.378,0,0,1-5.667-3.778l2.015-1.133a3.859,3.859,0,0,0,3.652,2.645v-6.3c-2.519-.882-4.786-1.889-4.786-5.164,0-2.9,2.141-4.66,4.786-4.912V99.2H147.5v2.267a5.871,5.871,0,0,1,4.66,3.4L150.149,106a3.453,3.453,0,0,0-2.645-2.267v5.919c2.519.882,4.912,1.889,4.912,5.164C152.542,117.839,150.4,119.728,147.5,120.106Zm-1.637-10.957v-5.29c-1.511.252-2.519,1.133-2.519,2.519C143.475,107.764,144.23,108.52,145.867,109.149Zm4.282,5.919c0-1.511-1.008-2.141-2.519-2.9v5.541A2.718,2.718,0,0,0,150.149,115.069Z" transform="translate(-140.2 -99.2)"/>
      <path id="Path_1214" data-name="Path 1214" class="cls-4" d="M158.7,120.106v2.267h-1.637v-2.267a6.378,6.378,0,0,1-5.667-3.778l2.015-1.133a3.859,3.859,0,0,0,3.652,2.645v-6.3c-2.519-.882-4.786-1.889-4.786-5.164,0-2.9,2.141-4.66,4.786-4.912V99.2H158.7v2.267a5.871,5.871,0,0,1,4.66,3.4L161.349,106a3.453,3.453,0,0,0-2.645-2.267v5.919c2.519.882,4.912,1.889,4.912,5.164C163.616,117.839,161.6,119.728,158.7,120.106Zm-1.637-10.957v-5.29c-1.511.252-2.519,1.133-2.519,2.519S155.43,108.52,157.067,109.149Zm4.156,5.919c0-1.511-1.008-2.141-2.519-2.9v5.541A2.623,2.623,0,0,0,161.223,115.069Z" transform="translate(-137.295 -99.2)"/>
    </g>
    <g id="Group_1462" data-name="Group 1462" transform="translate(218.383 58.967)">
      <path id="Path_1215" data-name="Path 1215" class="cls-3" d="M208.916,85.212H184.735A11.288,11.288,0,0,1,173.4,73.877V58.135A11.288,11.288,0,0,1,184.735,46.8h24.181A11.288,11.288,0,0,1,220.25,58.135V73.877A11.368,11.368,0,0,1,208.916,85.212Z" transform="translate(-173.4 -46.8)"/>
    </g>
    <g id="Group_1463" data-name="Group 1463" transform="translate(228.332 66.775)">
      <path id="Path_1216" data-name="Path 1216" class="cls-4" d="M188.6,73.78v2.267h-1.637V73.78A6.378,6.378,0,0,1,181.3,70l2.015-1.133a3.859,3.859,0,0,0,3.652,2.645V65.342c-2.519-.882-4.786-1.889-4.786-5.164,0-2.9,2.141-4.66,4.786-4.912V53H188.6v2.267a5.87,5.87,0,0,1,4.66,3.4L191.249,59.8a3.453,3.453,0,0,0-2.645-2.267v5.919c2.519.882,4.912,1.889,4.912,5.164A4.975,4.975,0,0,1,188.6,73.78Zm-1.637-10.831V57.66c-1.511.252-2.519,1.133-2.519,2.519S185.33,62.32,186.967,62.949Zm4.156,5.793c0-1.511-1.008-2.141-2.519-2.9v5.541A2.547,2.547,0,0,0,191.123,68.743Z" transform="translate(-181.3 -53)"/>
      <path id="Path_1217" data-name="Path 1217" class="cls-4" d="M199.679,73.78v2.267h-1.511V73.78A6.378,6.378,0,0,1,192.5,70l2.015-1.133a3.859,3.859,0,0,0,3.652,2.645V65.342c-2.519-.882-4.786-1.889-4.786-5.164,0-2.9,2.141-4.66,4.786-4.912V53H199.8v2.267a5.87,5.87,0,0,1,4.66,3.4L202.449,59.8a3.453,3.453,0,0,0-2.645-2.267v5.919c2.519.882,4.912,1.889,4.912,5.164C204.716,71.639,202.575,73.528,199.679,73.78Zm-1.511-10.831V57.66c-1.511.252-2.519,1.133-2.519,2.519S196.53,62.32,198.167,62.949Zm4.156,5.793c0-1.511-1.008-2.141-2.519-2.9v5.541A2.547,2.547,0,0,0,202.323,68.743Z" transform="translate(-178.395 -53)"/>
    </g>
    <g id="Group_1466" data-name="Group 1466" transform="translate(218.005 178.485)">
      <g id="Group_1464" data-name="Group 1464">
        <path id="Path_1218" data-name="Path 1218" class="cls-3" d="M208.616,180.112H184.435A11.288,11.288,0,0,1,173.1,168.777V153.035A11.288,11.288,0,0,1,184.435,141.7h24.181a11.288,11.288,0,0,1,11.335,11.335v15.743A11.288,11.288,0,0,1,208.616,180.112Z" transform="translate(-173.1 -141.7)"/>
      </g>
      <g id="Group_1465" data-name="Group 1465" transform="translate(9.949 7.934)">
        <path id="Path_1219" data-name="Path 1219" class="cls-4" d="M188.3,168.78v2.267h-1.637V168.78A6.378,6.378,0,0,1,181,165l2.015-1.133a3.859,3.859,0,0,0,3.652,2.645v-6.171c-2.519-.882-4.786-1.889-4.786-5.164,0-2.9,2.141-4.66,4.786-4.912V148H188.3v2.267a5.87,5.87,0,0,1,4.66,3.4l-2.015,1.133a3.453,3.453,0,0,0-2.645-2.267v5.919c2.519.882,4.912,1.889,4.912,5.164C193.216,166.513,191.2,168.4,188.3,168.78Zm-1.637-10.831v-5.29c-1.511.252-2.519,1.133-2.519,2.519S185.03,157.194,186.667,157.949Zm4.156,5.793c0-1.511-1.008-2.141-2.519-2.9v5.541A2.623,2.623,0,0,0,190.823,163.743Z" transform="translate(-181 -148)"/>
        <path id="Path_1220" data-name="Path 1220" class="cls-4" d="M199.4,168.78v2.267h-1.637V168.78A6.378,6.378,0,0,1,192.1,165l2.015-1.133a3.859,3.859,0,0,0,3.652,2.645v-6.171c-2.519-.882-4.786-1.889-4.786-5.164,0-2.9,2.141-4.66,4.786-4.912V148H199.4v2.267a5.87,5.87,0,0,1,4.66,3.4l-2.015,1.133a3.453,3.453,0,0,0-2.645-2.267v5.919c2.519.882,4.912,1.889,4.912,5.164C204.442,166.513,202.3,168.4,199.4,168.78Zm-1.511-10.831v-5.29c-1.511.252-2.519,1.133-2.519,2.519S196.256,157.194,197.893,157.949Zm4.156,5.793c0-1.511-1.008-2.141-2.519-2.9v5.541A2.623,2.623,0,0,0,202.049,163.743Z" transform="translate(-178.12 -148)"/>
      </g>
    </g>
    <g id="Group_1469" data-name="Group 1469" transform="translate(530.969 185.16)">
      <g id="Group_1467" data-name="Group 1467">
        <path id="Path_1221" data-name="Path 1221" class="cls-3" d="M457.116,185.412H432.935A11.288,11.288,0,0,1,421.6,174.077V158.335A11.288,11.288,0,0,1,432.935,147h24.181a11.288,11.288,0,0,1,11.335,11.335v15.743A11.209,11.209,0,0,1,457.116,185.412Z" transform="translate(-421.6 -147)"/>
      </g>
      <g id="Group_1468" data-name="Group 1468" transform="translate(9.949 7.808)">
        <path id="Path_1222" data-name="Path 1222" class="cls-4" d="M436.8,174.106v2.267h-1.637v-2.267a6.378,6.378,0,0,1-5.667-3.778l2.015-1.133a3.859,3.859,0,0,0,3.652,2.645v-6.3c-2.519-.882-4.786-1.889-4.786-5.164,0-2.9,2.141-4.66,4.786-4.912V153.2H436.8v2.267a5.871,5.871,0,0,1,4.66,3.4L439.449,160a3.453,3.453,0,0,0-2.645-2.267v5.919c2.519.882,4.912,1.889,4.912,5.164C441.716,171.839,439.7,173.728,436.8,174.106Zm-1.637-10.831v-5.29c-1.511.252-2.519,1.133-2.519,2.519S433.53,162.52,435.167,163.275Zm4.156,5.793c0-1.511-1.008-2.141-2.519-2.9v5.541A2.623,2.623,0,0,0,439.323,169.069Z" transform="translate(-429.5 -153.2)"/>
        <path id="Path_1223" data-name="Path 1223" class="cls-4" d="M448,174.106v2.267h-1.637v-2.267a6.378,6.378,0,0,1-5.667-3.778l2.015-1.133a3.859,3.859,0,0,0,3.652,2.645v-6.3c-2.519-.882-4.786-1.889-4.786-5.164,0-2.9,2.141-4.66,4.786-4.912V153.2H448v2.267a5.87,5.87,0,0,1,4.66,3.4L450.649,160A3.453,3.453,0,0,0,448,157.734v5.919c2.519.882,4.912,1.889,4.912,5.164C452.916,171.839,450.775,173.728,448,174.106Zm-1.637-10.831v-5.29c-1.511.252-2.519,1.133-2.519,2.519S444.73,162.52,446.367,163.275Zm4.156,5.793c0-1.511-1.008-2.141-2.519-2.9v5.541A2.623,2.623,0,0,0,450.523,169.069Z" transform="translate(-426.595 -153.2)"/>
      </g>
    </g>
    <g id="Group_1472" data-name="Group 1472" transform="translate(582.48 113.877)">
      <g id="Group_1470" data-name="Group 1470">
        <path id="Path_1224" data-name="Path 1224" class="cls-3" d="M498.016,128.812H473.835A11.288,11.288,0,0,1,462.5,117.477V101.735A11.288,11.288,0,0,1,473.835,90.4h24.181a11.288,11.288,0,0,1,11.335,11.335v15.743A11.368,11.368,0,0,1,498.016,128.812Z" transform="translate(-462.5 -90.4)"/>
      </g>
      <g id="Group_1471" data-name="Group 1471" transform="translate(9.823 7.934)">
        <path id="Path_1225" data-name="Path 1225" class="cls-4" d="M477.6,117.48v2.267h-1.637V117.48A6.378,6.378,0,0,1,470.3,113.7l2.015-1.133a3.859,3.859,0,0,0,3.652,2.645v-6.171c-2.519-.882-4.786-1.889-4.786-5.164,0-2.9,2.141-4.66,4.786-4.912V96.7H477.6v2.267a5.87,5.87,0,0,1,4.66,3.4l-2.015,1.133a3.453,3.453,0,0,0-2.645-2.267v5.919c2.519.882,4.912,1.889,4.912,5.164C482.516,115.213,480.5,117.1,477.6,117.48Zm-1.637-10.957v-5.29c-1.511.252-2.519,1.133-2.519,2.519C473.574,105.138,474.33,105.894,475.967,106.523Zm4.282,5.919c0-1.511-1.008-2.141-2.519-2.9v5.541A2.718,2.718,0,0,0,480.249,112.443Z" transform="translate(-470.3 -96.7)"/>
        <path id="Path_1226" data-name="Path 1226" class="cls-4" d="M488.8,117.48v2.267h-1.637V117.48A6.378,6.378,0,0,1,481.5,113.7l2.015-1.133a3.859,3.859,0,0,0,3.652,2.645v-6.171c-2.519-.882-4.786-1.889-4.786-5.164,0-2.9,2.141-4.66,4.786-4.912V96.7H488.8v2.267a5.871,5.871,0,0,1,4.66,3.4l-2.015,1.133a3.453,3.453,0,0,0-2.645-2.267v5.919c2.519.882,4.912,1.889,4.912,5.164C493.716,115.213,491.575,117.1,488.8,117.48Zm-1.637-10.957v-5.29c-1.511.252-2.519,1.133-2.519,2.519S485.53,105.894,487.167,106.523Zm4.156,5.919c0-1.511-1.008-2.141-2.519-2.9v5.541A2.623,2.623,0,0,0,491.323,112.443Z" transform="translate(-467.395 -96.7)"/>
      </g>
    </g>
    <g id="Group_1475" data-name="Group 1475" transform="translate(535.503 43.98)">
      <g id="Group_1473" data-name="Group 1473">
        <path id="Path_1227" data-name="Path 1227" class="cls-3" d="M460.715,73.312H436.535A11.288,11.288,0,0,1,425.2,61.977V46.235A11.288,11.288,0,0,1,436.535,34.9h24.181A11.288,11.288,0,0,1,472.05,46.235V61.977A11.287,11.287,0,0,1,460.715,73.312Z" transform="translate(-425.2 -34.9)"/>
      </g>
      <g id="Group_1474" data-name="Group 1474" transform="translate(9.949 7.808)">
        <path id="Path_1228" data-name="Path 1228" class="cls-4" d="M440.4,61.88v2.267h-1.637V61.88A6.378,6.378,0,0,1,433.1,58.1l2.015-1.133a3.859,3.859,0,0,0,3.652,2.645V53.442c-2.519-.882-4.786-1.889-4.786-5.164,0-2.9,2.141-4.66,4.786-4.912V41.1H440.4v2.393a5.87,5.87,0,0,1,4.66,3.4l-2.015,1.133A3.453,3.453,0,0,0,440.4,45.76v5.919c2.519.882,4.912,1.889,4.912,5.164C445.316,59.739,443.3,61.628,440.4,61.88Zm-1.637-10.831V45.76c-1.511.252-2.519,1.133-2.519,2.519S437.13,50.42,438.767,51.049Zm4.156,5.793c0-1.511-1.008-2.141-2.519-2.9v5.541A2.547,2.547,0,0,0,442.923,56.843Z" transform="translate(-433.1 -41.1)"/>
        <path id="Path_1229" data-name="Path 1229" class="cls-4" d="M451.6,61.88v2.267h-1.637V61.88A6.378,6.378,0,0,1,444.3,58.1l2.015-1.133a3.859,3.859,0,0,0,3.652,2.645V53.442c-2.519-.882-4.786-1.889-4.786-5.164,0-2.9,2.141-4.66,4.786-4.912V41.1H451.6v2.393a5.871,5.871,0,0,1,4.66,3.4l-2.015,1.133A3.453,3.453,0,0,0,451.6,45.76v5.919c2.519.882,4.912,1.889,4.912,5.164A5.026,5.026,0,0,1,451.6,61.88Zm-1.637-10.831V45.76c-1.511.252-2.519,1.133-2.519,2.519S448.33,50.42,449.967,51.049Zm4.156,5.793c0-1.511-1.008-2.141-2.519-2.9v5.541A2.547,2.547,0,0,0,454.123,56.843Z" transform="translate(-430.195 -41.1)"/>
      </g>
    </g>
    <g id="Group_1476" data-name="Group 1476" transform="translate(652.076 220.361)">
      <path id="Path_1230" data-name="Path 1230" class="cls-1" d="M542.369,226.019a1.6,1.6,0,0,1-.756-.126c-12.594-6.675-19.647-18.136-23.8-38.412a1.464,1.464,0,0,1,.252-1.259,1.5,1.5,0,0,1,1.133-.63c9.571-.252,16.624-3.526,21.788-10.075a1.683,1.683,0,0,1,2.519,0c5.038,6.549,12.216,9.949,21.788,10.075a1.322,1.322,0,0,1,1.133.63,1.551,1.551,0,0,1,.252,1.259c-4.156,20.277-11.209,31.737-23.8,38.412C542.873,226.019,542.621,226.019,542.369,226.019Zm-21.032-37.4c3.9,17.884,10.075,27.959,21.032,34,10.957-6.171,17.128-16.12,21.032-34-8.942-.63-15.869-3.778-21.032-9.7C537.205,184.836,530.278,187.985,521.337,188.615Z" transform="translate(-517.761 -174.95)"/>
    </g>
    <g id="Group_1479" data-name="Group 1479" transform="translate(669.127 237.804)">
      <g id="Group_1477" data-name="Group 1477" transform="translate(6.045)">
        <path id="Path_1231" data-name="Path 1231" class="cls-1" d="M537.611,204.165a1.531,1.531,0,0,1-1.511-1.511V190.311a1.531,1.531,0,0,1,1.511-1.511,1.625,1.625,0,0,1,1.511,1.511v12.216A1.487,1.487,0,0,1,537.611,204.165Z" transform="translate(-536.1 -188.8)"/>
      </g>
      <g id="Group_1478" data-name="Group 1478" transform="translate(0 6.171)">
        <path id="Path_1232" data-name="Path 1232" class="cls-1" d="M545.028,196.723H532.811a1.531,1.531,0,0,1-1.511-1.511,1.625,1.625,0,0,1,1.511-1.511h12.216a1.511,1.511,0,0,1,0,3.023Z" transform="translate(-531.3 -193.7)"/>
      </g>
    </g>
    <g id="Group_1480" data-name="Group 1480" transform="translate(718.825 110.917)">
      <path id="Path_1233" data-name="Path 1233" class="cls-1" d="M595.369,139.119a1.6,1.6,0,0,1-.756-.126c-12.594-6.675-19.647-18.136-23.8-38.412a1.464,1.464,0,0,1,.252-1.259,1.5,1.5,0,0,1,1.133-.63c9.572-.252,16.624-3.526,21.788-10.075a1.683,1.683,0,0,1,2.519,0c5.038,6.549,12.216,9.949,21.788,10.075a1.323,1.323,0,0,1,1.134.63,1.552,1.552,0,0,1,.252,1.259c-4.156,20.277-11.209,31.737-23.8,38.412A1.3,1.3,0,0,1,595.369,139.119Zm-21.032-37.4c3.9,17.884,10.075,27.959,21.032,34,10.957-6.171,17.128-16.121,21.032-34-8.942-.63-15.868-3.778-21.032-9.7C590.205,97.936,583.278,101.085,574.337,101.715Z" transform="translate(-570.761 -88.05)"/>
    </g>
    <g id="Group_1483" data-name="Group 1483" transform="translate(735.876 128.234)">
      <g id="Group_1481" data-name="Group 1481" transform="translate(6.045)">
        <path id="Path_1234" data-name="Path 1234" class="cls-1" d="M590.611,117.165a1.531,1.531,0,0,1-1.511-1.511V103.311a1.531,1.531,0,0,1,1.511-1.511,1.625,1.625,0,0,1,1.511,1.511v12.216A1.429,1.429,0,0,1,590.611,117.165Z" transform="translate(-589.1 -101.8)"/>
      </g>
      <g id="Group_1482" data-name="Group 1482" transform="translate(0 6.297)">
        <path id="Path_1235" data-name="Path 1235" class="cls-1" d="M598.028,109.823H585.811a1.531,1.531,0,0,1-1.511-1.511,1.625,1.625,0,0,1,1.511-1.511h12.216a1.511,1.511,0,1,1,0,3.023Z" transform="translate(-584.3 -106.8)"/>
      </g>
    </g>
    <g id="Group_1484" data-name="Group 1484" transform="translate(646.361 -0.1)">
      <path id="Path_1236" data-name="Path 1236" class="cls-1" d="M537.375,49.9a2.531,2.531,0,0,1-1.637-.5c-11.587-6.549-18.262-17.254-22.418-35.767a3.111,3.111,0,0,1,.63-2.771,3.891,3.891,0,0,1,2.519-1.385c7.808-.63,13.854-3.274,18.387-8.438h0a3.506,3.506,0,0,1,5.164,0C544.553,6.2,550.6,8.968,558.407,9.472a3.891,3.891,0,0,1,2.519,1.385,3.543,3.543,0,0,1,.63,2.771c-4.03,18.513-10.7,29.218-22.418,35.767A2.891,2.891,0,0,1,537.375,49.9Zm-.126-46.724c-5.164,5.793-11.839,8.816-20.528,9.446-.126,0-.126.126-.252.126a.174.174,0,0,0,0,.252c3.9,17.506,10.075,27.581,20.78,33.626h.252c10.705-6.045,17-16.121,20.78-33.626v-.252a.44.44,0,0,0-.252-.126c-8.69-.63-15.365-3.778-20.528-9.446,0-.126-.126-.126-.252,0Z" transform="translate(-513.223 0.1)"/>
    </g>
    <g id="Group_1487" data-name="Group 1487" transform="translate(662.956 16.65)">
      <g id="Group_1485" data-name="Group 1485" transform="translate(6.045)">
        <path id="Path_1237" data-name="Path 1237" class="cls-1" d="M532.711,28.439a1.531,1.531,0,0,1-1.511-1.511V14.711a1.531,1.531,0,0,1,1.511-1.511,1.625,1.625,0,0,1,1.511,1.511V26.8A1.487,1.487,0,0,1,532.711,28.439Z" transform="translate(-531.2 -13.2)"/>
      </g>
      <g id="Group_1486" data-name="Group 1486" transform="translate(0 6.045)">
        <path id="Path_1238" data-name="Path 1238" class="cls-1" d="M540.128,21.023H527.911a1.531,1.531,0,0,1-1.511-1.511A1.625,1.625,0,0,1,527.911,18h12.216a1.511,1.511,0,1,1,0,3.023Z" transform="translate(-526.4 -18)"/>
      </g>
    </g>
    <g id="Group_1488" data-name="Group 1488" transform="translate(269.515 384.022)">
      <path id="Path_1239" data-name="Path 1239" class="cls-1" d="M235.467,307.419a2.348,2.348,0,0,1-.882,2.015,3.761,3.761,0,0,1-2.519.756h-.882v3.149H229.8V304.9h2.393a4.172,4.172,0,0,1,2.393.63A2.678,2.678,0,0,1,235.467,307.419Zm-4.282,1.637h.756a2.188,2.188,0,0,0,1.511-.378,1.527,1.527,0,0,0,0-2.267,2.026,2.026,0,0,0-1.385-.378h-1.008v3.023Z" transform="translate(-209.901 -304.9)"/>
      <path id="Path_1240" data-name="Path 1240" class="cls-1" d="M242.049,313.338l-.882-2.393h-3.274l-.882,2.393H235.5l3.149-8.438h1.511l3.148,8.438Zm-1.259-3.526-.756-2.267a4.953,4.953,0,0,0-.252-.756c-.126-.378-.126-.63-.252-.756a7.1,7.1,0,0,1-.5,1.511l-.756,2.267Z" transform="translate(-208.423 -304.9)"/>
      <path id="Path_1241" data-name="Path 1241" class="cls-1" d="M246.8,313.338h-1.385v-7.3H242.9V304.9h6.423v1.133H246.8Z" transform="translate(-206.503 -304.9)"/>
      <path id="Path_1242" data-name="Path 1242" class="cls-1" d="M250,313.338V304.9h1.385v8.438Z" transform="translate(-204.661 -304.9)"/>
      <path id="Path_1243" data-name="Path 1243" class="cls-1" d="M258.586,313.338H253.8V304.9h4.786v1.133h-3.4V308.3h3.149v1.133h-3.149v2.645h3.4v1.259Z" transform="translate(-203.675 -304.9)"/>
      <path id="Path_1244" data-name="Path 1244" class="cls-1" d="M267.027,313.338H265.39l-4.156-6.8h0v.378c0,.756.126,1.385.126,2.015v4.408H260.1V304.9h1.637l4.156,6.675h0V304.9h1.259v8.438Z" transform="translate(-202.041 -304.9)"/>
      <path id="Path_1245" data-name="Path 1245" class="cls-1" d="M271.4,313.338h-1.385v-7.3H267.5V304.9h6.423v1.133H271.4Z" transform="translate(-200.121 -304.9)"/>
      <path id="Path_1246" data-name="Path 1246" class="cls-1" d="M217.526,324.638l-2.393-7.053h0a23.277,23.277,0,0,1,.126,2.9v4.156H214V316.2h1.889l2.393,6.675h0l2.393-6.675h2.015v8.438H221.3v-7.053h0l-2.519,7.053Z" transform="translate(-214 -301.969)"/>
      <path id="Path_1247" data-name="Path 1247" class="cls-1" d="M229.049,324.638l-.882-2.393h-3.274l-.882,2.393H222.5l3.149-8.438h1.511l3.149,8.438Zm-1.259-3.526-.756-2.267a4.954,4.954,0,0,0-.252-.756c-.126-.378-.126-.63-.252-.756a7.1,7.1,0,0,1-.5,1.511l-.756,2.267Z" transform="translate(-211.795 -301.969)"/>
      <path id="Path_1248" data-name="Path 1248" class="cls-1" d="M237.627,324.638H235.99l-4.156-6.8h0v.378c0,.756.126,1.385.126,2.015v4.408H230.7V316.2h1.637l4.156,6.675h0V316.2h1.259v8.438Z" transform="translate(-209.668 -301.969)"/>
      <path id="Path_1249" data-name="Path 1249" class="cls-1" d="M244.449,324.638l-.882-2.393h-3.274l-.882,2.393H237.9l3.149-8.438h1.511l3.149,8.438Zm-1.134-3.526-.756-2.267a4.952,4.952,0,0,0-.252-.756c-.126-.378-.126-.63-.252-.756a7.1,7.1,0,0,1-.5,1.511l-.756,2.267Z" transform="translate(-207.8 -301.969)"/>
      <path id="Path_1250" data-name="Path 1250" class="cls-1" d="M249.7,320.078h3.149v4.282l-1.511.378a6.132,6.132,0,0,1-1.511.126,4.085,4.085,0,0,1-3.023-1.133,4.323,4.323,0,0,1-1.008-3.149,4.191,4.191,0,0,1,1.133-3.149,4.5,4.5,0,0,1,3.275-1.133,5.639,5.639,0,0,1,2.519.5l-.5,1.134a5.927,5.927,0,0,0-2.015-.5,2.594,2.594,0,0,0-2.141.882,3.516,3.516,0,0,0-.756,2.267,3.631,3.631,0,0,0,.756,2.393,2.659,2.659,0,0,0,2.015.756,5.166,5.166,0,0,0,1.385-.126v-2.141H249.7v-1.385Z" transform="translate(-205.751 -301.943)"/>
      <path id="Path_1251" data-name="Path 1251" class="cls-1" d="M258.686,324.638H253.9V316.2h4.786v1.134h-3.4V319.6h3.149v1.133h-3.149v2.645h3.4Z" transform="translate(-203.649 -301.969)"/>
      <path id="Path_1252" data-name="Path 1252" class="cls-1" d="M263.726,324.638l-2.393-7.053h0a23.277,23.277,0,0,1,.126,2.9v4.156H260.2V316.2h1.889l2.393,6.675h0l2.393-6.675h2.015v8.438H267.5v-7.053h0l-2.519,7.053Z" transform="translate(-202.015 -301.969)"/>
      <path id="Path_1253" data-name="Path 1253" class="cls-1" d="M274.486,324.638H269.7V316.2h4.786v1.134h-3.4V319.6h3.149v1.133h-3.149v2.645h3.4Z" transform="translate(-199.551 -301.969)"/>
      <path id="Path_1254" data-name="Path 1254" class="cls-1" d="M282.927,324.638H281.29l-4.156-6.8h0v.378c0,.756.126,1.385.126,2.015v4.408H276V316.2h1.637l4.156,6.675h0V316.2h1.259v8.438Z" transform="translate(-197.916 -301.969)"/>
      <path id="Path_1255" data-name="Path 1255" class="cls-1" d="M287.4,324.638h-1.385v-7.3H283.5V316.2h6.423v1.133H287.4Z" transform="translate(-195.971 -301.969)"/>
      <path id="Path_1256" data-name="Path 1256" class="cls-1" d="M228.715,333.7a2.113,2.113,0,0,1-.756,1.763,3.739,3.739,0,0,1-2.267.63,4.5,4.5,0,0,1-2.393-.5v-1.259a3.7,3.7,0,0,0,1.259.378,4.285,4.285,0,0,0,1.259.126,3.16,3.16,0,0,0,1.259-.252,1.143,1.143,0,0,0,.378-.882.762.762,0,0,0-.378-.756,4.1,4.1,0,0,0-1.511-.756,4.054,4.054,0,0,1-1.637-1.008,2.007,2.007,0,0,1-.5-1.511,1.871,1.871,0,0,1,.756-1.637,3.2,3.2,0,0,1,2.015-.63,5.457,5.457,0,0,1,2.393.5l-.378,1.133a4.318,4.318,0,0,0-2.015-.5,1.951,1.951,0,0,0-1.008.252,1.089,1.089,0,0,0-.378.756c0,.252,0,.378.126.5l.5.5a4.936,4.936,0,0,0,1.133.5,4.51,4.51,0,0,1,1.385.756,3.339,3.339,0,0,1,.63.756A3.127,3.127,0,0,1,228.715,333.7Z" transform="translate(-211.587 -299.063)"/>
      <path id="Path_1257" data-name="Path 1257" class="cls-1" d="M237.408,331.708a5.336,5.336,0,0,1-1.008,3.274,4.268,4.268,0,0,1-5.793,0,5.825,5.825,0,0,1,0-6.549,4.268,4.268,0,0,1,5.793,0A4.645,4.645,0,0,1,237.408,331.708Zm-6.423,0a4.172,4.172,0,0,0,.63,2.393,2.21,2.21,0,0,0,1.889.756,2.376,2.376,0,0,0,1.889-.756,4.861,4.861,0,0,0,0-4.786,2.739,2.739,0,0,0-3.778,0A4.48,4.48,0,0,0,230.985,331.708Z" transform="translate(-209.953 -299.089)"/>
      <path id="Path_1258" data-name="Path 1258" class="cls-1" d="M239.585,335.938H238.2V327.5h4.786v1.133h-3.4v2.645h3.149v1.133h-3.149Z" transform="translate(-207.722 -299.037)"/>
      <path id="Path_1259" data-name="Path 1259" class="cls-1" d="M247.3,335.938h-1.385v-7.3H243.4V327.5h6.423v1.133H247.3Z" transform="translate(-206.373 -299.037)"/>
      <path id="Path_1260" data-name="Path 1260" class="cls-1" d="M258.416,335.99H256.9l-1.385-5.038a5.664,5.664,0,0,0-.252-1.007,2.837,2.837,0,0,1-.126-.882c0,.252-.126.63-.126,1.008a8.039,8.039,0,0,1-.252.882l-1.385,5.038h-1.511l-1.133-4.282-1.133-4.282h1.385l1.259,4.912a6.986,6.986,0,0,1,.378,2.141,3.677,3.677,0,0,1,.252-1.133c.126-.378.126-.756.252-1.008l1.385-4.912H255.9l1.385,4.912a19.784,19.784,0,0,1,.378,2.015c0-.5.252-1.259.378-2.141L259.3,327.3h1.385Z" transform="translate(-204.765 -299.089)"/>
      <path id="Path_1261" data-name="Path 1261" class="cls-1" d="M265.849,335.938l-.882-2.393h-3.274l-.882,2.393H259.3l3.149-8.438h1.511l3.149,8.438Zm-1.259-3.526-.756-2.267a4.949,4.949,0,0,0-.252-.756c-.126-.378-.126-.63-.252-.756a7.1,7.1,0,0,1-.5,1.511l-.756,2.267Z" transform="translate(-202.248 -299.037)"/>
      <path id="Path_1262" data-name="Path 1262" class="cls-1" d="M268.885,332.538v3.4H267.5V327.5h2.393a3.892,3.892,0,0,1,2.393.63,2.21,2.21,0,0,1,.756,1.889,2.367,2.367,0,0,1-1.637,2.267l2.393,3.778h-1.511l-2.015-3.4h-1.385Zm0-1.133h1.008a2.026,2.026,0,0,0,1.385-.378,1.43,1.43,0,0,0,.378-1.008c0-.5-.126-.882-.5-1.008-.252-.252-.756-.252-1.385-.252h-.882V331.4Z" transform="translate(-200.121 -299.037)"/>
      <path id="Path_1263" data-name="Path 1263" class="cls-1" d="M279.186,335.938H274.4V327.5h4.786v1.133h-3.4V330.9h3.149v1.133h-3.149v2.645h3.4Z" transform="translate(-198.331 -299.037)"/>
    </g>
    <g id="Group_1489" data-name="Group 1489" transform="translate(328.581 230.751)">
      <path id="Path_1264" data-name="Path 1264" class="cls-2" d="M262.033,283.449l-1.133-.5.756-1.763,1.133.5Zm1.134-3.023-1.133-.5,1.385-3.526,1.133.5Zm1.889-4.66-1.133-.5,1.385-3.526,1.133.5Zm2.015-4.66-1.133-.5,1.385-3.526,1.133.5Zm1.889-4.66-1.133-.5,1.385-3.526,1.133.5Zm1.889-4.66-1.134-.5,1.385-3.526,1.133.5Zm1.889-4.66-1.133-.5,1.385-3.526,1.133.5Zm1.889-4.66-1.133-.5,1.385-3.526,1.133.5Zm2.015-4.66-1.133-.5,1.385-3.526,1.134.5Zm1.889-4.66-1.133-.5,1.385-3.526,1.133.5Zm1.889-4.66-1.133-.5,1.385-3.526,1.133.5Zm1.889-4.66-1.133-.5,1.385-3.526,1.133.5Zm1.889-4.66-1.133-.5,1.385-3.526,1.133.5Zm2.015-4.66-1.133-.5,1.385-3.526,1.133.5Zm1.889-4.66-1.133-.5,1.385-3.526,1.133.5Zm1.889-4.66-1.134-.5,1.385-3.526,1.133.5Zm1.889-4.66-1.133-.5,1.385-3.526,1.133.5Zm1.889-4.66-1.133-.5,1.385-3.526,1.133.5Zm2.015-4.66-1.133-.5,1.385-3.526,1.133.5Zm1.889-4.66-1.133-.5,1.385-3.526,1.133.5Zm1.889-4.66-1.133-.5,1.385-3.526,1.133.5Zm1.889-4.66-1.133-.5,1.385-3.526,1.133.5Z" transform="translate(-260.9 -183.2)"/>
    </g>
    <g id="Group_1492" data-name="Group 1492" transform="translate(328.204 256.569)">
      <g id="Group_1490" data-name="Group 1490">
        <path id="Path_1265" data-name="Path 1265" class="cls-3" d="M296.116,242.112H271.935A11.288,11.288,0,0,1,260.6,230.777V215.035A11.288,11.288,0,0,1,271.935,203.7h24.181a11.288,11.288,0,0,1,11.335,11.335v15.743A11.288,11.288,0,0,1,296.116,242.112Z" transform="translate(-260.6 -203.7)"/>
      </g>
      <g id="Group_1491" data-name="Group 1491" transform="translate(9.949 7.934)">
        <path id="Path_1266" data-name="Path 1266" class="cls-4" d="M275.8,230.78v2.267h-1.637V230.78A6.378,6.378,0,0,1,268.5,227l2.015-1.133a3.859,3.859,0,0,0,3.652,2.645v-6.171c-2.519-.882-4.786-1.889-4.786-5.164,0-2.9,2.141-4.66,4.786-4.912V210H275.8v2.267a5.87,5.87,0,0,1,4.66,3.4l-2.015,1.133a3.453,3.453,0,0,0-2.645-2.267v5.919c2.519.882,4.912,1.889,4.912,5.164C280.716,228.513,278.575,230.4,275.8,230.78Zm-1.637-10.831v-5.29c-1.511.252-2.519,1.133-2.519,2.519S272.53,219.194,274.167,219.949Zm4.156,5.793c0-1.511-1.007-2.141-2.519-2.9v5.541A2.623,2.623,0,0,0,278.323,225.743Z" transform="translate(-268.5 -210)"/>
        <path id="Path_1267" data-name="Path 1267" class="cls-4" d="M286.9,230.78v2.267h-1.637V230.78A6.378,6.378,0,0,1,279.6,227l2.015-1.133a3.859,3.859,0,0,0,3.652,2.645v-6.171c-2.519-.882-4.786-1.889-4.786-5.164,0-2.9,2.141-4.66,4.786-4.912V210H286.9v2.267a5.87,5.87,0,0,1,4.66,3.4l-2.015,1.133a3.453,3.453,0,0,0-2.645-2.267v5.919c2.519.882,4.912,1.889,4.912,5.164C291.942,228.513,289.8,230.4,286.9,230.78Zm-1.637-10.831v-5.29c-1.511.252-2.519,1.133-2.519,2.519C282.875,218.564,283.63,219.194,285.267,219.949Zm4.282,5.793c0-1.511-1.007-2.141-2.519-2.9v5.541A2.718,2.718,0,0,0,289.549,225.743Z" transform="translate(-265.621 -210)"/>
      </g>
    </g>
    <g id="Group_1493" data-name="Group 1493" transform="translate(431.602 230.751)">
      <path id="Path_1268" data-name="Path 1268" class="cls-2" d="M383.631,283.449l-.756-1.763,1.133-.5.756,1.763Zm-1.259-3.023-1.385-3.526,1.133-.5,1.385,3.526Zm-1.889-4.66-1.385-3.526,1.133-.5,1.385,3.526Zm-1.889-4.66-1.385-3.526,1.133-.5,1.385,3.526Zm-2.015-4.66-1.385-3.526,1.133-.5,1.385,3.526Zm-1.889-4.66-1.385-3.526,1.133-.5,1.385,3.526Zm-1.889-4.66-1.385-3.526,1.134-.5,1.385,3.526Zm-1.889-4.66-1.385-3.526,1.133-.5,1.385,3.526Zm-1.889-4.66-1.385-3.526,1.133-.5,1.385,3.526Zm-2.015-4.66-1.385-3.526,1.133-.5,1.385,3.526Zm-1.889-4.66-1.385-3.526,1.133-.5,1.385,3.526Zm-1.889-4.66-1.385-3.526,1.133-.5,1.385,3.526Zm-1.889-4.66-1.385-3.526,1.133-.5,1.385,3.526Zm-1.889-4.66-1.385-3.526,1.133-.5,1.385,3.526Zm-2.015-4.66-1.385-3.526,1.133-.5,1.385,3.526Zm-1.889-4.66-1.385-3.526,1.133-.5,1.385,3.526Zm-1.889-4.66L352.272,207l1.133-.5,1.385,3.526Zm-1.889-4.66-1.385-3.526,1.133-.5,1.385,3.526Zm-1.889-4.66-1.385-3.526,1.133-.5,1.385,3.526Zm-2.015-4.66-1.385-3.526,1.133-.5L349,196.046Zm-1.889-4.66-1.385-3.526,1.134-.5,1.385,3.526Zm-1.889-4.66L342.7,183.7l1.133-.5,1.385,3.526Z" transform="translate(-342.7 -183.2)"/>
    </g>
    <g id="Group_1496" data-name="Group 1496" transform="translate(427.068 256.569)">
      <g id="Group_1494" data-name="Group 1494">
        <path id="Path_1269" data-name="Path 1269" class="cls-3" d="M374.616,242.112H350.435A11.288,11.288,0,0,1,339.1,230.777V215.035A11.288,11.288,0,0,1,350.435,203.7h24.181a11.288,11.288,0,0,1,11.335,11.335v15.743A11.288,11.288,0,0,1,374.616,242.112Z" transform="translate(-339.1 -203.7)"/>
      </g>
      <g id="Group_1495" data-name="Group 1495" transform="translate(9.949 7.934)">
        <path id="Path_1270" data-name="Path 1270" class="cls-4" d="M354.3,230.78v2.267h-1.637V230.78A6.378,6.378,0,0,1,347,227l2.015-1.133a3.859,3.859,0,0,0,3.652,2.645v-6.171c-2.519-.882-4.786-1.889-4.786-5.164,0-2.9,2.141-4.66,4.786-4.912V210H354.3v2.267a5.87,5.87,0,0,1,4.66,3.4l-2.015,1.133a3.453,3.453,0,0,0-2.645-2.267v5.919c2.519.882,4.912,1.889,4.912,5.164C359.216,228.513,357.075,230.4,354.3,230.78Zm-1.637-10.831v-5.29c-1.511.252-2.519,1.133-2.519,2.519S351.03,219.194,352.667,219.949Zm4.156,5.793c0-1.511-1.008-2.141-2.519-2.9v5.541A2.623,2.623,0,0,0,356.823,225.743Z" transform="translate(-347 -210)"/>
        <path id="Path_1271" data-name="Path 1271" class="cls-4" d="M365.4,230.78v2.267h-1.637V230.78A6.378,6.378,0,0,1,358.1,227l2.015-1.133a3.859,3.859,0,0,0,3.652,2.645v-6.171c-2.519-.882-4.786-1.889-4.786-5.164,0-2.9,2.141-4.66,4.786-4.912V210H365.4v2.267a5.871,5.871,0,0,1,4.66,3.4l-2.015,1.133a3.453,3.453,0,0,0-2.645-2.267v5.919c2.519.882,4.912,1.889,4.912,5.164C370.442,228.513,368.3,230.4,365.4,230.78Zm-1.511-10.831v-5.29c-1.511.252-2.519,1.133-2.519,2.519S362.256,219.194,363.893,219.949Zm4.156,5.793c0-1.511-1.008-2.141-2.519-2.9v5.541A2.623,2.623,0,0,0,368.049,225.743Z" transform="translate(-344.121 -210)"/>
      </g>
    </g>
    <g id="Group_1499" data-name="Group 1499" transform="translate(301.252 342)">
      <g id="Group_1497" data-name="Group 1497" transform="translate(8.831 8.157)">
        <path id="Path_1272" data-name="Path 1272" class="cls-1" d="M252.62,290.717a6.6,6.6,0,0,1-5.541-3.149,6.334,6.334,0,0,1-.126-6.171,6.549,6.549,0,0,1,2.393-2.519,6.361,6.361,0,0,1,8.69,2.267h0a5.848,5.848,0,0,1,.63,4.786,6.234,6.234,0,0,1-3.023,3.9A5.021,5.021,0,0,1,252.62,290.717Zm0-9.572a3.879,3.879,0,0,0-1.637.378,3.036,3.036,0,0,0-1.259,1.259,3.469,3.469,0,0,0,0,3.149,3.254,3.254,0,0,0,4.408,1.133,3.128,3.128,0,0,0,1.511-2.015,2.7,2.7,0,0,0-.378-2.393A3.07,3.07,0,0,0,252.62,281.146Z" transform="translate(-246.212 -278.011)"/>
      </g>
      <g id="Group_1498" data-name="Group 1498">
        <path id="Path_1273" data-name="Path 1273" class="cls-1" d="M249.779,300.584a1.791,1.791,0,0,1-.756-.252l-4.156-2.393a1.614,1.614,0,0,1-.63-2.141l1.008-1.763a18.021,18.021,0,0,1-1.385-1.889A11.164,11.164,0,0,1,242.852,290h-2.141a1.531,1.531,0,0,1-1.511-1.511v-4.786a1.538,1.538,0,0,1,.5-1.133,1.875,1.875,0,0,1,1.133-.5h2.141a10.979,10.979,0,0,1,2.267-3.9l-1.008-1.889a1.614,1.614,0,0,1,.63-2.141l4.156-2.393a1.224,1.224,0,0,1,1.133-.126,1.959,1.959,0,0,1,1.008.756l1.008,1.889a13.694,13.694,0,0,1,4.534,0l1.008-1.889a1.614,1.614,0,0,1,2.141-.63l4.156,2.393a1.614,1.614,0,0,1,.63,2.141l-1.008,1.763a18.024,18.024,0,0,1,1.385,1.889h0a11.163,11.163,0,0,1,1.008,2.141h2.141a1.728,1.728,0,0,1,1.637,1.637v4.786a1.75,1.75,0,0,1-1.511,1.637h-2.141a10.98,10.98,0,0,1-2.267,3.9l1.008,1.889a1.224,1.224,0,0,1,.126,1.133,1.959,1.959,0,0,1-.756,1.008l-4.156,2.393a1.224,1.224,0,0,1-1.133.126,1.958,1.958,0,0,1-1.008-.756l-1.008-1.889a13.7,13.7,0,0,1-4.534,0l-1.008,1.889a1.564,1.564,0,0,1-1.008.756A.983.983,0,0,0,249.779,300.584Zm-2.015-4.534,1.385.756.882-1.511a1.693,1.693,0,0,1,1.763-.756,9.007,9.007,0,0,0,5.164,0,1.4,1.4,0,0,1,1.763.756l.882,1.511,1.385-.756-.882-1.511a1.527,1.527,0,0,1,.252-1.889A10.3,10.3,0,0,0,263,288.115a1.5,1.5,0,0,1,1.511-1.259h1.763v-1.637h-1.763A1.5,1.5,0,0,1,263,283.959,8.05,8.05,0,0,0,262,281.566a6.407,6.407,0,0,0-1.637-2.015,1.527,1.527,0,0,1-.252-1.889l.882-1.511L259.6,275.4l-.882,1.511a1.693,1.693,0,0,1-1.763.756,9.008,9.008,0,0,0-5.164,0,1.4,1.4,0,0,1-1.763-.756l-.882-1.511-1.385.756.882,1.511a1.527,1.527,0,0,1-.252,1.889,10.3,10.3,0,0,0-2.645,4.534,1.5,1.5,0,0,1-1.511,1.259h-1.763v1.637h1.763a1.5,1.5,0,0,1,1.511,1.259,8.049,8.049,0,0,0,1.008,2.393,8.8,8.8,0,0,0,1.637,2.015,1.527,1.527,0,0,1,.252,1.889Z" transform="translate(-239.2 -271.534)"/>
      </g>
    </g>
    <g id="Group_1500" data-name="Group 1500" transform="translate(444.07 390.445)">
      <path id="Path_1274" data-name="Path 1274" class="cls-1" d="M364.167,312.619a2.348,2.348,0,0,1-.882,2.015,3.761,3.761,0,0,1-2.519.756h-.882v3.149H358.5V310.1h2.393a4.172,4.172,0,0,1,2.393.63A1.988,1.988,0,0,1,364.167,312.619Zm-4.156,1.637h.756a2.188,2.188,0,0,0,1.511-.378,1.527,1.527,0,0,0,0-2.267,2.026,2.026,0,0,0-1.385-.378h-1.008v3.022Z" transform="translate(-351.069 -309.974)"/>
      <path id="Path_1275" data-name="Path 1275" class="cls-1" d="M370.849,318.538l-.882-2.393h-3.274l-.882,2.393H364.3l3.149-8.438h1.511l3.149,8.438Zm-1.259-3.526-.756-2.267a4.947,4.947,0,0,0-.252-.756c-.126-.378-.126-.63-.252-.756a7.107,7.107,0,0,1-.5,1.511l-.756,2.267Z" transform="translate(-349.565 -309.974)"/>
      <path id="Path_1276" data-name="Path 1276" class="cls-1" d="M375.1,314.03l2.015-3.9h1.511l-2.771,5.164v3.275h-1.385V315.29L371.7,310h1.511Z" transform="translate(-347.645 -310)"/>
      <path id="Path_1277" data-name="Path 1277" class="cls-1" d="M382.626,318.538l-2.393-7.053h0a23.273,23.273,0,0,1,.126,2.9v4.156H379.1V310.1h1.889l2.393,6.675h0l2.393-6.675h2.015v8.438H386.4v-7.053h0l-2.519,7.053Z" transform="translate(-345.725 -309.974)"/>
      <path id="Path_1278" data-name="Path 1278" class="cls-1" d="M393.386,318.538H388.6V310.1h4.786v1.133h-3.4V313.5h3.149v1.133h-3.149v2.645h3.4Z" transform="translate(-343.261 -309.974)"/>
      <path id="Path_1279" data-name="Path 1279" class="cls-1" d="M401.827,318.538H400.19l-4.156-6.8h0v.378c0,.756.126,1.385.126,2.015v4.408H394.9V310.1h1.637l4.156,6.675h0V310.1h1.259v8.438Z" transform="translate(-341.627 -309.974)"/>
      <path id="Path_1280" data-name="Path 1280" class="cls-1" d="M406.2,318.538h-1.385v-7.3H402.3V310.1h6.423v1.133H406.2Z" transform="translate(-339.707 -309.974)"/>
      <path id="Path_1281" data-name="Path 1281" class="cls-1" d="M358.267,323.919a2.349,2.349,0,0,1-.882,2.015,3.761,3.761,0,0,1-2.519.756h-.882v3.149H352.6V321.4h2.393a4.172,4.172,0,0,1,2.393.63A1.988,1.988,0,0,1,358.267,323.919Zm-4.282,1.637h.756a2.188,2.188,0,0,0,1.511-.378,1.527,1.527,0,0,0,0-2.267,2.026,2.026,0,0,0-1.385-.378h-1.008v3.023Z" transform="translate(-352.6 -307.043)"/>
      <path id="Path_1282" data-name="Path 1282" class="cls-1" d="M360.785,326.438v3.4H359.4V321.4h2.393a3.892,3.892,0,0,1,2.393.63,2.21,2.21,0,0,1,.756,1.889,2.367,2.367,0,0,1-1.637,2.267l2.393,3.778h-1.511l-2.015-3.4h-1.385Zm0-1.133h1.007a2.026,2.026,0,0,0,1.385-.378,1.43,1.43,0,0,0,.378-1.008c0-.5-.126-.882-.5-1.007-.252-.252-.756-.252-1.385-.252h-.882V325.3Z" transform="translate(-350.836 -307.043)"/>
      <path id="Path_1283" data-name="Path 1283" class="cls-1" d="M373.908,325.608a5.336,5.336,0,0,1-1.008,3.274,4.268,4.268,0,0,1-5.793,0,5.825,5.825,0,0,1,0-6.549,4.268,4.268,0,0,1,5.793,0A5.336,5.336,0,0,1,373.908,325.608Zm-6.423,0a4.171,4.171,0,0,0,.63,2.393,2.21,2.21,0,0,0,1.889.756,2.376,2.376,0,0,0,1.889-.756,4.172,4.172,0,0,0,.63-2.393,4.48,4.48,0,0,0-.63-2.393c-.378-.63-1.008-.756-1.889-.756a2.21,2.21,0,0,0-1.889.756A3.591,3.591,0,0,0,367.485,325.608Z" transform="translate(-349.098 -307.095)"/>
      <path id="Path_1284" data-name="Path 1284" class="cls-1" d="M378.356,322.434a2.266,2.266,0,0,0-1.889.882,3.4,3.4,0,0,0-.63,2.393,4.48,4.48,0,0,0,.63,2.393,2.376,2.376,0,0,0,1.889.756,2.456,2.456,0,0,0,1.008-.126c.378-.126.63-.126,1.007-.252v1.133a6.1,6.1,0,0,1-2.267.378,3.794,3.794,0,0,1-2.9-1.133,5.627,5.627,0,0,1-.5-5.541,4,4,0,0,1,1.385-1.511,4.14,4.14,0,0,1,2.141-.5,5.112,5.112,0,0,1,2.393.5l-.5,1.134c-.252-.126-.63-.252-.882-.378A7.105,7.105,0,0,0,378.356,322.434Z" transform="translate(-346.997 -307.069)"/>
      <path id="Path_1285" data-name="Path 1285" class="cls-1" d="M386.386,329.838H381.6V321.4h4.786v1.133h-3.4V324.8h3.148v1.133h-3.148v2.645h3.4Z" transform="translate(-345.077 -307.043)"/>
      <path id="Path_1286" data-name="Path 1286" class="cls-1" d="M392.816,327.6a2.113,2.113,0,0,1-.756,1.763,3.739,3.739,0,0,1-2.267.63,4.5,4.5,0,0,1-2.393-.5v-1.259a3.7,3.7,0,0,0,1.259.378,4.283,4.283,0,0,0,1.259.126,3.161,3.161,0,0,0,1.259-.252,1.143,1.143,0,0,0,.378-.882.762.762,0,0,0-.378-.756,4.1,4.1,0,0,0-1.511-.756,3.2,3.2,0,0,1-1.637-1.133,1.894,1.894,0,0,1-.5-1.385,1.871,1.871,0,0,1,.756-1.637,3.2,3.2,0,0,1,2.015-.63,5.458,5.458,0,0,1,2.393.5l-.378,1.133a6.736,6.736,0,0,0-2.015-.5,1.951,1.951,0,0,0-1.008.252,1.088,1.088,0,0,0-.378.756c0,.252,0,.378.126.5l.5.5a4.936,4.936,0,0,0,1.133.5,4.509,4.509,0,0,1,1.385.756,3.34,3.34,0,0,1,.63.756A3.127,3.127,0,0,1,392.816,327.6Z" transform="translate(-343.572 -307.069)"/>
      <path id="Path_1287" data-name="Path 1287" class="cls-1" d="M398.915,327.6a2.113,2.113,0,0,1-.756,1.763,3.739,3.739,0,0,1-2.267.63,4.5,4.5,0,0,1-2.393-.5v-1.259a3.7,3.7,0,0,0,1.259.378,4.283,4.283,0,0,0,1.259.126,3.16,3.16,0,0,0,1.259-.252,1.143,1.143,0,0,0,.378-.882.762.762,0,0,0-.378-.756,4.1,4.1,0,0,0-1.511-.756,3.2,3.2,0,0,1-1.637-1.133,1.894,1.894,0,0,1-.5-1.385,1.871,1.871,0,0,1,.756-1.637,3.2,3.2,0,0,1,2.015-.63,5.459,5.459,0,0,1,2.393.5l-.378,1.133a6.736,6.736,0,0,0-2.015-.5,1.95,1.95,0,0,0-1.007.252,1.088,1.088,0,0,0-.378.756c0,.252,0,.378.126.5l.5.5a4.936,4.936,0,0,0,1.133.5,4.509,4.509,0,0,1,1.385.756,3.339,3.339,0,0,1,.63.756A3.127,3.127,0,0,1,398.915,327.6Z" transform="translate(-341.99 -307.069)"/>
      <path id="Path_1288" data-name="Path 1288" class="cls-1" d="M407.608,325.608a5.336,5.336,0,0,1-1.008,3.274,4.268,4.268,0,0,1-5.793,0,5.825,5.825,0,0,1,0-6.549,4.268,4.268,0,0,1,5.793,0A5.336,5.336,0,0,1,407.608,325.608Zm-6.423,0a4.172,4.172,0,0,0,.63,2.393,2.21,2.21,0,0,0,1.889.756,2.376,2.376,0,0,0,1.889-.756,4.172,4.172,0,0,0,.63-2.393,4.48,4.48,0,0,0-.63-2.393c-.378-.63-1.008-.756-1.889-.756a2.21,2.21,0,0,0-1.889.756A3.591,3.591,0,0,0,401.185,325.608Z" transform="translate(-340.356 -307.095)"/>
      <path id="Path_1289" data-name="Path 1289" class="cls-1" d="M409.785,326.438v3.4H408.4V321.4h2.393a3.892,3.892,0,0,1,2.393.63,2.21,2.21,0,0,1,.756,1.889,2.367,2.367,0,0,1-1.637,2.267l2.393,3.778h-1.511l-2.015-3.4h-1.385Zm0-1.133h1.007a2.026,2.026,0,0,0,1.385-.378,1.43,1.43,0,0,0,.378-1.008c0-.5-.126-.882-.5-1.007-.252-.252-.756-.252-1.385-.252h-.882V325.3Z" transform="translate(-338.125 -307.043)"/>
    </g>
    <g id="Group_1503" data-name="Group 1503" transform="translate(472.784 341.957)">
      <g id="Group_1501" data-name="Group 1501" transform="translate(0 3.904)">
        <path id="Path_1290" data-name="Path 1290" class="cls-1" d="M389.128,296.136H377.163a1.531,1.531,0,0,1-1.511-1.511,1.625,1.625,0,0,1,1.511-1.511h11.964a1.867,1.867,0,0,0,1.763-2.015v-2.015a1.867,1.867,0,0,0-1.763-2.015h-8.816A5.141,5.141,0,0,1,375.4,281.9v-2.141a4.978,4.978,0,0,1,4.912-5.164H391.9a1.531,1.531,0,0,1,1.511,1.511,1.625,1.625,0,0,1-1.511,1.511H380.312a1.867,1.867,0,0,0-1.763,2.015v2.141a1.867,1.867,0,0,0,1.763,2.015h8.816a5.141,5.141,0,0,1,4.912,5.164v2.015A5.231,5.231,0,0,1,389.128,296.136Z" transform="translate(-375.4 -274.6)"/>
      </g>
      <g id="Group_1502" data-name="Group 1502" transform="translate(7.556)">
        <path id="Path_1291" data-name="Path 1291" class="cls-1" d="M382.911,300.844a1.531,1.531,0,0,1-1.511-1.511V273.011a1.531,1.531,0,0,1,1.511-1.511,1.625,1.625,0,0,1,1.511,1.511v26.322A1.452,1.452,0,0,1,382.911,300.844Z" transform="translate(-381.4 -271.5)"/>
      </g>
    </g>
  </g>
</svg>
